<svg width="46" height="15" viewBox="0 0 46 15" fill="none" xmlns="http://www.w3.org/2000/svg">
<path d="M7.3266 11.3493C7.3266 10.7942 7.33263 9.31028 7.31895 9.12745C7.33088 6.91937 5.72543 5.36177 4.71118 5.4832C4.00935 5.5441 3.42117 5.83028 3.10536 6.65354C2.81265 7.42078 3.07434 8.44131 4.04753 8.68078C5.08815 8.93796 5.69579 9.15193 6.13555 9.4538C6.67438 9.82337 7.11426 10.5295 7.12594 11.3502" fill="#0060AF"/>
<path d="M7.74148 14.7064C5.90661 14.7064 4.02089 14.2544 2.13767 13.3606L2.09146 13.3379L2.06936 13.2908C1.22426 11.5069 0.777344 9.55575 0.777344 7.6468C0.777344 5.74073 1.20592 3.87308 2.05166 2.09159L2.07489 2.04425L2.12198 2.02064C3.86405 1.19538 5.73809 0.777344 7.69376 0.777344C9.51557 0.777344 11.4612 1.24272 13.3194 2.12549L13.3671 2.14671L13.3891 2.19493C14.2504 4.01172 14.7046 5.96236 14.7046 7.83968C14.7046 9.70971 14.2685 11.579 13.4062 13.3946L13.3835 13.4424L13.3355 13.4645C11.62 14.2765 9.68547 14.7064 7.74148 14.7064ZM2.31197 13.116C4.14144 13.9765 5.96601 14.4112 7.74148 14.4112C9.62407 14.4112 11.4964 13.9996 13.163 13.2196C13.9909 11.4602 14.4105 9.64943 14.4105 7.83968C14.4105 6.02264 13.9725 4.13252 13.144 2.36923C11.3406 1.52149 9.4573 1.07194 7.69376 1.07194C5.80038 1.07194 3.9856 1.47352 2.29615 2.26576C1.4852 3.9925 1.07244 5.80188 1.07244 7.6468C1.07244 9.49522 1.5014 11.3861 2.31197 13.116Z" fill="#0060AF"/>
<path d="M6.89134 11.3518C6.89473 10.6401 6.49754 10.0109 5.97842 9.67273C5.51795 9.37387 4.89976 9.17747 3.90246 8.92457C3.59418 8.84571 3.27171 8.67054 3.17187 8.44727C2.9078 8.71335 2.85983 9.31158 2.90629 9.66117C2.96029 10.0658 3.43307 10.7326 4.14494 10.7587C4.57967 10.7761 5.1293 10.6651 5.39288 10.6091C5.84758 10.5109 6.56698 10.7957 6.68151 11.3509" fill="#0060AF"/>
<path d="M7.69314 2.04297C6.48614 2.04297 5.44351 2.83897 5.44728 4.21638C5.45104 5.37466 6.38254 5.99474 6.71493 6.43764C7.21722 7.10505 7.48909 7.89503 7.51734 9.1038C7.53932 10.0658 7.53819 11.0158 7.54308 11.3524H7.80955C7.80491 11.0002 7.79285 9.99172 7.80666 9.07404C7.82474 7.86489 8.1064 7.10505 8.60894 6.43764C8.94422 5.99474 9.87496 5.37466 9.87697 4.21638C9.88149 2.83897 8.83949 2.04297 7.63349 2.04297" fill="#0060AF"/>
<path d="M7.99951 11.3493C7.99951 10.7942 7.99323 9.31028 8.00667 9.12745C7.99487 6.91937 9.59931 5.36177 10.6144 5.4832C11.3163 5.5441 11.9038 5.83028 12.2205 6.65354C12.513 7.42078 12.2498 8.44131 11.2777 8.68078C10.2366 8.93796 9.6297 9.15193 9.18881 9.4538C8.65061 9.82337 8.24149 10.5295 8.22893 11.3502" fill="#0060AF"/>
<path d="M8.43557 11.3518C8.4318 10.6401 8.82887 10.0109 9.34648 9.67273C9.80884 9.37387 10.4278 9.17747 11.4242 8.92457C11.7331 8.84571 12.0552 8.67054 12.1533 8.44727C12.4186 8.71335 12.4665 9.31158 12.42 9.66117C12.3649 10.0658 11.8933 10.7326 11.1827 10.7587C10.7481 10.7761 10.1956 10.6651 9.93315 10.6091C9.48021 10.5109 8.7588 10.7957 8.64377 11.3509" fill="#0060AF"/>
<path d="M8.8068 13.6484L8.65234 12.5214L9.02517 12.4649C9.11596 12.4525 9.22646 12.4683 9.27066 12.5252C9.31951 12.5846 9.33445 12.6337 9.34387 12.7115C9.35794 12.8079 9.33006 12.9192 9.22156 12.9747V12.9781C9.34274 12.9781 9.41595 13.0651 9.43717 13.2121C9.44031 13.2431 9.44948 13.318 9.44031 13.3806C9.4157 13.5294 9.32692 13.5772 9.17711 13.5982L8.8068 13.6484ZM9.04677 13.4466C9.09097 13.4403 9.1358 13.438 9.17083 13.4156C9.22445 13.3806 9.21956 13.3056 9.21215 13.25C9.19344 13.1277 9.16154 13.0812 9.03182 13.1004L8.95033 13.113L9.00194 13.4529L9.04677 13.4466ZM8.96866 12.9259C9.01801 12.9179 9.08494 12.9119 9.11282 12.8651C9.12738 12.8338 9.1461 12.809 9.13379 12.7394C9.1186 12.6569 9.09122 12.6058 8.98649 12.6256L8.88892 12.6413L8.92735 12.9302" fill="#0060AF"/>
<path d="M10.4226 12.9696C10.4254 12.9906 10.4288 13.0139 10.4301 13.0349C10.4602 13.2405 10.4226 13.4106 10.1915 13.4575C9.84994 13.5233 9.78451 13.311 9.72436 13.0139L9.69234 12.8532C9.64525 12.5689 9.62504 12.3537 9.95806 12.2874C10.1458 12.2531 10.2699 12.3278 10.3215 12.5147C10.3295 12.5425 10.3395 12.5702 10.3433 12.5982L10.139 12.6404C10.1154 12.5702 10.0841 12.4447 9.99221 12.4553C9.82721 12.4751 9.88171 12.6804 9.89866 12.7662L9.96006 13.0747C9.97852 13.168 10.0152 13.3171 10.158 13.2883C10.2739 13.2651 10.2234 13.0845 10.2131 13.0106" fill="#0060AF"/>
<path d="M10.7504 13.3106L10.6797 12.1443L10.9542 12.0605L11.5297 13.0749L11.3136 13.1396L11.1772 12.8818L10.9372 12.9539L10.9683 13.247L10.7504 13.3106ZM10.9171 12.7655L11.0906 12.7153L10.8603 12.2434" fill="#0060AF"/>
<path d="M3.97139 12.4306C4.05728 12.1556 4.13426 11.9532 4.462 12.0431C4.63743 12.0921 4.74617 12.1694 4.74102 12.3732C4.74018 12.4186 4.7252 12.4648 4.71541 12.5096L4.51135 12.4532C4.5381 12.3407 4.55505 12.2514 4.41642 12.2087C4.25619 12.1648 4.21713 12.359 4.19503 12.4429L4.11203 12.7487C4.08566 12.8395 4.05402 12.9895 4.19503 13.0282C4.31156 13.0596 4.38226 12.9452 4.42445 12.7782L4.28168 12.7404L4.33103 12.5635L4.66668 12.6715L4.50733 13.2608L4.35288 13.2188L4.38766 13.0943H4.38326C4.31219 13.1961 4.22542 13.2068 4.14945 13.1922C3.81379 13.1014 3.84883 12.8821 3.92894 12.589" fill="#0060AF"/>
<path d="M5.21925 12.9276L5.11816 13.407L4.89062 13.3578L5.13311 12.2383L5.521 12.3259C5.74803 12.3749 5.8166 12.476 5.78445 12.6841C5.76612 12.8035 5.70722 12.9322 5.56344 12.9218L5.56194 12.9198C5.68349 12.9624 5.69379 13.0237 5.67257 13.1297C5.6634 13.1747 5.60024 13.4484 5.64381 13.4926L5.64532 13.5261L5.40987 13.4647C5.40007 13.3888 5.43335 13.2525 5.44653 13.177C5.45985 13.1102 5.48107 13.016 5.41326 12.9806C5.36014 12.9523 5.34043 12.9537 5.2804 12.9399L5.21925 12.9276ZM5.25805 12.7541L5.41125 12.7955C5.5043 12.8089 5.55603 12.7607 5.57437 12.6483C5.59094 12.5452 5.56947 12.5049 5.48596 12.4849L5.32172 12.4516" fill="#0060AF"/>
<path d="M6.67768 12.4886L6.9027 12.5147L6.80576 13.3017C6.75867 13.5512 6.66223 13.6603 6.38773 13.6261C6.10846 13.5908 6.04215 13.4636 6.05911 13.2121L6.15668 12.4258L6.38346 12.4518L6.28614 13.2205C6.27585 13.304 6.25651 13.4277 6.40506 13.4427C6.53679 13.4527 6.56667 13.3654 6.58149 13.2569" fill="#0060AF"/>
<path d="M7.15234 13.6684L7.22003 12.543L7.65237 12.5617C7.85668 12.5717 7.91017 12.7386 7.90377 12.8978C7.89787 12.9947 7.86761 13.1028 7.78322 13.1614C7.71403 13.2113 7.62512 13.2231 7.54262 13.2191L7.40173 13.2112L7.3736 13.6829L7.15234 13.6684ZM7.40814 13.0396L7.52266 13.046C7.61571 13.0494 7.67736 13.0126 7.6854 12.876C7.68992 12.7448 7.64032 12.7225 7.51977 12.7173L7.42898 12.7142" fill="#0060AF"/>
<path d="M37.6455 3.12911L35.9272 6.24795C35.2786 5.7213 34.4866 5.33366 33.4761 5.33366C31.0848 5.33366 30.1135 7.11617 30.1135 8.37177C30.1135 9.30377 30.7238 10.6789 32.8515 10.6789C33.7446 10.6789 35.0143 10.0576 35.3797 9.77492L33.6802 13.3933C32.8701 13.5549 32.604 13.6551 31.9183 13.6763C28.11 13.79 26.5711 11.4506 26.5723 9.06003C26.5748 5.89987 29.3845 2.05659 34.0422 2.05659C34.3276 2.05659 34.6767 2.15529 34.9752 2.26467L35.2768 1.87891" fill="#0060AF"/>
<path d="M44.7347 1.97656L45.2213 13.3123H41.6001L41.5979 11.3681H39.1287L38.316 13.3123H34.3887L38.4945 5.2176L37.5687 5.21157L39.3278 1.97656H44.7347ZM41.5744 5.44438L40.1783 8.74154H41.6165" fill="#0060AF"/>
<path d="M24.2862 1.97712C26.0795 1.98717 27.0928 2.96061 27.0928 4.36677C27.0928 5.66306 26.0241 6.81054 24.8509 7.40387C26.0588 7.84789 26.1632 8.93787 26.1632 9.70901C26.1632 11.572 24.2938 13.3128 21.8639 13.3128H16.5645L18.6316 5.33092L17.7825 5.32602L19.5183 1.97712C19.5183 1.97712 22.8279 1.96708 24.2862 1.97712ZM22.5268 6.57308C22.8977 6.57308 23.5527 6.47915 23.7164 5.76125C23.8959 4.98195 23.2812 4.96098 22.9864 4.96098L21.9328 4.95636L21.5654 6.57312L22.5268 6.57308ZM21.0372 8.57622L20.5521 10.4392H21.7927C22.2808 10.4392 22.9459 10.197 23.1089 9.59072C23.2699 8.9827 22.8049 8.57622 22.3186 8.57622" fill="#0060AF"/>
</svg>
