<svg width="46" height="14" viewBox="0 0 46 14" fill="none" xmlns="http://www.w3.org/2000/svg">
<path fill-rule="evenodd" clip-rule="evenodd" d="M0.78125 4.85547L4.5307 9.58525L0.78125 12.6922V4.85547Z" fill="#F15A23"/>
<path fill-rule="evenodd" clip-rule="evenodd" d="M2.29102 12.6922L5.11229 10.332L7.06228 12.6922H2.29102Z" fill="#F15A23"/>
<path fill-rule="evenodd" clip-rule="evenodd" d="M0.78125 2.32338L1.75972 3.5611L5.7828 8.58827L7.08644 7.55016C7.08644 7.55016 6.00419 6.27603 5.27751 4.85423C3.85676 2.07445 4.86261 0.34375 4.86261 0.34375H0.78125V2.32338Z" fill="#F15A23"/>
<path fill-rule="evenodd" clip-rule="evenodd" d="M6.35742 9.36616L7.68508 8.26953C7.68508 8.26953 8.95309 9.93868 10.4234 10.3326C12.3501 10.8489 13.2032 9.58583 13.2032 9.58583V12.6928H8.97125L9.9255 11.8677C9.9255 11.8677 9.42763 12.1997 8.20999 11.3562C7.49131 10.8584 6.35742 9.36616 6.35742 9.36616Z" fill="#F15A23"/>
<path fill-rule="evenodd" clip-rule="evenodd" d="M6.47842 0.335938C6.47842 0.335938 6.05488 0.91291 6.35636 2.32462C6.67861 3.83355 7.96018 5.43059 7.9572 5.39483C7.9572 5.39483 8.0396 3.80905 8.97019 2.87846C10.9538 0.89489 13.2021 2.07569 13.2021 2.07569V0.344991L6.47842 0.335938Z" fill="#F15A23"/>
<path fill-rule="evenodd" clip-rule="evenodd" d="M13.2028 4.16821C13.2028 4.16821 11.9484 3.09375 10.8578 3.09375C9.46267 3.09375 8.70117 4.29819 8.70117 5.17188C8.70117 6.44447 9.31201 7.15159 9.92511 7.76469C10.8062 8.64576 11.8781 9.59601 13.2028 8.83119C13.2028 7.38368 13.2028 4.16821 13.2028 4.16821Z" fill="#F15A23"/>
<path fill-rule="evenodd" clip-rule="evenodd" d="M27.4883 0.464844H30.4484C30.4484 0.464844 33.0706 4.43533 34.3594 6.07577C35.6481 7.71621 37.0353 9.58472 37.0353 9.58472C37.0353 9.58472 37.0353 4.16624 37.0353 1.35403C37.0353 0.998554 36.1019 0.464844 36.1019 0.464844H39.5153C39.5153 0.464844 38.3953 0.925006 38.3953 1.35403C38.3953 4.85493 38.3953 13.3277 38.3953 13.3277C38.3953 13.3277 37.3206 12.7318 36.1019 11.3156C34.7326 9.72453 29.8617 3.30076 29.8617 3.30076C29.8617 3.30076 29.8617 9.36504 29.8617 11.621C29.8617 12.0471 30.7951 12.6917 30.7951 12.6917H27.4883C27.4883 12.6917 28.395 12.0419 28.395 11.621C28.395 8.58897 28.395 4.16624 28.395 1.35403C28.395 0.976183 27.4883 0.464844 27.4883 0.464844Z" fill="#005E6A"/>
<path fill-rule="evenodd" clip-rule="evenodd" d="M41.4277 0.464844H45.2268C45.2268 0.464844 44.2067 0.948054 44.2067 1.35403C44.2067 4.16624 44.2067 8.82922 44.2067 11.621C44.2067 12.0647 45.2268 12.6917 45.2268 12.6917H41.4277C41.4277 12.6917 42.3775 12.0504 42.3775 11.621C42.3775 8.26841 42.3775 4.16624 42.3775 1.35403C42.3775 0.963717 41.4277 0.464844 41.4277 0.464844Z" fill="#005E6A"/>
<path fill-rule="evenodd" clip-rule="evenodd" d="M16.3125 0.464844C16.3125 0.464844 17.2974 0.955948 17.2974 1.35403C17.2974 4.16624 17.2974 8.26841 17.2974 11.621C17.2974 12.0575 16.3125 12.6917 16.3125 12.6917C16.3125 12.6917 21.233 12.6917 21.9408 12.6917C22.2925 12.6917 26.2323 12.0474 26.2323 9.01003C26.2323 5.97262 23.1719 5.68821 23.1719 5.68821C23.1719 5.68821 25.0363 5.16991 25.0363 3.09178C25.0363 0.851787 22.2925 0.464844 21.9408 0.464844C21.2097 0.464844 16.3125 0.464844 16.3125 0.464844ZM19.3025 5.48692V1.66444C19.3025 1.66444 20.9339 1.66444 21.589 1.66444C21.9408 1.66444 23.1719 2.07515 23.1719 3.59895C23.1719 4.85493 21.9408 5.48692 21.589 5.48692C20.7915 5.48692 19.3025 5.48692 19.3025 5.48692ZM19.3025 6.48946C19.3025 6.48946 21.589 6.48946 21.9408 6.48946C22.2925 6.48946 24.368 7.02855 24.368 8.82922C24.368 10.6651 22.2925 11.3156 21.9408 11.3156C21.589 11.3156 19.3025 11.3156 19.3025 11.3156V6.48946Z" fill="#005E6A"/>
</svg>
