<svg width="46" height="18" viewBox="0 0 46 18" fill="none" xmlns="http://www.w3.org/2000/svg">
<path d="M15.0215 0.664518H3.34416C1.92822 0.664518 0.779297 1.84118 0.779297 3.29454V14.856C0.779297 16.296 1.9055 17.4653 3.30573 17.486L15.0132 17.4863C16.4291 17.4863 17.5807 16.3093 17.5807 14.856L17.5864 3.29454C17.5864 1.84118 16.4371 0.664518 15.0215 0.664518ZM4.73202 16.1386L4.09473 16.1463C3.3231 16.1463 2.70019 15.511 2.70019 14.7303L2.69551 14.6177V3.94119L2.70019 3.36573C2.73126 2.61047 3.30439 2.00025 4.0563 2.00025H5.3506C6.52592 2.00025 7.47634 3.02118 7.47634 4.22357C7.47634 4.82076 7.24241 5.3598 6.86412 5.7538L3.56138 9.10366L6.65826 12.2584C7.05594 12.6707 7.29655 13.2118 7.29655 13.803C7.29655 15.0926 6.15063 16.1386 4.73202 16.1386ZM14.2529 16.1289L8.47856 16.1272C8.47856 16.1272 9.14626 14.6829 9.14626 13.7903C9.14626 12.7018 8.78233 11.7277 8.21255 11.0847L6.23852 9.07091L8.25165 6.99028C8.85418 6.42418 9.25186 5.42263 9.25186 4.28339C9.25186 3.38076 9.00256 2.58106 8.59886 2.00025H9.99876C11.1731 2.00025 12.1245 3.02118 12.1245 4.22357C12.1245 4.82076 11.8916 5.3598 11.5143 5.7538L8.2727 9.06957L15.0032 15.9334C14.7886 16.0677 14.5206 16.1289 14.2529 16.1289ZM15.6615 13.9851L10.8376 9.06857L13.1347 6.73463C13.6029 6.14814 13.901 5.26757 13.901 4.28339C13.901 3.37542 13.647 2.55466 13.2417 1.97418L14.2686 2.00627C15.0389 2.00627 15.6655 2.63955 15.6655 3.42254L15.6615 13.9851Z" fill="#00529C"/>
<path d="M27.936 8.28508C28.0299 8.19117 28.1408 8.0702 28.2688 7.92215C28.3965 7.77411 28.5175 7.59933 28.6317 7.39749C28.746 7.19564 28.8436 6.97073 28.9242 6.72177C29.005 6.47313 29.0455 6.20746 29.0455 5.92507C29.0455 5.374 28.9512 4.85969 28.7631 4.38215C28.5746 3.90493 28.2855 3.48787 27.8955 3.1313C27.5055 2.77539 27.0183 2.49601 26.4332 2.29417C25.8483 2.09265 25.1656 1.99173 24.3859 1.99173H24.3646H22.1229H21.5394H19.2422V4.56294V13.4643V16.1113H24.8902C25.7103 16.1113 26.4261 16.0004 27.0384 15.7785C27.6499 15.5566 28.1579 15.2508 28.5612 14.8608C28.9646 14.4708 29.2637 14.017 29.4588 13.4993C29.6537 12.9817 29.7513 12.427 29.7513 11.8351C29.7513 11.0418 29.5698 10.336 29.2069 9.71706C28.8436 9.09882 28.4199 8.62127 27.936 8.28508ZM25.4386 4.57898C25.6288 4.6515 25.7875 4.74574 25.9115 4.86437C26.2326 5.17249 26.3934 5.54076 26.3934 5.96918C26.3934 6.35784 26.3262 6.67899 26.1925 6.9333C26.0585 7.18795 25.9245 7.38211 25.7909 7.51579H21.8645V4.41222H24.3051C24.7626 4.41222 25.1392 4.4687 25.4386 4.57898ZM25.0313 9.95934C25.7421 9.95934 26.2687 10.1435 26.6116 10.5111C26.9341 10.873 27.0965 11.3001 27.0965 11.7943C27.0965 12.3036 26.9124 12.7384 26.5441 13.1C26.1755 13.4616 25.57 13.6427 24.7261 13.6427H24.411H21.8645V9.95934H25.0313Z" fill="#00529C"/>
<path d="M39.3295 10.0299C39.7529 9.74078 40.1061 9.40459 40.3885 9.02129C40.6709 8.63798 40.8791 8.21457 41.0138 7.75072C41.1481 7.28654 41.2156 6.81266 41.2156 6.32843C41.2156 5.69649 41.111 5.11501 40.9028 4.58366C40.6939 4.05264 40.3815 3.59548 39.9648 3.21217C39.5477 2.82886 39.0267 2.52977 38.4014 2.31455C37.7762 2.09967 37.0533 1.99173 36.2333 1.99173H36.1594H30.7266H30.6758V16.1113H33.3489V10.867H34.8394L38.5258 16.1113H41.6591L37.847 10.6855C38.4115 10.5378 38.9057 10.3193 39.3295 10.0299ZM36.2533 4.41222C36.4214 4.41222 36.5801 4.42325 36.7312 4.4423C37.2077 4.51415 37.5971 4.68425 37.8972 4.9546C38.3055 5.32321 38.5097 5.77502 38.5097 6.31039C38.5097 6.57874 38.4659 6.83973 38.3791 7.09405C38.2918 7.34869 38.1548 7.57293 37.9673 7.76676C37.7795 7.96125 37.5386 8.11832 37.2442 8.23896C36.9494 8.3596 36.5945 8.41975 36.1795 8.41975H33.3489V4.41222H36.2533Z" fill="#00529C"/>
<path d="M42.6013 1.99173V1.99574C42.5742 1.99507 42.5478 1.99173 42.5208 1.99173H42.498V1.99273V7.16823V10.8767V16.1113H45.2236V1.99173H42.6013Z" fill="#00529C"/>
</svg>
