<svg width="46" height="18" viewBox="0 0 46 18" fill="none" xmlns="http://www.w3.org/2000/svg">
<path d="M20.3667 4.1489H21.8772C22.4004 4.1489 22.7884 4.25579 22.7884 4.83119C22.7884 5.42167 22.1993 5.59401 21.7322 5.59401H20.071L20.3667 4.1489ZM15.9941 11.4121H21.476C23.5667 11.4121 25.4121 10.5 25.4121 8.19699C25.4121 7.31552 24.8517 6.4703 23.966 6.28242V6.257H23.9792C25.1319 5.95046 25.7332 5.15892 25.7332 3.95537C25.7332 2.5743 24.9572 1.85245 22.8821 1.85245H17.9756L15.9941 11.4121ZM19.7089 7.37532H21.3272C21.9441 7.37532 22.4686 7.48221 22.4686 8.19417C22.4686 8.96922 21.7463 9.15522 21.2218 9.15522H19.3331L19.7089 7.37532Z" fill="#0069AB"/>
<path d="M27.9247 11.4121H30.8676L32.3415 4.30099H34.992L35.5029 1.85246H27.2542L26.7461 4.30099H29.3966L27.9247 11.4121Z" fill="#0069AB"/>
<path d="M34.5586 11.4121H37.356L38.4668 6.05688H38.4932L40.2463 11.4121H43.1384L45.148 1.85246H42.3478L41.2775 7.07396H41.252L39.458 1.85246H36.5377L34.5586 11.4121Z" fill="#0069AB"/>
<path d="M14.9043 18.0059C14.9924 17.6805 14.9561 17.6824 15.1736 16.8047C15.33 15.9397 16.2825 14.6146 17.9621 14.4786C18.5347 14.4103 40.5217 13.4761 45.22 13.1469L45.0792 13.9597C40.6526 14.5318 20.6245 17.2468 14.9043 18.0059Z" fill="#E31C24"/>
<path d="M5.28906 11.4143V13.1504L6.79444 12.2812L8.30029 13.1504V11.4143L6.79444 10.5436L5.28906 11.4143Z" fill="#A68561"/>
<path d="M11.3107 11.4121V9.67129L6.79456 7.06407L2.28125 9.67129V11.4121L6.79456 8.80206L11.3107 11.4121Z" fill="#A68561"/>
<path d="M0.773438 3.58856L6.79449 0.112107L12.8165 3.58856V10.5415L11.3106 11.4121V4.4592L6.79449 1.85057L2.27976 4.4592V11.4121L0.773438 10.5415V3.58856Z" fill="#0069AB"/>
<path d="M6.79356 3.58777L9.80432 5.3267V12.2787L8.29988 13.1465V6.19452L6.79356 5.3267L5.28912 6.19452V13.1465L3.78516 12.2787V5.3267L6.79356 3.58777Z" fill="#0069AB"/>
</svg>
