<svg width="72" height="72" viewBox="0 0 72 72" fill="none" xmlns="http://www.w3.org/2000/svg">
<rect width="72" height="72" rx="36" fill="#FFDAD7"/>
<rect x="8" y="8" width="56" height="56" rx="28" fill="#D62B45"/>
<rect x="16" y="16" width="40" height="40" rx="20" fill="#AE1E40"/>
<path fill-rule="evenodd" clip-rule="evenodd" d="M35.5018 38.2408L42.3515 45.0905C42.7149 45.4539 43.2079 45.6581 43.7219 45.6581C44.236 45.6581 44.7289 45.4539 45.0924 45.0905C45.4559 44.727 45.6601 44.234 45.6601 43.72C45.6601 43.206 45.4559 42.713 45.0924 42.3495L38.2401 35.4998L45.0911 28.6501C45.271 28.4702 45.4137 28.2565 45.511 28.0214C45.6083 27.7863 45.6584 27.5343 45.6583 27.2799C45.6582 27.0254 45.6081 26.7734 45.5106 26.5384C45.4132 26.3033 45.2704 26.0897 45.0905 25.9099C44.9105 25.73 44.6968 25.5873 44.4617 25.49C44.2266 25.3927 43.9746 25.3426 43.7202 25.3427C43.4657 25.3427 43.2138 25.3929 42.9787 25.4903C42.7436 25.5878 42.5301 25.7305 42.3502 25.9105L35.5018 32.7602L28.6521 25.9105C28.4734 25.7254 28.2597 25.5777 28.0234 25.476C27.787 25.3744 27.5328 25.3208 27.2756 25.3184C27.0183 25.3161 26.7631 25.365 26.525 25.4623C26.2868 25.5596 26.0704 25.7034 25.8884 25.8852C25.7064 26.067 25.5625 26.2833 25.4649 26.5213C25.3674 26.7594 25.3183 27.0145 25.3204 27.2718C25.3225 27.529 25.3758 27.7833 25.4772 28.0197C25.5787 28.2562 25.7262 28.47 25.9111 28.6488L32.7634 35.4998L25.9124 42.3508C25.7275 42.5297 25.58 42.7435 25.4785 42.9799C25.3771 43.2164 25.3238 43.4706 25.3217 43.7279C25.3196 43.9852 25.3687 44.2403 25.4662 44.4783C25.5638 44.7164 25.7077 44.9326 25.8897 45.1145C26.0717 45.2963 26.2881 45.4401 26.5263 45.5374C26.7644 45.6347 27.0196 45.6836 27.2768 45.6812C27.5341 45.6789 27.7883 45.6253 28.0247 45.5237C28.261 45.422 28.4747 45.2743 28.6534 45.0892L35.5018 38.2408Z" fill="white"/>
</svg>
