<svg width="46" height="14" viewBox="0 0 46 14" fill="none" xmlns="http://www.w3.org/2000/svg">
<path fill-rule="evenodd" clip-rule="evenodd" d="M33.4967 0.833878C32.6411 1.34561 30.6231 2.5411 29.8698 2.98629C29.4107 3.22789 28.3473 3.33338 27.7459 2.49573C27.7352 2.48061 26.946 1.46211 26.9138 1.42376C26.8912 1.39666 26.381 0.615031 25.2442 0.590593C25.0763 0.58648 24.2412 0.581883 23.4264 1.06023C22.3434 1.69934 19.8245 3.18675 19.8245 3.18675C19.8238 3.18675 19.8238 3.18808 19.8226 3.18808C18.7872 3.79998 17.9805 4.27639 17.9805 4.27639L18.9336 5.48555C19.3795 6.05741 20.385 6.49982 21.2569 5.98277C21.2569 5.98277 24.4788 4.05561 24.4907 4.05004C25.884 3.26067 26.9592 3.26067 27.6728 3.5544C28.3134 3.83398 28.8706 4.53056 28.8706 4.53056C28.8706 4.53056 29.5989 5.46281 29.7274 5.62589C30.1418 6.15274 30.8276 5.94575 30.8276 5.94575C30.8276 5.94575 31.0818 5.91599 31.4649 5.68105C31.4649 5.68105 34.5857 3.81196 34.5877 3.81136C35.5786 3.21083 36.4875 3.09868 36.952 3.14284C38.4069 3.27942 38.8589 4.32926 39.4897 5.06165C39.8612 5.49245 40.1964 5.73706 40.709 5.72472C41.0459 5.71734 41.4264 5.50636 41.4825 5.46825L45.2196 3.24059C45.2196 3.24059 44.8362 2.64405 44.0509 1.71592C43.348 0.887833 42.6015 1.2625 42.0063 1.567C41.7562 1.69475 40.8502 2.31729 39.9525 2.7516C39.3129 3.06094 38.3942 2.96791 37.8907 2.32528C37.8606 2.2862 37.0461 1.26758 36.9604 1.14225C36.6317 0.716893 35.9902 0.335937 35.1681 0.335937C34.6683 0.335937 34.101 0.476754 33.4967 0.833878Z" fill="url(#paint0_linear_2752_16461)"/>
<path fill-rule="evenodd" clip-rule="evenodd" d="M0.820286 9.54356C0.820286 8.87843 0.808574 8.32024 0.773438 7.82254H1.99244L2.04959 8.67761H2.08379C2.36008 8.22576 2.86534 7.69141 3.80782 7.69141C4.54346 7.69141 5.11805 8.11978 5.35897 8.7606H5.38263C5.57834 8.44013 5.80743 8.2029 6.07154 8.03607C6.38214 7.81081 6.73854 7.69141 7.19824 7.69141C8.12889 7.69141 9.07066 8.3442 9.07066 10.1963V13.6029H7.69179V10.4104C7.69179 9.44896 7.37053 8.87843 6.69287 8.87843C6.20939 8.87843 5.85275 9.23519 5.70436 9.65087C5.66946 9.79289 5.63503 9.97109 5.63503 10.1361V13.6029H4.25569V10.2555C4.25569 9.44896 3.9459 8.87843 3.29073 8.87843C2.76204 8.87843 2.40623 9.30645 2.2795 9.70918C2.22164 9.85253 2.19845 10.0183 2.19845 10.1841V13.6029H0.820286V9.54356Z" fill="#003A70"/>
<path fill-rule="evenodd" clip-rule="evenodd" d="M14.4419 12.2123C14.4419 12.7343 14.4648 13.2439 14.5224 13.601H13.2463L13.1547 12.9602H13.1198C12.7753 13.4117 12.1892 13.7316 11.4653 13.7316C10.3388 13.7316 9.70703 12.8895 9.70703 12.0106C9.70703 10.5501 10.9592 9.81477 13.0279 9.82651V9.73118C13.0279 9.35119 12.8783 8.72247 11.8902 8.72247C11.3383 8.72247 10.7635 8.90067 10.3845 9.14952L10.1083 8.2007C10.5228 7.93903 11.2474 7.68945 12.1316 7.68945C13.925 7.68945 14.4419 8.86535 14.4419 10.123V12.2123ZM13.0624 10.775C12.0628 10.7511 11.1092 10.9766 11.1092 11.8551C11.1092 12.4243 11.4653 12.686 11.9137 12.686C12.4761 12.686 12.8905 12.306 13.0165 11.8907C13.0507 11.7838 13.0624 11.6647 13.0624 11.5701V10.775Z" fill="#003A70"/>
<path fill-rule="evenodd" clip-rule="evenodd" d="M15.4211 9.54356C15.4211 8.87843 15.4085 8.32024 15.375 7.82254H16.6151L16.6844 8.68898H16.7184C16.96 8.23846 17.569 7.69141 18.4997 7.69141C19.4768 7.69141 20.488 8.3442 20.488 10.1726V13.6029H19.0747V10.3392C19.0747 9.50775 18.776 8.87843 18.0059 8.87843C17.4428 8.87843 17.0522 9.29398 16.9024 9.73337C16.8572 9.86427 16.8452 10.0427 16.8452 10.2077V13.6029H15.4211V9.54356Z" fill="#003A70"/>
<path fill-rule="evenodd" clip-rule="evenodd" d="M26.6139 5.49805V11.9745C26.6139 12.5679 26.6365 13.2101 26.6596 13.6013H25.3954L25.3388 12.6875H25.3154C24.982 13.3287 24.3029 13.732 23.4878 13.732C22.1553 13.732 21.0977 12.557 21.0977 10.7765C21.086 8.84148 22.2582 7.68978 23.6026 7.68978C24.3723 7.68978 24.9244 8.02259 25.1768 8.45024H25.2002V5.49805H26.6139ZM25.2009 10.2282C25.2009 10.1108 25.1891 9.96764 25.1669 9.84932C25.0403 9.27952 24.5919 8.8163 23.9483 8.8163C23.0405 8.8163 22.5347 9.64766 22.5347 10.7279C22.5347 11.784 23.0405 12.5557 23.9368 12.5557C24.5112 12.5557 25.0171 12.1522 25.1549 11.5233C25.1891 11.3921 25.2009 11.2499 25.2009 11.095V10.2282Z" fill="#003A70"/>
<path fill-rule="evenodd" clip-rule="evenodd" d="M27.6133 13.6023H29.0397V7.82227H27.6133V13.6023Z" fill="#003A70"/>
<path fill-rule="evenodd" clip-rule="evenodd" d="M30.0404 9.68488C30.0404 8.9018 30.0285 8.34313 29.9941 7.82135H31.224L31.269 8.9249H31.3167C31.592 8.10589 32.2472 7.82135 32.8445 7.82135C32.9821 7.82135 33.0625 7.79704 33.1777 7.82135V9.10371C33.0625 9.08 32.9363 9.05628 32.7639 9.05628C32.086 9.05628 31.626 9.50692 31.4997 10.1593C31.4774 10.29 31.4542 10.445 31.4542 10.6119V13.6021H30.0404V9.68488Z" fill="#003A70"/>
<path fill-rule="evenodd" clip-rule="evenodd" d="M33.832 13.6023H35.2563V7.82227H33.832V13.6023Z" fill="#003A70"/>
<defs>
<linearGradient id="paint0_linear_2752_16461" x1="17.9805" y1="6.21174" x2="45.2196" y2="6.21174" gradientUnits="userSpaceOnUse">
<stop stop-color="#FFCA06"/>
<stop offset="0.330844" stop-color="#FBAA18"/>
<stop offset="0.694742" stop-color="#FFC907"/>
<stop offset="1" stop-color="#FAA619"/>
</linearGradient>
</defs>
</svg>
