<svg width="72" height="72" viewBox="0 0 72 72" fill="none" xmlns="http://www.w3.org/2000/svg">
<rect width="72" height="72" rx="36" fill="#BEFED5"/>
<rect x="8" y="8" width="56" height="56" rx="28" fill="#3FC470"/>
<circle cx="36.5" cy="36.5" r="20.5" fill="white"/>
<mask id="mask0_2168_26570" style="mask-type:luminance" maskUnits="userSpaceOnUse" x="14" y="14" width="44" height="44">
<path d="M36 56C38.6269 56.0033 41.2286 55.4874 43.6555 54.4821C46.0825 53.4768 48.2868 52.0019 50.142 50.142C52.0019 48.2868 53.4768 46.0825 54.4821 43.6555C55.4874 41.2286 56.0033 38.6269 56 36C56.0033 33.3731 55.4874 30.7714 54.4821 28.3445C53.4768 25.9176 52.0019 23.7132 50.142 21.858C48.2868 19.9982 46.0825 18.5232 43.6555 17.5179C41.2286 16.5126 38.6269 15.9968 36 16C33.3731 15.9968 30.7714 16.5126 28.3445 17.5179C25.9176 18.5232 23.7132 19.9982 21.858 21.858C19.9982 23.7132 18.5232 25.9176 17.5179 28.3445C16.5126 30.7714 15.9968 33.3731 16 36C15.9968 38.6269 16.5126 41.2286 17.5179 43.6555C18.5232 46.0825 19.9982 48.2868 21.858 50.142C23.7132 52.0019 25.9176 53.4768 28.3445 54.4821C30.7714 55.4874 33.3731 56.0033 36 56Z" fill="white" stroke="white" stroke-width="4" stroke-linejoin="round"/>
<path d="M28 36L34 42L46 30" stroke="black" stroke-width="4" stroke-linecap="round" stroke-linejoin="round"/>
</mask>
<g mask="url(#mask0_2168_26570)">
<path d="M12 12H60V60H12V12Z" fill="#239D50"/>
</g>
</svg>
