<svg width="24" height="24" viewBox="0 0 24 24" fill="none" xmlns="http://www.w3.org/2000/svg">
<path opacity="0.4" d="M17.61 10.69H20.5C20.7739 10.69 21 10.9161 21 11.19V16.43C21 18.0923 20.4239 19.3476 19.5277 20.1893C18.6266 21.0356 17.3629 21.5 15.93 21.5H8.07C6.63711 21.5 5.37343 21.0356 4.4723 20.1893C3.57612 19.3476 3 18.0923 3 16.43V7.57C3 5.90766 3.57612 4.65241 4.4723 3.81071C5.37343 2.96436 6.63711 2.5 8.07 2.5H12.31C12.5839 2.5 12.81 2.72614 12.81 3V5.89C12.81 8.53614 14.9639 10.69 17.61 10.69Z" fill="#315879" stroke="#315879"/>
<path d="M17.435 8.31051L17.435 8.31048H17.4297C16.1826 8.31048 15.1797 7.31125 15.1797 6.14048V2.65048C15.1797 2.6159 15.1892 2.59436 15.2009 2.57833C15.2145 2.55973 15.2373 2.54073 15.269 2.52826C15.3323 2.50335 15.3962 2.51415 15.4461 2.56403C16.4446 3.56248 17.9435 5.07503 19.2557 6.39922C19.8876 7.03692 20.4763 7.63093 20.9449 8.10281L20.9461 8.10403C20.972 8.12986 20.9791 8.15096 20.9815 8.1661C20.9845 8.18415 20.9825 8.2077 20.9712 8.23314C20.9492 8.28292 20.9027 8.32048 20.8297 8.32048C19.6987 8.32048 18.3817 8.32048 17.435 8.31051ZM20.8297 8.82048C21.3997 8.82048 21.6997 8.15048 21.2997 7.75048C20.8319 7.27945 20.2438 6.68601 19.6122 6.04866C18.2995 4.72402 16.7989 3.20971 15.7997 2.21048C15.3897 1.80048 14.6797 2.08048 14.6797 2.65048V6.14048C14.6797 7.60048 15.9197 8.81048 17.4297 8.81048C18.3796 8.82048 19.6994 8.82048 20.8294 8.82048H20.8297Z" fill="#315879" stroke="#315879"/>
<path d="M13.5 13.25H7.5C7.36614 13.25 7.25 13.1339 7.25 13C7.25 12.8661 7.36614 12.75 7.5 12.75H13.5C13.6339 12.75 13.75 12.8661 13.75 13C13.75 13.1339 13.6339 13.25 13.5 13.25Z" fill="#315879" stroke="#315879"/>
<path d="M11.5 17.25H7.5C7.36614 17.25 7.25 17.1339 7.25 17C7.25 16.8661 7.36614 16.75 7.5 16.75H11.5C11.6339 16.75 11.75 16.8661 11.75 17C11.75 17.1339 11.6339 17.25 11.5 17.25Z" fill="#315879" stroke="#315879"/>
</svg>
