<svg width="20" height="20" viewBox="0 0 20 20" fill="none" xmlns="http://www.w3.org/2000/svg">
<path d="M2.64258 6.20117L10.0009 10.4595L17.3092 6.22615" stroke="#191717" stroke-width="1.25" stroke-linecap="round" stroke-linejoin="round"/>
<path d="M10 18.0095V10.4512" stroke="#191717" stroke-width="1.25" stroke-linecap="round" stroke-linejoin="round"/>
<path d="M8.2755 2.06797L3.82551 4.54299C2.81717 5.10133 1.99219 6.50131 1.99219 7.65131V12.3597C1.99219 13.5097 2.81717 14.9096 3.82551 15.468L8.2755 17.943C9.2255 18.468 10.7838 18.468 11.7338 17.943L16.1839 15.468C17.1922 14.9096 18.0172 13.5097 18.0172 12.3597V7.65131C18.0172 6.50131 17.1922 5.10133 16.1839 4.54299L11.7338 2.06797C10.7755 1.53464 9.2255 1.53464 8.2755 2.06797Z" stroke="#191717" stroke-width="1.25" stroke-linecap="round" stroke-linejoin="round"/>
<path d="M14.1661 11.0327V7.98272L6.25781 3.41602" stroke="#191717" stroke-width="1.25" stroke-linecap="round" stroke-linejoin="round"/>
</svg>
