<svg width="309" height="240" viewBox="0 0 309 240" fill="none" xmlns="http://www.w3.org/2000/svg">
<path d="M308.65 212.152H0.351562V212.306H308.65V212.152Z" fill="#E0E0E0"/>
<path d="M106.61 215.879H100.148V216.033H106.61V215.879Z" fill="#E0E0E0"/>
<path d="M287.802 219.924H264.408V220.078H287.802V219.924Z" fill="#E0E0E0"/>
<path d="M214.926 215.951H196.021V216.105H214.926V215.951Z" fill="#E0E0E0"/>
<path d="M149.859 219.467H116.957V219.621H149.859V219.467Z" fill="#E0E0E0"/>
<path d="M86.4724 218.492H75.1641V218.646H86.4724V218.492Z" fill="#E0E0E0"/>
<path d="M261.431 219.924H252.021V220.078H261.431V219.924Z" fill="#E0E0E0"/>
<path d="M71.568 218.42H40.3867V218.574H71.568V218.42Z" fill="#E0E0E0"/>
<path d="M146.485 184.654H27.4267C26.494 184.652 25.6001 184.28 24.9411 183.62C24.2822 182.96 23.9121 182.066 23.9121 181.133V13.7702C23.9202 12.8429 24.2939 11.9562 24.952 11.3027C25.61 10.6493 26.4993 10.2819 27.4267 10.2803H146.485C147.419 10.2803 148.315 10.6512 148.975 11.3115C149.635 11.9718 150.006 12.8673 150.006 13.801V181.133C150.006 182.067 149.635 182.962 148.975 183.623C148.315 184.283 147.419 184.654 146.485 184.654ZM27.4267 10.4036C26.5349 10.4052 25.6802 10.7606 25.0501 11.3918C24.4201 12.023 24.0663 12.8784 24.0663 13.7702V181.133C24.0663 182.025 24.4201 182.88 25.0501 183.511C25.6802 184.143 26.5349 184.498 27.4267 184.5H146.485C147.378 184.498 148.233 184.143 148.864 183.512C149.495 182.881 149.85 182.025 149.852 181.133V13.7702C149.85 12.8778 149.495 12.0225 148.864 11.3915C148.233 10.7604 147.378 10.4052 146.485 10.4036H27.4267Z" fill="#E0E0E0"/>
<path d="M279.861 184.654H160.796C159.863 184.652 158.968 184.281 158.308 183.621C157.648 182.961 157.277 182.066 157.275 181.133V13.7702C157.285 12.8423 157.66 11.9556 158.319 11.3023C158.978 10.6491 159.868 10.2818 160.796 10.2803H279.861C280.787 10.2835 281.675 10.6516 282.332 11.3049C282.988 11.9582 283.361 12.8439 283.369 13.7702V181.133C283.369 182.065 283 182.958 282.343 183.618C281.685 184.278 280.793 184.65 279.861 184.654ZM160.796 10.4036C159.904 10.4052 159.048 10.7604 158.417 11.3915C157.786 12.0225 157.431 12.8778 157.43 13.7702V181.133C157.431 182.025 157.786 182.881 158.417 183.512C159.048 184.143 159.904 184.498 160.796 184.5H279.861C280.753 184.498 281.609 184.143 282.24 183.512C282.871 182.881 283.226 182.025 283.228 181.133V13.7702C283.226 12.8778 282.871 12.0225 282.24 11.3915C281.609 10.7604 280.753 10.4052 279.861 10.4036H160.796Z" fill="#E0E0E0"/>
<path d="M119.767 49.1943H46.0469V212.229H119.767V49.1943Z" fill="#E6E6E6"/>
<path d="M119.767 49.1943H49.543V212.229H119.767V49.1943Z" fill="#F5F5F5"/>
<path d="M116.068 208.536L116.068 52.9004L53.2433 52.9004L53.2433 208.536H116.068Z" fill="#F0F0F0"/>
<path d="M116.068 208.528L116.068 52.8926H115.106L115.106 208.528H116.068Z" fill="#E6E6E6"/>
<path d="M107.676 127.126C109.416 127.126 110.827 125.715 110.827 123.975C110.827 122.235 109.416 120.824 107.676 120.824C105.936 120.824 104.525 122.235 104.525 123.975C104.525 125.715 105.936 127.126 107.676 127.126Z" fill="#E6E6E6"/>
<path d="M108.909 126.471C110.649 126.471 112.059 125.06 112.059 123.32C112.059 121.58 110.649 120.169 108.909 120.169C107.168 120.169 105.758 121.58 105.758 123.32C105.758 125.06 107.168 126.471 108.909 126.471Z" fill="#FAFAFA"/>
<path d="M274.891 31.8232H224.99V125.558H274.891V31.8232Z" fill="#E0E0E0"/>
<path d="M277.024 31.8232H227.123V125.558H277.024V31.8232Z" fill="#F5F5F5"/>
<path d="M273.195 121.434V35.9492H230.946V121.434H273.195Z" fill="#FAFAFA"/>
<path d="M273.201 121.434V35.9492H271.592V121.434H273.201Z" fill="#E0E0E0"/>
<path d="M275.447 96.6787H228.709V102.216H275.447V96.6787Z" fill="#F5F5F5"/>
<path d="M213.36 31.8232H163.459V125.558H213.36V31.8232Z" fill="#E0E0E0"/>
<path d="M215.489 31.8232H165.588V125.558H215.489V31.8232Z" fill="#F5F5F5"/>
<path d="M211.666 121.428V35.9434H169.417V121.428H211.666Z" fill="#FAFAFA"/>
<path d="M211.666 121.434V35.9492H210.057V121.434H211.666Z" fill="#E0E0E0"/>
<path d="M213.91 96.6787H167.172V102.216H213.91V96.6787Z" fill="#F5F5F5"/>
<path d="M98.6996 42.0217L98.1385 42.5828H70.6074V31.8232L98.6996 42.0217Z" fill="#E0E0E0"/>
<path d="M71.6741 42.0217H98.6996L97.639 31.8232H70.6074L71.6741 42.0217Z" fill="#F5F5F5"/>
<path d="M126.932 129.803H138.586V118.149H126.932V129.803Z" fill="#EBEBEB"/>
<path d="M126.94 118.147H126.545V129.801H126.94V118.147Z" fill="#E0E0E0"/>
<path d="M137.501 127.581L137.081 128H128.412V120.009L137.501 127.581Z" fill="#E0E0E0"/>
<path d="M129.201 127.581H137.501L136.718 120.009H128.412L129.201 127.581Z" fill="#FAFAFA"/>
<path d="M143.58 145.074L149.438 139.783L155.289 145.074V212.307H143.58V145.074Z" fill="#F0F0F0"/>
<path d="M163.873 145.074L169.725 139.783L175.582 145.074V212.307H163.873V145.074Z" fill="#F0F0F0"/>
<path d="M184.158 145.074L190.016 139.783L195.867 145.074V212.307H184.158V145.074Z" fill="#F0F0F0"/>
<path d="M204.451 145.074L210.303 139.783L216.154 145.074V212.307H204.451V145.074Z" fill="#F0F0F0"/>
<path d="M224.736 145.074L230.594 139.783L236.445 145.074V212.307H224.736V145.074Z" fill="#F0F0F0"/>
<path d="M245.029 145.074L250.881 139.783L256.732 145.074V212.307H245.029V145.074Z" fill="#F0F0F0"/>
<path d="M265.316 145.074L271.174 139.783L277.026 145.074V212.307H265.316V145.074Z" fill="#F0F0F0"/>
<path d="M149.431 157.839L271.166 157.839V154.855L149.431 154.855V157.839Z" fill="#F0F0F0"/>
<path d="M149.431 193.156L271.166 193.156V190.172L149.431 190.172V193.156Z" fill="#F0F0F0"/>
<path d="M154.501 240.001C220.528 240.001 274.053 236.876 274.053 233.021C274.053 229.166 220.528 226.041 154.501 226.041C88.4744 226.041 34.9492 229.166 34.9492 233.021C34.9492 236.876 88.4744 240.001 154.501 240.001Z" fill="#F5F5F5"/>
<path d="M76.5204 73.173C81.9867 67.691 88.4828 63.3436 95.635 60.3807C102.787 57.4178 110.455 55.8979 118.196 55.9083H126.539C126.539 55.9083 165.896 66.2116 165.896 108.374C165.896 149.588 138.649 186.066 126.545 198.188H118.208L76.5204 156.5C65.4768 145.447 59.2734 130.461 59.2734 114.836C59.2734 99.2117 65.4768 84.2261 76.5204 73.173ZM118.202 142.232C123.615 142.232 128.906 140.627 133.406 137.62C137.906 134.612 141.413 130.338 143.484 125.338C145.555 120.337 146.097 114.835 145.041 109.526C143.984 104.218 141.377 99.3421 137.55 95.5154C133.722 91.6886 128.846 89.0829 123.537 88.0277C118.228 86.9725 112.726 87.5153 107.726 89.5874C102.726 91.6595 98.4526 95.1679 95.4465 99.6688C92.4404 104.17 90.8365 109.461 90.8378 114.873C90.8524 122.121 93.742 129.067 98.8722 134.187C104.002 139.307 110.954 142.182 118.202 142.182V142.232Z" fill="#B0B0B0"/>
<path d="M169.3 72.0576C166.859 69.6196 164.219 67.39 161.407 65.3922L161.759 64.8866C164.602 66.9057 167.271 69.1601 169.737 71.626L169.3 72.0576ZM157.72 62.9813C156.271 62.1057 154.767 61.2795 153.256 60.5149L153.527 59.96C155.056 60.7184 156.573 61.5508 158.041 62.4263L157.72 62.9813Z" fill="#D9D9D9"/>
<path opacity="0.2" d="M169.3 72.0576C166.859 69.6196 164.219 67.39 161.407 65.3922L161.759 64.8866C164.602 66.9057 167.271 69.1601 169.737 71.626L169.3 72.0576ZM157.72 62.9813C156.271 62.1057 154.767 61.2795 153.256 60.5149L153.527 59.96C155.056 60.7184 156.573 61.5508 158.041 62.4263L157.72 62.9813Z" fill="#B1B1B1"/>
<path d="M84.8561 73.1731C95.9766 62.4664 110.854 56.5498 126.29 56.695C141.726 56.8402 156.49 63.0355 167.407 73.9495C178.324 84.8634 184.524 99.6248 184.673 115.061C184.823 130.497 178.911 145.376 168.208 156.5L126.544 198.17L84.8561 156.481C73.8152 145.431 67.6133 130.448 67.6133 114.827C67.6133 99.206 73.8152 84.2239 84.8561 73.1731ZM126.538 142.232C131.95 142.232 137.241 140.627 141.742 137.62C146.242 134.613 149.749 130.338 151.82 125.338C153.891 120.337 154.433 114.835 153.376 109.526C152.32 104.218 149.713 99.3422 145.885 95.5155C142.058 91.6887 137.181 89.083 131.873 88.0278C126.564 86.9727 121.062 87.5154 116.062 89.5875C111.062 91.6596 106.788 95.168 103.782 99.6689C100.776 104.17 99.1722 109.461 99.1735 114.873C99.1882 122.121 102.078 129.067 107.208 134.187C112.338 139.307 119.29 142.183 126.538 142.183V142.232Z" fill="#D9D9D9"/>
<path opacity="0.2" d="M84.8561 73.1731C95.9766 62.4664 110.854 56.5498 126.29 56.695C141.726 56.8402 156.49 63.0355 167.407 73.9495C178.324 84.8634 184.524 99.6248 184.673 115.061C184.823 130.497 178.911 145.376 168.208 156.5L126.544 198.17L84.8561 156.481C73.8152 145.431 67.6133 130.448 67.6133 114.827C67.6133 99.206 73.8152 84.2239 84.8561 73.1731ZM126.538 142.232C131.95 142.232 137.241 140.627 141.742 137.62C146.242 134.613 149.749 130.338 151.82 125.338C153.891 120.337 154.433 114.835 153.376 109.526C152.32 104.218 149.713 99.3422 145.885 95.5155C142.058 91.6887 137.181 89.083 131.873 88.0278C126.564 86.9727 121.062 87.5154 116.062 89.5875C111.062 91.6596 106.788 95.168 103.782 99.6689C100.776 104.17 99.1722 109.461 99.1735 114.873C99.1882 122.121 102.078 129.067 107.208 134.187C112.338 139.307 119.29 142.183 126.538 142.183V142.232Z" fill="#B1B1B1"/>
<g style="mix-blend-mode:color-dodge" opacity="0.4">
<path d="M126.544 194.834C126.523 194.834 126.503 194.83 126.484 194.821C126.465 194.813 126.447 194.8 126.433 194.785L86.4902 154.848C78.5746 146.929 73.1848 136.841 71.0022 125.86C68.8195 114.878 69.9421 103.495 74.2279 93.1515C78.5137 82.8077 85.7703 73.9669 95.0803 67.7469C104.39 61.5269 115.335 58.207 126.532 58.207C137.729 58.207 148.674 61.5269 157.984 67.7469C167.294 73.9669 174.55 82.8077 178.836 93.1515C183.122 103.495 184.244 114.878 182.062 125.86C179.879 136.841 174.489 146.929 166.574 154.848L126.649 194.767C126.638 194.785 126.623 194.801 126.605 194.813C126.586 194.824 126.566 194.832 126.544 194.834ZM126.544 58.5111C115.409 58.513 104.524 61.8167 95.2657 68.0044C86.0076 74.192 78.792 82.9859 74.5313 93.274C70.2706 103.562 69.156 114.883 71.3286 125.804C73.5011 136.726 78.8632 146.758 86.7368 154.632L126.569 194.458L166.383 154.651C174.255 146.772 179.616 136.736 181.786 125.812C183.956 114.887 182.838 103.564 178.575 93.2747C174.311 82.9852 167.092 74.1907 157.831 68.003C148.57 61.8152 137.682 58.5121 126.544 58.5111ZM126.544 144.835C120.614 144.835 114.816 143.076 109.885 139.781C104.954 136.486 101.11 131.802 98.8411 126.323C96.5718 120.843 95.9783 114.814 97.1358 108.997C98.2933 103.181 101.15 97.8379 105.344 93.6446C109.538 89.4514 114.881 86.5961 120.698 85.4398C126.515 84.2835 132.544 84.8782 138.023 87.1487C143.502 89.4191 148.185 93.2633 151.479 98.1952C154.773 103.127 156.531 108.925 156.529 114.856C156.511 122.8 153.344 130.414 147.723 136.028C142.101 141.641 134.483 144.797 126.538 144.804L126.544 144.835ZM126.544 85.1789C120.675 85.1789 114.937 86.9194 110.057 90.1803C105.176 93.4412 101.373 98.0761 99.1265 103.499C96.8803 108.922 96.2926 114.889 97.4377 120.645C98.5828 126.402 101.409 131.69 105.56 135.84C109.71 139.991 114.998 142.817 120.755 143.962C126.511 145.107 132.478 144.52 137.901 142.273C143.324 140.027 147.959 136.224 151.22 131.343C154.481 126.463 156.221 120.725 156.221 114.856C156.221 106.981 153.095 99.4285 147.529 93.8579C141.963 88.2874 134.413 85.1546 126.538 85.148L126.544 85.1789Z" fill="#FAFAFA"/>
</g>
</svg>
