<svg width="245" height="212" viewBox="0 0 245 212" fill="none" xmlns="http://www.w3.org/2000/svg">
<path d="M61.3828 0H48.7109V1.67396H61.3828V0Z" fill="#EBEBEB"/>
<path d="M1.83998 18.9827H0.166016C0.170367 13.964 2.16024 9.15085 5.70116 5.59425C9.24208 2.03765 14.0464 0.0265288 19.065 0H41.8309V1.67396H19.065C14.4903 1.70048 10.1118 3.53523 6.88483 6.77791C3.65784 10.0206 1.84432 14.4079 1.83998 18.9827Z" fill="#EBEBEB"/>
<path d="M216.71 5.85938H19.0661C11.8272 5.85938 5.95898 11.7276 5.95898 18.9665V51.5082C5.95898 58.7471 11.8272 64.6153 19.0661 64.6153H216.71C223.949 64.6153 229.818 58.7471 229.818 51.5082V18.9665C229.818 11.7276 223.949 5.85938 216.71 5.85938Z" fill="#F4F4F4"/>
<path d="M91.1462 26.3809L94.0254 32.2062L100.47 33.1437L95.7998 37.6801L96.9046 44.1081L91.1462 41.0782L85.3878 44.1081L86.4926 37.6801L81.8223 33.1437L88.267 32.2062L91.1462 26.3809Z" fill="#CBCBCB"/>
<path d="M117.293 26.3809L120.172 32.2062L126.617 33.1437L121.946 37.6801L123.051 44.1081L117.293 41.0782L111.534 44.1081L112.639 37.6801L107.969 33.1437L114.414 32.2062L117.293 26.3809Z" fill="#CBCBCB"/>
<path d="M143.441 26.3809L146.32 32.2062L152.765 33.1437L148.111 37.6801L149.2 44.1081L143.441 41.0782L137.683 44.1081L138.788 37.6801L134.117 33.1437L140.562 32.2062L143.441 26.3809Z" fill="#CBCBCB"/>
<path d="M169.588 26.3809L172.467 32.2062L178.912 33.1437L174.258 37.6801L175.346 44.1081L169.588 41.0782L163.829 44.1081L164.934 37.6801L160.264 33.1437L166.708 32.2062L169.588 26.3809Z" fill="#CBCBCB"/>
<path opacity="0.3" d="M195.735 30.1648L197.108 32.9604C197.231 33.203 197.411 33.4122 197.632 33.5697C197.854 33.7272 198.111 33.8283 198.38 33.8643L201.46 34.3163L199.234 36.4924C199.04 36.6806 198.895 36.9128 198.81 37.1693C198.726 37.4259 198.704 37.699 198.748 37.9655L199.267 41.0456L196.522 39.6729C196.276 39.5551 196.008 39.4923 195.735 39.4888C195.468 39.4877 195.203 39.5509 194.965 39.6729L192.203 41.1293L192.672 37.999C192.716 37.7325 192.695 37.4593 192.61 37.2028C192.526 36.9463 192.38 36.7141 192.186 36.5259L189.96 34.3497L193.04 33.8978C193.317 33.8653 193.582 33.7641 193.81 33.6033C194.038 33.4425 194.222 33.2272 194.346 32.9771L195.718 30.1816M195.718 26.3984L192.839 32.2238L186.395 33.1612L191.065 37.7144L189.96 44.1257L195.718 41.0958L201.477 44.1257L200.372 37.7144L205.042 33.1612L198.598 32.2238L195.718 26.3984Z" fill="#D7D7D7"/>
<path d="M203.084 210.047H169.588V211.721H203.084V210.047Z" fill="#EBEBEB"/>
<path d="M216.71 147.107H19.0661C11.8272 147.107 5.95898 152.976 5.95898 160.215V192.756C5.95898 199.995 11.8272 205.863 19.0661 205.863H216.71C223.949 205.863 229.818 199.995 229.818 192.756V160.215C229.818 152.976 223.949 147.107 216.71 147.107Z" fill="#F4F4F4"/>
<path d="M91.1462 167.613L94.0254 173.455L100.47 174.376L95.7998 178.929L96.9046 185.341L91.1462 182.311L85.3878 185.341L86.4926 178.929L81.8223 174.376L88.267 173.455L91.1462 167.613Z" fill="#CBCBCB"/>
<path d="M117.293 167.613L120.172 173.455L126.617 174.376L121.946 178.929L123.051 185.341L117.293 182.311L111.534 185.341L112.639 178.929L107.969 174.376L114.414 173.455L117.293 167.613Z" fill="#CBCBCB"/>
<path d="M143.441 167.613L146.32 173.455L152.765 174.376L148.111 178.929L149.2 185.341L143.441 182.311L137.683 185.341L138.788 178.929L134.117 174.376L140.562 173.455L143.441 167.613Z" fill="#CBCBCB"/>
<path d="M169.588 167.613L172.467 173.455L178.912 174.376L174.258 178.929L175.346 185.341L169.588 182.311L163.829 185.341L164.934 178.929L160.264 174.376L166.708 173.455L169.588 167.613Z" fill="#CBCBCB"/>
<path d="M195.734 167.613L198.613 173.455L205.058 174.376L200.404 178.929L201.493 185.341L195.734 182.311L189.976 185.341L191.081 178.929L186.41 174.376L192.855 173.455L195.734 167.613Z" fill="#CBCBCB"/>
<path d="M216.71 76.4824H19.0661C11.8272 76.4824 5.95898 82.3507 5.95898 89.5895V122.131C5.95898 129.37 11.8272 135.238 19.0661 135.238H216.71C223.949 135.238 229.818 129.37 229.818 122.131V89.5895C229.818 82.3507 223.949 76.4824 216.71 76.4824Z" fill="#F4F4F4"/>
<path d="M223.741 110.883L209.68 135.239H244.833L223.741 110.883Z" fill="#F4F4F4"/>
<path d="M91.1462 96.9902L94.0254 102.832L100.47 103.77L95.7998 108.306L96.9046 114.717L91.1462 111.688L85.3878 114.717L86.4926 108.306L81.8223 103.77L88.267 102.832L91.1462 96.9902Z" fill="#CBCBCB"/>
<path d="M117.293 96.9902L120.172 102.832L126.617 103.77L121.946 108.306L123.051 114.717L117.293 111.688L111.534 114.717L112.639 108.306L107.969 103.77L114.414 102.832L117.293 96.9902Z" fill="#CBCBCB"/>
<path opacity="0.3" d="M143.44 100.772L144.813 103.568C144.934 103.814 145.113 104.026 145.334 104.187C145.556 104.347 145.814 104.451 146.085 104.488L149.149 104.957L146.922 107.133C146.728 107.321 146.583 107.554 146.499 107.81C146.414 108.067 146.393 108.34 146.437 108.606L146.956 111.686L144.21 110.23C143.969 110.1 143.698 110.031 143.424 110.029C143.154 110.028 142.888 110.098 142.654 110.23L139.892 111.686L140.41 108.606C140.454 108.34 140.433 108.067 140.349 107.81C140.264 107.554 140.119 107.321 139.925 107.133L137.699 104.957L140.779 104.505C141.05 104.467 141.308 104.364 141.529 104.203C141.751 104.043 141.93 103.83 142.051 103.585L143.424 100.789M143.424 97.0059L140.544 102.848L134.1 103.785L138.77 108.322L137.665 114.733L143.424 111.703L149.182 114.733L148.077 108.322L152.748 103.785L146.303 102.848L143.424 97.0059Z" fill="#CBCBCB"/>
<path opacity="0.3" d="M169.588 100.773L170.96 103.569C171.081 103.815 171.26 104.027 171.482 104.188C171.704 104.348 171.961 104.452 172.232 104.49L175.313 104.942L173.086 107.118C172.892 107.306 172.747 107.538 172.663 107.795C172.578 108.051 172.557 108.324 172.601 108.591L173.12 111.671L170.374 110.215C170.133 110.084 169.862 110.015 169.588 110.014C169.318 110.013 169.053 110.082 168.818 110.215L166.056 111.671L166.575 108.591C166.618 108.324 166.597 108.051 166.513 107.795C166.428 107.538 166.283 107.306 166.089 107.118L163.863 104.942L166.943 104.49C167.214 104.452 167.472 104.348 167.694 104.188C167.915 104.027 168.094 103.815 168.215 103.569L169.588 100.773ZM169.588 96.9902L166.708 102.832L160.264 103.77L164.934 108.306L163.829 114.717L169.588 111.688L175.346 114.717L174.258 108.306L178.928 103.77L172.484 102.832L169.604 96.9902H169.588Z" fill="#CBCBCB"/>
<path opacity="0.3" d="M195.734 100.773L197.107 103.569C197.227 103.815 197.406 104.027 197.628 104.188C197.85 104.348 198.108 104.452 198.379 104.49L201.459 104.942L199.233 107.118C199.039 107.306 198.894 107.538 198.809 107.795C198.725 108.051 198.703 108.324 198.747 108.591L199.266 111.671L196.521 110.215C196.279 110.084 196.009 110.015 195.734 110.014C195.464 110.013 195.199 110.082 194.964 110.215L192.202 111.671L192.721 108.591C192.765 108.324 192.744 108.051 192.659 107.795C192.575 107.538 192.429 107.306 192.236 107.118L190.009 104.942L193.089 104.49C193.36 104.452 193.618 104.348 193.84 104.188C194.062 104.027 194.241 103.815 194.361 103.569L195.734 100.773ZM195.734 96.9902L192.855 102.832L186.41 103.77L191.081 108.306L189.976 114.717L195.734 111.688L201.493 114.717L200.388 108.306L205.058 103.77L198.613 102.832L195.734 96.9902Z" fill="#CBCBCB"/>
<path d="M47.131 32.4277L26.3438 44.3655L47.1341 56.3003L67.9183 44.3655L47.131 32.4277Z" fill="#D6D6D6"/>
<path d="M29.4249 24.0312L29.4219 44.3694L47.1331 54.5309V34.1988L29.4249 24.0312Z" fill="#CBCBCB"/>
<path d="M47.1328 34.1988V54.5309L64.841 44.3694V24.0312L47.1328 34.1988Z" fill="#CBCBCB"/>
<path opacity="0.25" d="M47.1328 34.1988V54.5309L64.841 44.3694V24.0312L47.1328 34.1988Z" fill="white"/>
<path opacity="0.4" d="M47.1328 34.1992L47.4097 54.029L57.6329 48.5064L47.1328 54.5313V34.1992Z" fill="white"/>
<path d="M47.132 13.8613L29.4238 24.0289L47.132 34.1965L64.8401 24.0289L47.132 13.8613Z" fill="#CBCBCB"/>
<path opacity="0.4" d="M47.132 13.8613L29.4238 24.0289L47.132 34.1965L64.8401 24.0289L47.132 13.8613Z" fill="white"/>
<path opacity="0.1" d="M29.4238 24.0293L47.0742 33.6764L64.8401 24.0293L47.132 34.1969L29.4238 24.0293Z" fill="white"/>
<path d="M37.0117 19.6713L54.7199 29.8388L57.2513 28.3863L39.5432 18.2188L37.0117 19.6713Z" fill="#CBCBCB"/>
<path d="M57.2522 28.3848V31.5833L56.9449 31.4078L56.6284 31.9555L56.309 31.7679L55.9925 32.3186L55.6761 32.1341L55.3566 32.6787L55.0402 32.5002L54.7207 33.0449V29.8403L57.2522 28.3848Z" fill="#CBCBCB"/>
<path opacity="0.25" d="M57.2522 28.3848V31.5833L56.9449 31.4078L56.6284 31.9555L56.309 31.7679L55.9925 32.3186L55.6761 32.1341L55.3566 32.6787L55.0402 32.5002L54.7207 33.0449V29.8403L57.2522 28.3848Z" fill="black"/>
<path d="M47.131 102.486L26.3438 114.424L47.1341 126.359L67.9183 114.424L47.131 102.486Z" fill="#D6D6D6"/>
<path d="M29.4249 94.082L29.4219 114.42L47.1331 124.582V104.25L29.4249 94.082Z" fill="#CBCBCB"/>
<path d="M47.1328 104.25V124.582L64.841 114.42V94.082L47.1328 104.25Z" fill="#CBCBCB"/>
<path opacity="0.25" d="M47.1328 104.25V124.582L64.841 114.42V94.082L47.1328 104.25Z" fill="white"/>
<path opacity="0.4" d="M47.1328 104.25L47.4097 124.08L57.6329 118.557L47.1328 124.582V104.25Z" fill="white"/>
<path d="M47.132 83.916L29.4238 94.0836L47.132 104.251L64.8401 94.0836L47.132 83.916Z" fill="#CBCBCB"/>
<path opacity="0.4" d="M47.132 83.916L29.4238 94.0836L47.132 104.251L64.8401 94.0836L47.132 83.916Z" fill="white"/>
<path opacity="0.1" d="M29.4238 94.084L47.0742 103.731L64.8401 94.084L47.132 104.252L29.4238 94.084Z" fill="white"/>
<path d="M37.0117 89.7259L54.7199 99.8935L57.2513 98.441L39.5432 88.2734L37.0117 89.7259Z" fill="#CBCBCB"/>
<path d="M57.2522 98.4395V101.638L56.9449 101.462L56.6284 102.01L56.309 101.823L55.9925 102.373L55.6761 102.189L55.3566 102.733L55.0402 102.555L54.7207 103.1V99.895L57.2522 98.4395Z" fill="#CBCBCB"/>
<path opacity="0.25" d="M57.2522 98.4395V101.638L56.9449 101.462L56.6284 102.01L56.309 101.823L55.9925 102.373L55.6761 102.189L55.3566 102.733L55.0402 102.555L54.7207 103.1V99.895L57.2522 98.4395Z" fill="black"/>
<path d="M47.131 174.859L26.3438 186.797L47.1341 198.732L67.9183 186.797L47.131 174.859Z" fill="#D6D6D6"/>
<path d="M29.4249 166.463L29.4219 186.801L47.1331 196.963V176.63L29.4249 166.463Z" fill="#CBCBCB"/>
<path d="M47.1328 176.63V196.963L64.841 186.801V166.463L47.1328 176.63Z" fill="#CBCBCB"/>
<path opacity="0.25" d="M47.1328 176.63V196.963L64.841 186.801V166.463L47.1328 176.63Z" fill="white"/>
<path opacity="0.4" d="M47.1328 176.631L47.4097 196.461L57.6329 190.938L47.1328 196.963V176.631Z" fill="white"/>
<path d="M47.132 156.293L29.4238 166.461L47.132 176.628L64.8401 166.461L47.132 156.293Z" fill="#CBCBCB"/>
<path opacity="0.4" d="M47.132 156.293L29.4238 166.461L47.132 176.628L64.8401 166.461L47.132 156.293Z" fill="white"/>
<path opacity="0.1" d="M29.4238 166.461L47.0742 176.108L64.8401 166.461L47.132 176.628L29.4238 166.461Z" fill="white"/>
<path d="M37.0117 162.103L54.7199 172.27L57.2513 170.818L39.5432 160.65L37.0117 162.103Z" fill="#CBCBCB"/>
<path d="M57.2522 170.816V174.015L56.9449 173.839L56.6284 174.387L56.309 174.2L55.9925 174.75L55.6761 174.566L55.3566 175.11L55.0402 174.932L54.7207 175.477V172.272L57.2522 170.816Z" fill="#CBCBCB"/>
<path opacity="0.25" d="M57.2522 170.816V174.015L56.9449 173.839L56.6284 174.387L56.309 174.2L55.9925 174.75L55.6761 174.566L55.3566 175.11L55.0402 174.932L54.7207 175.477V172.272L57.2522 170.816Z" fill="black"/>
</svg>
