<svg width="199" height="190" viewBox="0 0 199 190" fill="none" xmlns="http://www.w3.org/2000/svg">
<path d="M134.471 58.3293L84.5682 29.6768L31.6074 60.1622L81.5101 88.8147L134.471 58.3293Z" fill="#F5F5F5"/>
<path d="M81.5195 146.804L134.47 116.319V58.3291L81.5195 88.8146V146.804Z" fill="#EBEBEB"/>
<path d="M81.5202 146.804L31.6074 118.152V60.1621L81.5101 88.8146L81.5202 146.804Z" fill="#E0E0E0"/>
<path d="M52.418 72.0959L105.419 41.6406L113.733 46.4244L60.7216 76.8696L52.418 72.0959Z" fill="#FAFAFA"/>
<path d="M52.418 72.0957V81.6533L53.5724 80.9785L55.1217 83.2143L56.0837 82.3885L57.7849 84.7351L58.8786 83.879L60.7216 86.427V76.8695L52.418 72.0957Z" fill="#E6E6E6"/>
<path d="M126.532 24.7313L84.3354 0.5L39.5566 26.2722L81.7531 50.5034L126.532 24.7313Z" fill="#F5F5F5"/>
<path d="M81.7539 82.8119L126.533 57.0297V24.7314L81.7539 50.5036V82.8119Z" fill="#EBEBEB"/>
<path d="M81.7531 82.8121L39.5566 58.5808V26.2725L81.7531 50.5037V82.8121Z" fill="#E0E0E0"/>
<path d="M57.1465 36.3734L101.966 10.6113L108.993 14.6599L64.164 40.4119L57.1465 36.3734Z" fill="#FAFAFA"/>
<path d="M57.1465 36.374V44.4511L58.1186 43.877L59.435 45.7704L60.2451 45.0755L61.6831 47.0595L62.6046 46.3344L64.164 48.4896V40.4126L57.1465 36.374Z" fill="#E6E6E6"/>
<path d="M73.3387 121.867L37.8458 101.483L0.175781 123.167L35.6788 143.551L73.3387 121.867Z" fill="#F5F5F5"/>
<path d="M35.6797 180.159L73.3396 158.476V121.867L35.6797 143.55V180.159Z" fill="#EBEBEB"/>
<path d="M35.6788 180.16L0.175781 159.776V123.167L35.6788 143.551V180.16Z" fill="#E0E0E0"/>
<path d="M14.9805 131.656L52.6809 109.993L58.5845 113.397L20.8841 135.05L14.9805 131.656Z" fill="#FAFAFA"/>
<path d="M14.9805 131.656V138.454L15.8007 137.971L16.9045 139.562L17.5931 138.978L18.7981 140.65L19.5677 140.035L20.8841 141.848V135.05L14.9805 131.656Z" fill="#E6E6E6"/>
<path d="M153.41 138.091L108.645 163.799L153.416 189.5L198.175 163.799L153.41 138.091Z" fill="#D6D6D6"/>
<path d="M115.276 120.001L115.27 163.799L153.41 185.682V141.897L115.276 120.001Z" fill="#EBEBEB"/>
<path d="M153.41 141.897V185.682L191.544 163.799V120.001L153.41 141.897Z" fill="#EBEBEB"/>
<path opacity="0.25" d="M153.41 141.897V185.682L191.544 163.799V120.001L153.41 141.897Z" fill="white"/>
<path opacity="0.4" d="M153.41 141.896L154.006 184.6L176.022 172.707L153.41 185.681V141.896Z" fill="white"/>
<path d="M153.41 98.1045L115.275 120L153.41 141.896L191.544 120L153.41 98.1045Z" fill="#EBEBEB"/>
<path opacity="0.4" d="M153.41 98.1045L115.275 120L153.41 141.896L191.544 120L153.41 98.1045Z" fill="white"/>
<path opacity="0.1" d="M115.275 120.001L153.285 140.776L191.544 120.001L153.41 141.897L115.275 120.001Z" fill="white"/>
<path d="M131.617 110.616L169.751 132.512L175.203 129.384L137.069 107.488L131.617 110.616Z" fill="#EBEBEB"/>
<path d="M175.203 129.385V136.273L174.542 135.895L173.86 137.074L173.172 136.67L172.491 137.856L171.809 137.459L171.121 138.632L170.44 138.247L169.752 139.42V132.519L175.203 129.385Z" fill="#EBEBEB"/>
<path opacity="0.25" d="M175.203 129.385V136.273L174.542 135.895L173.86 137.074L173.172 136.67L172.491 137.856L171.809 137.459L171.121 138.632L170.44 138.247L169.752 139.42V132.519L175.203 129.385Z" fill="black"/>
<path opacity="0.3" d="M145.85 92.8746C147.071 101.439 145.063 110.152 140.218 117.319C135.372 124.487 128.036 129.597 119.633 131.656C111.231 133.716 102.362 132.579 94.7517 128.465C87.1411 124.351 81.3316 117.555 78.4522 109.396C75.5729 101.238 75.8293 92.3011 79.1716 84.3214C82.5139 76.3418 88.7034 69.8897 96.5373 66.2188C104.371 62.548 113.29 61.9207 121.561 64.4588C129.832 66.9969 136.863 72.5191 141.29 79.9523C143.651 83.9152 145.201 88.3076 145.85 92.8746Z" fill="white"/>
<path opacity="0.4" d="M125.203 65.7905L84.4189 120.212C84.085 119.803 83.7546 119.389 83.4276 118.97C81.3427 116.237 79.6785 113.206 78.4903 109.98L113.715 62.9739C117.678 63.2493 121.563 64.202 125.203 65.7905Z" fill="white"/>
<path opacity="0.4" d="M141.734 80.722L103.42 131.879C98.205 130.673 93.337 128.284 89.1924 124.896L131.064 69.0234C135.469 72.0555 139.119 76.0577 141.734 80.722Z" fill="white"/>
<path d="M141.765 71.5C136.556 65.4573 129.672 61.0953 121.984 58.966C114.296 56.8367 106.148 57.0357 98.5733 59.538C90.9981 62.0402 84.3355 66.7332 79.4282 73.023C74.521 79.3129 71.5897 86.9171 71.0053 94.8733C70.421 102.83 72.2097 110.78 76.1453 117.72C80.0809 124.659 85.9864 130.275 93.1146 133.857C100.243 137.44 108.273 138.827 116.19 137.844C124.107 136.861 131.555 133.551 137.59 128.334C145.674 121.347 150.654 111.437 151.437 100.781C152.219 90.1247 148.741 79.5934 141.765 71.5ZM87.1792 118.606C83.0709 113.845 80.4667 107.972 79.6959 101.731C78.9252 95.4893 80.0225 89.1595 82.849 83.5417C85.6756 77.924 90.1046 73.2705 95.5758 70.1698C101.047 67.0691 107.315 65.6604 113.587 66.1218C119.859 66.5833 125.853 68.8941 130.811 72.7622C135.77 76.6302 139.47 81.8818 141.444 87.8527C143.418 93.8237 143.577 100.246 141.901 106.307C140.225 112.369 136.79 117.797 132.029 121.906C128.868 124.634 125.2 126.713 121.236 128.023C117.271 129.334 113.088 129.851 108.923 129.544C104.759 129.238 100.696 128.114 96.9664 126.237C93.2366 124.36 89.913 121.766 87.1856 118.605L87.1792 118.606Z" fill="#D6D6D6"/>
<path opacity="0.1" d="M141.765 71.5C136.556 65.4573 129.672 61.0953 121.984 58.966C114.296 56.8367 106.148 57.0357 98.5733 59.538C90.9981 62.0402 84.3355 66.7332 79.4282 73.023C74.521 79.3129 71.5897 86.9171 71.0053 94.8733C70.421 102.83 72.2097 110.78 76.1453 117.72C80.0809 124.659 85.9864 130.275 93.1146 133.857C100.243 137.44 108.273 138.827 116.19 137.844C124.107 136.861 131.555 133.551 137.59 128.334C145.674 121.347 150.654 111.437 151.437 100.781C152.219 90.1247 148.741 79.5934 141.765 71.5ZM87.1792 118.606C83.0709 113.845 80.4667 107.972 79.6959 101.731C78.9252 95.4893 80.0225 89.1595 82.849 83.5417C85.6756 77.924 90.1046 73.2705 95.5758 70.1698C101.047 67.0691 107.315 65.6604 113.587 66.1218C119.859 66.5833 125.853 68.8941 130.811 72.7622C135.77 76.6302 139.47 81.8818 141.444 87.8527C143.418 93.8237 143.577 100.246 141.901 106.307C140.225 112.369 136.79 117.797 132.029 121.906C128.868 124.634 125.2 126.713 121.236 128.023C117.271 129.334 113.088 129.851 108.923 129.544C104.759 129.238 100.696 128.114 96.9664 126.237C93.2366 124.36 89.913 121.766 87.1856 118.605L87.1792 118.606Z" fill="black"/>
<path d="M36.2765 158.879L33.1978 161.902L29.5562 159.921L33.0374 156.126L36.2765 158.879Z" fill="#E4897B"/>
<path d="M87.013 124.06C82.5427 128.885 77.9018 133.543 73.2195 138.123C68.5372 142.703 63.7676 147.207 58.9602 151.651C54.1529 156.096 49.281 160.481 44.3717 164.773C41.9257 166.947 39.4445 169.075 36.9936 171.223C35.7889 172.358 34.4201 173.304 32.9334 174.03C32.139 174.411 31.3108 174.717 30.4594 174.945C29.5158 175.205 28.5417 175.34 27.5628 175.344C26.8616 175.339 26.1683 175.196 25.5225 174.923C24.8767 174.65 24.2911 174.252 23.7993 173.752C23.3074 173.253 22.9189 172.661 22.656 172.011C22.3931 171.361 22.261 170.665 22.2672 169.964C22.2696 169.739 22.2887 169.514 22.3244 169.291C22.4602 168.327 22.7263 167.385 23.1153 166.492C23.4612 165.69 23.8825 164.922 24.3735 164.2C25.311 162.836 26.4472 161.619 27.7446 160.591C30.2335 158.469 32.7007 156.337 35.2112 154.223C40.2054 149.994 45.2665 145.839 50.3476 141.719C55.4288 137.599 60.5986 133.562 65.8136 129.589C71.0287 125.616 76.3031 121.711 81.7402 118.001C82.5596 117.434 83.5592 117.191 84.5471 117.317C85.535 117.443 86.4415 117.93 87.0925 118.683C87.7435 119.437 88.0931 120.405 88.0742 121.4C88.0552 122.396 87.6691 123.35 86.9899 124.078L87.013 124.06Z" fill="#D6D6D6"/>
<path opacity="0.1" d="M87.013 124.06C82.5427 128.885 77.9018 133.543 73.2195 138.123C68.5372 142.703 63.7676 147.207 58.9602 151.651C54.1529 156.096 49.281 160.481 44.3717 164.773C41.9257 166.947 39.4445 169.075 36.9936 171.223C35.7889 172.358 34.4201 173.304 32.9334 174.03C32.139 174.411 31.3108 174.717 30.4594 174.945C29.5158 175.205 28.5417 175.34 27.5628 175.344C26.8616 175.339 26.1683 175.196 25.5225 174.923C24.8767 174.65 24.2911 174.252 23.7993 173.752C23.3074 173.253 22.9189 172.661 22.656 172.011C22.3931 171.361 22.261 170.665 22.2672 169.964C22.2696 169.739 22.2887 169.514 22.3244 169.291C22.4602 168.327 22.7263 167.385 23.1153 166.492C23.4612 165.69 23.8825 164.922 24.3735 164.2C25.311 162.836 26.4472 161.619 27.7446 160.591C30.2335 158.469 32.7007 156.337 35.2112 154.223C40.2054 149.994 45.2665 145.839 50.3476 141.719C55.4288 137.599 60.5986 133.562 65.8136 129.589C71.0287 125.616 76.3031 121.711 81.7402 118.001C82.5596 117.434 83.5592 117.191 84.5471 117.317C85.535 117.443 86.4415 117.93 87.0925 118.683C87.7435 119.437 88.0931 120.405 88.0742 121.4C88.0552 122.396 87.6691 123.35 86.9899 124.078L87.013 124.06Z" fill="black"/>
</svg>
