<svg width="48" height="48" viewBox="0 0 48 48" fill="none" xmlns="http://www.w3.org/2000/svg">
<rect width="48" height="48" rx="24" fill="#FAF5FC"/>
<path d="M19.751 24.1147C19.751 21.7021 21.7075 19.7457 24.1216 19.7457C26.5357 19.7457 28.4932 21.7021 28.4932 24.1147C28.4932 26.5273 26.5357 28.4837 24.1216 28.4837C21.7075 28.4837 19.751 26.5273 19.751 24.1147ZM17.3878 24.1147C17.3878 27.8315 20.4025 30.8444 24.1216 30.8444C27.8406 30.8444 30.8553 27.8315 30.8553 24.1147C30.8553 20.3979 27.8406 17.385 24.1216 17.385C20.4025 17.385 17.3878 20.3979 17.3878 24.1147ZM29.5483 17.1181C29.5481 17.4292 29.6403 17.7333 29.8131 17.992C29.9859 18.2507 30.2316 18.4524 30.5191 18.5715C30.8066 18.6907 31.123 18.7219 31.4283 18.6614C31.7336 18.6008 32.014 18.4511 32.2342 18.2313C32.4544 18.0114 32.6044 17.7312 32.6652 17.4262C32.726 17.1211 32.695 16.8049 32.576 16.5175C32.457 16.2301 32.2554 15.9844 31.9967 15.8115C31.738 15.6385 31.4338 15.5462 31.1225 15.5461H31.1219C30.7047 15.5462 30.3047 15.7119 30.0096 16.0067C29.7146 16.3014 29.5486 16.7012 29.5483 17.1181ZM18.8236 34.7826C17.5451 34.7244 16.8502 34.5116 16.3883 34.3317C15.7761 34.0935 15.3392 33.8098 14.8799 33.3514C14.4206 32.893 14.1363 32.4569 13.899 31.845C13.719 31.3836 13.506 30.6889 13.4479 29.4112C13.3843 28.0297 13.3716 27.6147 13.3716 24.1148C13.3716 20.6149 13.3854 20.2011 13.4479 18.8184C13.5061 17.5407 13.7207 16.8473 13.899 16.3846C14.1374 15.7727 14.4213 15.3361 14.8799 14.8771C15.3386 14.4181 15.775 14.134 16.3883 13.8968C16.8499 13.7169 17.5451 13.504 18.8236 13.446C20.2059 13.3824 20.6211 13.3697 24.1216 13.3697C27.622 13.3697 28.0377 13.3835 29.4211 13.446C30.6997 13.5042 31.3934 13.7186 31.8564 13.8968C32.4686 14.134 32.9055 14.4187 33.3648 14.8771C33.8241 15.3355 34.1073 15.7727 34.3457 16.3846C34.5257 16.8459 34.7387 17.5407 34.7968 18.8184C34.8604 20.2011 34.8731 20.6149 34.8731 24.1148C34.8731 27.6147 34.8604 28.0285 34.7968 29.4112C34.7386 30.6889 34.5246 31.3834 34.3457 31.845C34.1073 32.4569 33.8235 32.8934 33.3648 33.3514C32.9061 33.8094 32.4686 34.0935 31.8564 34.3317C31.3948 34.5117 30.6997 34.7245 29.4211 34.7826C28.0388 34.8461 27.6236 34.8588 24.1216 34.8588C20.6196 34.8588 20.2055 34.8461 18.8236 34.7826ZM18.715 11.0882C17.319 11.1517 16.365 11.3729 15.532 11.6969C14.6692 12.0315 13.9388 12.4803 13.2089 13.2086C12.4791 13.9369 12.0311 14.668 11.6963 15.5302C11.3722 16.3633 11.1508 17.3162 11.0872 18.7114C11.0226 20.1088 11.0078 20.5555 11.0078 24.1147C11.0078 27.6738 11.0226 28.1206 11.0872 29.518C11.1508 30.9133 11.3722 31.866 11.6963 32.6992C12.0311 33.5609 12.4792 34.2928 13.2089 35.0208C13.9387 35.7487 14.6692 36.197 15.532 36.5325C16.3666 36.8565 17.319 37.0777 18.715 37.1412C20.114 37.2048 20.5603 37.2206 24.1216 37.2206C27.6829 37.2206 28.1299 37.2058 29.5281 37.1412C30.9243 37.0777 31.8776 36.8565 32.7112 36.5325C33.5735 36.197 34.3044 35.7491 35.0342 35.0208C35.7641 34.2925 36.2111 33.5609 36.5468 32.6992C36.871 31.866 37.0934 30.9132 37.1559 29.518C37.2195 28.1195 37.2343 27.6738 37.2343 24.1147C37.2343 20.5555 37.2195 20.1088 37.1559 18.7114C37.0923 17.3161 36.871 16.3628 36.5468 15.5302C36.2111 14.6685 35.7629 13.938 35.0342 13.2086C34.3055 12.4792 33.5735 12.0315 32.7122 11.6969C31.8776 11.3729 30.9242 11.1506 29.5292 11.0882C28.1309 11.0246 27.6839 11.0088 24.1226 11.0088C20.5613 11.0088 20.114 11.0236 18.715 11.0882Z" fill="url(#paint0_radial_2162_14820)"/>
<path d="M19.751 24.1147C19.751 21.7021 21.7075 19.7457 24.1216 19.7457C26.5357 19.7457 28.4932 21.7021 28.4932 24.1147C28.4932 26.5273 26.5357 28.4837 24.1216 28.4837C21.7075 28.4837 19.751 26.5273 19.751 24.1147ZM17.3878 24.1147C17.3878 27.8315 20.4025 30.8444 24.1216 30.8444C27.8406 30.8444 30.8553 27.8315 30.8553 24.1147C30.8553 20.3979 27.8406 17.385 24.1216 17.385C20.4025 17.385 17.3878 20.3979 17.3878 24.1147ZM29.5483 17.1181C29.5481 17.4292 29.6403 17.7333 29.8131 17.992C29.9859 18.2507 30.2316 18.4524 30.5191 18.5715C30.8066 18.6907 31.123 18.7219 31.4283 18.6614C31.7336 18.6008 32.014 18.4511 32.2342 18.2313C32.4544 18.0114 32.6044 17.7312 32.6652 17.4262C32.726 17.1211 32.695 16.8049 32.576 16.5175C32.457 16.2301 32.2554 15.9844 31.9967 15.8115C31.738 15.6385 31.4338 15.5462 31.1225 15.5461H31.1219C30.7047 15.5462 30.3047 15.7119 30.0096 16.0067C29.7146 16.3014 29.5486 16.7012 29.5483 17.1181ZM18.8236 34.7826C17.5451 34.7244 16.8502 34.5116 16.3883 34.3317C15.7761 34.0935 15.3392 33.8098 14.8799 33.3514C14.4206 32.893 14.1363 32.4569 13.899 31.845C13.719 31.3836 13.506 30.6889 13.4479 29.4112C13.3843 28.0297 13.3716 27.6147 13.3716 24.1148C13.3716 20.6149 13.3854 20.2011 13.4479 18.8184C13.5061 17.5407 13.7207 16.8473 13.899 16.3846C14.1374 15.7727 14.4213 15.3361 14.8799 14.8771C15.3386 14.4181 15.775 14.134 16.3883 13.8968C16.8499 13.7169 17.5451 13.504 18.8236 13.446C20.2059 13.3824 20.6211 13.3697 24.1216 13.3697C27.622 13.3697 28.0377 13.3835 29.4211 13.446C30.6997 13.5042 31.3934 13.7186 31.8564 13.8968C32.4686 14.134 32.9055 14.4187 33.3648 14.8771C33.8241 15.3355 34.1073 15.7727 34.3457 16.3846C34.5257 16.8459 34.7387 17.5407 34.7968 18.8184C34.8604 20.2011 34.8731 20.6149 34.8731 24.1148C34.8731 27.6147 34.8604 28.0285 34.7968 29.4112C34.7386 30.6889 34.5246 31.3834 34.3457 31.845C34.1073 32.4569 33.8235 32.8934 33.3648 33.3514C32.9061 33.8094 32.4686 34.0935 31.8564 34.3317C31.3948 34.5117 30.6997 34.7245 29.4211 34.7826C28.0388 34.8461 27.6236 34.8588 24.1216 34.8588C20.6196 34.8588 20.2055 34.8461 18.8236 34.7826ZM18.715 11.0882C17.319 11.1517 16.365 11.3729 15.532 11.6969C14.6692 12.0315 13.9388 12.4803 13.2089 13.2086C12.4791 13.9369 12.0311 14.668 11.6963 15.5302C11.3722 16.3633 11.1508 17.3162 11.0872 18.7114C11.0226 20.1088 11.0078 20.5555 11.0078 24.1147C11.0078 27.6738 11.0226 28.1206 11.0872 29.518C11.1508 30.9133 11.3722 31.866 11.6963 32.6992C12.0311 33.5609 12.4792 34.2928 13.2089 35.0208C13.9387 35.7487 14.6692 36.197 15.532 36.5325C16.3666 36.8565 17.319 37.0777 18.715 37.1412C20.114 37.2048 20.5603 37.2206 24.1216 37.2206C27.6829 37.2206 28.1299 37.2058 29.5281 37.1412C30.9243 37.0777 31.8776 36.8565 32.7112 36.5325C33.5735 36.197 34.3044 35.7491 35.0342 35.0208C35.7641 34.2925 36.2111 33.5609 36.5468 32.6992C36.871 31.866 37.0934 30.9132 37.1559 29.518C37.2195 28.1195 37.2343 27.6738 37.2343 24.1147C37.2343 20.5555 37.2195 20.1088 37.1559 18.7114C37.0923 17.3161 36.871 16.3628 36.5468 15.5302C36.2111 14.6685 35.7629 13.938 35.0342 13.2086C34.3055 12.4792 33.5735 12.0315 32.7122 11.6969C31.8776 11.3729 30.9242 11.1506 29.5292 11.0882C28.1309 11.0246 27.6839 11.0088 24.1226 11.0088C20.5613 11.0088 20.114 11.0236 18.715 11.0882Z" fill="url(#paint1_radial_2162_14820)"/>
<defs>
<radialGradient id="paint0_radial_2162_14820" cx="0" cy="0" r="1" gradientUnits="userSpaceOnUse" gradientTransform="translate(14.4923 37.3444) scale(34.2378 34.2173)">
<stop offset="0.09" stop-color="#FA8F21"/>
<stop offset="0.78" stop-color="#D82D7E"/>
</radialGradient>
<radialGradient id="paint1_radial_2162_14820" cx="0" cy="0" r="1" gradientUnits="userSpaceOnUse" gradientTransform="translate(26.9137 38.5187) scale(26.9841 26.968)">
<stop offset="0.64" stop-color="#8C3AAA" stop-opacity="0"/>
<stop offset="1" stop-color="#8C3AAA"/>
</radialGradient>
</defs>
</svg>
