<svg width="48" height="48" viewBox="0 0 48 48" fill="none" xmlns="http://www.w3.org/2000/svg">
<rect width="48" height="48" rx="24" fill="#F7F7F7"/>
<path fill-rule="evenodd" clip-rule="evenodd" d="M29.1829 20.6788C30.7905 21.8216 32.7158 22.4322 34.6882 22.4248V18.5158C34.3005 18.5168 33.9137 18.4753 33.535 18.392V21.5062C31.5582 21.5097 29.6301 20.8921 28.0232 19.7406V27.7803C28.0184 29.0995 27.6566 30.3929 26.9762 31.5232C26.2959 32.6535 25.3223 33.5786 24.1588 34.2004C22.9953 34.8222 21.6852 35.1176 20.3675 35.0552C19.0497 34.9928 17.7734 34.5749 16.6738 33.8459C17.6909 34.8749 18.9904 35.579 20.4079 35.869C21.8253 36.159 23.2969 36.0218 24.6364 35.4749C25.9758 34.9279 27.1229 33.9958 27.9322 32.7966C28.7416 31.5973 29.1768 30.1848 29.1829 28.738V20.6788ZM30.6097 16.6915C29.7922 15.8054 29.2906 14.6738 29.1829 13.473V12.9648H28.0884C28.2237 13.7281 28.5181 14.4544 28.9525 15.0965C29.3869 15.7385 29.9515 16.282 30.6097 16.6915ZM19.2082 30.7512C18.8289 30.2551 18.5964 29.6625 18.5372 29.0408C18.4781 28.4191 18.5947 27.7933 18.8737 27.2345C19.1527 26.6758 19.583 26.2066 20.1155 25.8804C20.648 25.5542 21.2615 25.384 21.8859 25.3892C22.2307 25.3891 22.5735 25.4419 22.9023 25.5456V21.5062C22.5179 21.4553 22.1303 21.4335 21.7426 21.4411V24.5814C20.942 24.3283 20.0754 24.3858 19.3153 24.7426C18.5551 25.0993 17.9571 25.7291 17.6402 26.5067C17.3233 27.2842 17.3106 28.1526 17.6048 28.9391C17.8989 29.7255 18.4783 30.3725 19.2278 30.7512H19.2082Z" fill="#EE1D52"/>
<path fill-rule="evenodd" clip-rule="evenodd" d="M28.0221 19.7145C29.629 20.866 31.5571 21.4836 33.5339 21.4801V18.3659C32.4076 18.1278 31.3844 17.5421 30.6086 16.6915C29.9504 16.282 29.3858 15.7385 28.9514 15.0965C28.517 14.4544 28.2226 13.7281 28.0873 12.9648H25.2076V28.738C25.2049 29.4362 24.9836 30.116 24.5749 30.682C24.1661 31.248 23.5904 31.6718 22.9284 31.8939C22.2665 32.116 21.5517 32.1252 20.8843 31.9202C20.2168 31.7153 19.6303 31.3065 19.2071 30.7512C18.5364 30.4128 17.9993 29.8583 17.6824 29.1771C17.3655 28.496 17.2873 27.7279 17.4604 26.9969C17.6336 26.2659 18.048 25.6145 18.6368 25.1479C19.2255 24.6812 19.9543 24.4266 20.7056 24.425C21.0503 24.4261 21.3929 24.4788 21.722 24.5814V21.4411C20.3001 21.4752 18.9191 21.9237 17.7486 22.7316C16.578 23.5396 15.6689 24.6717 15.1327 25.989C14.5965 27.3063 14.4566 28.7516 14.7301 30.1473C15.0037 31.543 15.6789 32.8285 16.6727 33.8459C17.7725 34.5801 19.0508 35.0023 20.3716 35.0675C21.6923 35.1326 23.006 34.8383 24.1726 34.2158C25.3393 33.5934 26.3153 32.6661 26.9966 31.5328C27.678 30.3995 28.0391 29.1026 28.0417 27.7803L28.0221 19.7145Z" fill="black"/>
<path fill-rule="evenodd" clip-rule="evenodd" d="M33.5341 18.3653V17.5248C32.4998 17.5292 31.4854 17.2401 30.6088 16.6909C31.3826 17.544 32.4067 18.1301 33.5341 18.3653ZM28.0875 12.9642C28.0875 12.8144 28.0419 12.658 28.0223 12.5082V12H24.0481V27.7797C24.0446 28.6633 23.6908 29.5094 23.0641 30.1323C22.4375 30.7553 21.5894 31.1042 20.7058 31.1024C20.1855 31.105 19.672 30.9845 19.2073 30.7506C19.6305 31.3059 20.217 31.7147 20.8844 31.9196C21.5519 32.1246 22.2667 32.1154 22.9286 31.8933C23.5905 31.6712 24.1663 31.2474 24.5751 30.6814C24.9838 30.1154 25.2051 29.4356 25.2078 28.7374V12.9642H28.0875ZM21.7222 21.4339V20.5414C20.0868 20.3192 18.4244 20.6575 17.0059 21.5011C15.5874 22.3447 14.4964 23.6439 13.9108 25.1869C13.3252 26.7299 13.2794 28.4257 13.781 29.9981C14.2826 31.5704 15.302 32.9265 16.6729 33.8453C15.6866 32.8255 15.0186 31.5406 14.7506 30.1474C14.4826 28.7542 14.6262 27.3131 15.1638 26.0002C15.7014 24.6873 16.6098 23.5594 17.7779 22.7542C18.9461 21.9491 20.3234 21.5017 21.7417 21.4665L21.7222 21.4339Z" fill="#69C9D0"/>
</svg>
