<svg width="48" height="48" viewBox="0 0 48 48" fill="none" xmlns="http://www.w3.org/2000/svg">
<rect width="48" height="48" rx="24" fill="#FFECE8"/>
<path d="M37.3504 17.3982C37.037 16.22 36.1099 15.2906 34.9304 14.972C32.7976 14.4004 24.2405 14.4004 24.2405 14.4004C24.2405 14.4004 15.6878 14.4004 13.5507 14.972C12.3756 15.2862 11.4485 16.2157 11.1307 17.3982C10.5605 19.5364 10.5605 24.0004 10.5605 24.0004C10.5605 24.0004 10.5605 28.4644 11.1307 30.6026C11.4441 31.7808 12.3712 32.7102 13.5507 33.0288C15.6878 33.6004 24.2405 33.6004 24.2405 33.6004C24.2405 33.6004 32.7976 33.6004 34.9304 33.0288C36.1055 32.7146 37.0326 31.7851 37.3504 30.6026C37.9205 28.4644 37.9205 24.0004 37.9205 24.0004C37.9205 24.0004 37.9205 19.5364 37.3504 17.3982Z" fill="#FF3000"/>
<path d="M21.5072 28.1153L28.6148 24.0004L21.5072 19.8855V28.1153Z" fill="white"/>
</svg>
