<svg width="142" height="169" viewBox="0 0 142 169" fill="none" xmlns="http://www.w3.org/2000/svg">
<path d="M120.193 131.171C120.095 129.118 119.514 127.116 118.497 125.329C117.48 123.542 116.056 122.021 114.339 120.889C112.634 119.887 111.096 119.843 110.007 120.555L106.008 122.805L114.401 137.279L118.365 135.03C119.472 134.423 120.175 133.096 120.193 131.171Z" fill="#9A9A9A"/>
<path d="M110.183 123.244C111.897 124.379 113.32 125.901 114.336 127.687C115.353 129.473 115.936 131.474 116.036 133.526C116.036 137.306 113.347 138.8 110.095 136.91C108.382 135.775 106.959 134.253 105.942 132.467C104.925 130.681 104.343 128.68 104.242 126.627C104.269 122.848 106.931 121.337 110.183 123.244Z" fill="#ECECEC"/>
<path d="M108.145 128.912C108.145 127.435 109.023 126.759 110.157 127.409C110.766 127.849 111.262 128.425 111.605 129.093C111.949 129.76 112.13 130.499 112.135 131.25C112.135 132.726 111.256 133.394 110.122 132.752C109.516 132.31 109.022 131.733 108.679 131.066C108.335 130.4 108.152 129.662 108.145 128.912Z" fill="#9A9A9A"/>
<path opacity="0.15" d="M116.038 133.526C116.019 132.169 115.744 130.827 115.23 129.571L105.079 123.674C104.506 124.55 104.218 125.581 104.253 126.627C104.253 126.671 104.253 126.715 104.253 126.767L116.03 133.605C116.03 133.605 116.038 133.552 116.038 133.526Z" fill="#8F8F8F"/>
<path d="M78.1142 163.328C75.9667 163.491 73.813 163.104 71.8568 162.203L16.4887 130.291C13.1403 128.604 9.37879 124.227 9.1415 120.079L7.44531 80.6096L10.5301 80.4338L12.2351 119.912C12.3933 122.724 15.3375 126.257 17.8686 127.523L73.2805 159.443C74.7696 160.064 76.3805 160.339 77.9914 160.246C79.6023 160.153 81.171 159.695 82.5788 158.907L119.491 137.621C120.37 137.041 120.888 136.347 120.853 135.758C120.818 135.169 120.264 134.589 119.324 134.114L60.0098 99.6808C56.6701 98.0022 52.9262 93.6167 52.6889 89.4685L51.8628 67.5762L54.9476 67.4092L55.7737 89.2927C55.9319 92.1227 58.876 95.6469 61.3984 96.9124L120.712 131.355C122.69 132.348 123.832 133.851 123.938 135.582C124.043 137.313 123.059 138.992 121.187 140.205L84.275 161.491C82.411 162.617 80.2906 163.249 78.1142 163.328Z" fill="#ECECEC"/>
<path d="M68.1652 162.44C68.0679 160.386 67.487 158.384 66.4699 156.597C65.4528 154.811 64.0282 153.289 62.312 152.157C60.607 151.155 59.0691 151.102 57.9881 151.823L53.9805 154.073L62.3736 168.548L66.3372 166.298C67.427 165.691 68.1652 164.364 68.1652 162.44Z" fill="#9A9A9A"/>
<path d="M58.1374 154.513C59.8547 155.646 61.28 157.168 62.2972 158.957C63.3143 160.745 63.8946 162.749 63.9906 164.804C63.9906 168.574 61.31 170.077 58.0495 168.179C56.3359 167.045 54.9138 165.523 53.8984 163.736C52.883 161.949 52.3029 159.949 52.2051 157.896C52.2314 154.126 54.8856 152.588 58.1374 154.513Z" fill="#ECECEC"/>
<path d="M56.0977 160.182C56.0977 158.705 56.9765 158.029 58.1102 158.679C58.7197 159.118 59.2166 159.694 59.5603 160.362C59.904 161.029 60.0847 161.769 60.0877 162.52C60.0877 163.987 59.2088 164.664 58.0839 164.014C57.4755 163.576 56.9788 163 56.6338 162.335C56.2887 161.669 56.1051 160.932 56.0977 160.182Z" fill="#9A9A9A"/>
<path d="M27.2277 138.843C27.1347 136.79 26.5585 134.788 25.546 133C24.5335 131.212 23.1133 129.688 21.4009 128.552C19.6871 127.55 18.1579 127.497 17.0681 128.209L13.0605 130.45L21.4273 144.942L25.3997 142.692C26.5071 142.095 27.2101 140.768 27.2277 138.843Z" fill="#9A9A9A"/>
<path d="M17.2341 130.907C18.9425 132.039 20.3608 133.557 21.3744 135.339C22.3881 137.121 22.9688 139.115 23.0697 141.163C23.0697 144.933 20.3716 146.436 17.1198 144.529C15.4074 143.393 13.9872 141.869 12.9747 140.08C11.9622 138.292 11.386 136.29 11.293 134.237C11.3193 130.493 13.9823 128.991 17.2341 130.907Z" fill="#ECECEC"/>
<path d="M15.1895 136.558C15.1895 135.09 16.0683 134.413 17.202 135.063C17.8094 135.504 18.3048 136.081 18.6483 136.748C18.9918 137.415 19.1737 138.154 19.1795 138.904C19.1795 140.381 18.3006 141.049 17.1581 140.407C16.5532 139.963 16.0602 139.383 15.7185 138.715C15.3767 138.047 15.1956 137.308 15.1895 136.558Z" fill="#9A9A9A"/>
<path d="M0.827421 32.7825C0.30299 30.7723 0.399257 28.6503 1.10358 26.6958C1.8079 24.7413 3.08729 23.0457 4.77348 21.832L41.6064 1.01185C44.9548 -1.18529 48.6373 0.343915 49.7974 4.16694L52.3548 12.4546L49.8237 13.9311L47.0729 5.55554C46.9609 5.10768 46.7394 4.69468 46.4283 4.35363C46.1172 4.01258 45.7262 3.75419 45.2904 3.60169C44.8547 3.44918 44.3879 3.40735 43.932 3.47993C43.4761 3.55252 43.0454 3.73726 42.6786 4.01754L6.81244 24.2752C5.73805 25.0629 4.92042 26.1505 4.46227 27.4014C4.00412 28.6524 3.92587 30.0108 4.23738 31.3061L6.39937 39.2597L3.38489 41.0174L0.827421 32.7825Z" fill="#ECECEC"/>
<path d="M57.7765 72.7173L8.29688 101.289L80.6093 143.035L130.089 114.463L57.7765 72.7173Z" fill="white"/>
<path opacity="0.5" d="M57.7765 72.7173L8.29688 101.289L80.6093 143.035L130.089 114.463L57.7765 72.7173Z" fill="#8F8F8F"/>
<path d="M3.38477 41.0697L52.3547 12.4629L57.7772 72.7174L8.29759 101.289L3.38477 41.0697Z" fill="white"/>
<path opacity="0.35" d="M3.38477 41.0697L52.3547 12.4629L57.7772 72.7174L8.29759 101.289L3.38477 41.0697Z" fill="#8F8F8F"/>
<path d="M52.3457 12.4629L57.7683 72.7174L130.081 114.463L141.506 63.92L52.3457 12.4629ZM77.6304 70.3972C76.5861 70.7208 75.4564 70.6201 74.4859 70.1167C73.5153 69.6134 72.7822 68.7479 72.4452 67.7079L60.4927 36.693C60.2298 36.2041 60.0742 35.6646 60.0364 35.1108C59.9985 34.5569 60.0793 34.0014 60.2733 33.4813C60.4673 32.9611 60.7701 32.4883 61.1614 32.0945C61.5526 31.7007 62.0234 31.3949 62.5423 31.1976C63.0612 31.0003 63.6162 30.9159 64.1703 30.9502C64.7244 30.9845 65.2648 31.1366 65.7554 31.3963C66.246 31.6561 66.6756 32.0176 67.0153 32.4566C67.3551 32.8956 67.5973 33.4021 67.7257 33.9422L79.6782 64.957C80.1183 65.9502 80.1513 67.0764 79.7701 68.0937C79.3888 69.1109 78.6237 69.938 77.6392 70.3972H77.6304ZM100.208 81.0138C99.1652 81.3426 98.0343 81.2453 97.0628 80.743C96.0912 80.2408 95.3579 79.3744 95.023 78.3333L83.1057 47.3184C82.8433 46.8308 82.6878 46.2929 82.6493 45.7406C82.6108 45.1882 82.6903 44.634 82.8825 44.1147C83.0747 43.5955 83.3753 43.123 83.7641 42.7289C84.153 42.3347 84.6213 42.0278 85.1379 41.8286C85.6545 41.6294 86.2076 41.5424 86.7605 41.5734C87.3133 41.6044 87.8532 41.7527 88.3443 42.0084C88.8354 42.2642 89.2664 42.6215 89.6088 43.0567C89.9512 43.4918 90.197 43.9949 90.3299 44.5324L102.282 75.5473C102.731 76.5463 102.766 77.6826 102.379 78.7072C101.992 79.7318 101.215 80.5612 100.217 81.0138H100.208ZM122.786 91.6392C121.749 91.97 120.623 91.8787 119.652 91.3852C118.682 90.8917 117.945 90.0357 117.601 89.0026L105.657 57.9877C105.402 57.5016 105.252 56.967 105.217 56.4188C105.183 55.8707 105.265 55.3214 105.458 54.8073C105.651 54.2931 105.951 53.8255 106.337 53.4353C106.724 53.0452 107.188 52.7412 107.701 52.5433C108.213 52.3455 108.761 52.2583 109.31 52.2875C109.858 52.3167 110.394 52.4616 110.883 52.7126C111.371 52.9637 111.801 53.3153 112.144 53.7443C112.487 54.1733 112.735 54.67 112.873 55.2017L124.825 86.2166C125.263 87.2065 125.295 88.3283 124.916 89.3419C124.536 90.3555 123.775 91.1801 122.795 91.6392H122.786Z" fill="white"/>
<path opacity="0.23" d="M52.3457 12.4629L57.7683 72.7174L130.081 114.463L141.506 63.92L52.3457 12.4629ZM77.6304 70.3972C76.5861 70.7208 75.4564 70.6201 74.4859 70.1167C73.5153 69.6134 72.7822 68.7479 72.4452 67.7079L60.4927 36.693C60.2298 36.2041 60.0742 35.6646 60.0364 35.1108C59.9985 34.5569 60.0793 34.0014 60.2733 33.4813C60.4673 32.9611 60.7701 32.4883 61.1614 32.0945C61.5526 31.7007 62.0234 31.3949 62.5423 31.1976C63.0612 31.0003 63.6162 30.9159 64.1703 30.9502C64.7244 30.9845 65.2648 31.1366 65.7554 31.3963C66.246 31.6561 66.6756 32.0176 67.0153 32.4566C67.3551 32.8956 67.5973 33.4021 67.7257 33.9422L79.6782 64.957C80.1183 65.9502 80.1513 67.0764 79.7701 68.0937C79.3888 69.1109 78.6237 69.938 77.6392 70.3972H77.6304ZM100.208 81.0138C99.1652 81.3426 98.0343 81.2453 97.0628 80.743C96.0912 80.2408 95.3579 79.3744 95.023 78.3333L83.1057 47.3184C82.8433 46.8308 82.6878 46.2929 82.6493 45.7406C82.6108 45.1882 82.6903 44.634 82.8825 44.1147C83.0747 43.5955 83.3753 43.123 83.7641 42.7289C84.153 42.3347 84.6213 42.0278 85.1379 41.8286C85.6545 41.6294 86.2076 41.5424 86.7605 41.5734C87.3133 41.6044 87.8532 41.7527 88.3443 42.0084C88.8354 42.2642 89.2664 42.6215 89.6088 43.0567C89.9512 43.4918 90.197 43.9949 90.3299 44.5324L102.282 75.5473C102.731 76.5463 102.766 77.6826 102.379 78.7072C101.992 79.7318 101.215 80.5612 100.217 81.0138H100.208ZM122.786 91.6392C121.749 91.97 120.623 91.8787 119.652 91.3852C118.682 90.8917 117.945 90.0357 117.601 89.0026L105.657 57.9877C105.402 57.5016 105.252 56.967 105.217 56.4188C105.183 55.8707 105.265 55.3214 105.458 54.8073C105.651 54.2931 105.951 53.8255 106.337 53.4353C106.724 53.0452 107.188 52.7412 107.701 52.5433C108.213 52.3455 108.761 52.2583 109.31 52.2875C109.858 52.3167 110.394 52.4616 110.883 52.7126C111.371 52.9637 111.801 53.3153 112.144 53.7443C112.487 54.1733 112.735 54.67 112.873 55.2017L124.825 86.2166C125.263 87.2065 125.295 88.3283 124.916 89.3419C124.536 90.3555 123.775 91.1801 122.795 91.6392H122.786Z" fill="#8F8F8F"/>
<path d="M3.38477 41.0703L8.29759 101.29L80.61 143.035L92.0351 92.5011L3.38477 41.0703ZM31.9301 100.349C30.8858 100.673 29.756 100.572 28.7855 100.069C27.815 99.5654 27.0818 98.7 26.7448 97.6599L14.8011 66.6451C14.5438 66.1586 14.3925 65.6231 14.3572 65.0739C14.3219 64.5246 14.4035 63.9742 14.5966 63.4588C14.7896 62.9434 15.0897 62.4748 15.4771 62.0839C15.8645 61.693 16.3304 61.3886 16.844 61.1909C17.3576 60.9932 17.9073 60.9067 18.4569 60.937C19.0064 60.9673 19.5433 61.1137 20.032 61.3667C20.5208 61.6197 20.9504 61.9734 21.2925 62.4045C21.6346 62.8356 21.8813 63.3344 22.0166 63.8679L33.969 94.874C34.4201 95.871 34.4589 97.0059 34.077 98.0315C33.6951 99.057 32.9234 99.8901 31.9301 100.349ZM54.5079 110.966C53.4648 111.295 52.334 111.197 51.3624 110.695C50.3908 110.193 49.6575 109.327 49.3226 108.285L37.4053 77.2705C37.143 76.7829 36.9874 76.245 36.9489 75.6926C36.9104 75.1403 36.9899 74.5861 37.1821 74.0668C37.3744 73.5475 37.6749 73.0751 38.0638 72.681C38.4526 72.2868 38.9209 71.9799 39.4375 71.7807C39.9542 71.5814 40.5073 71.4944 41.0601 71.5254C41.6129 71.5564 42.1528 71.7047 42.6439 71.9605C43.135 72.2162 43.5661 72.5736 43.9084 73.0087C44.2508 73.4439 44.4966 73.947 44.6296 74.4845L56.5732 105.499C57.0222 106.498 57.057 107.635 56.6699 108.659C56.2828 109.684 55.5054 110.513 54.5079 110.966ZM77.0857 121.591C76.0438 121.92 74.9142 121.822 73.944 121.32C72.9739 120.817 72.2422 119.951 71.9093 118.911L59.9568 87.8958C59.6945 87.4083 59.5389 86.8704 59.5004 86.318C59.4619 85.7657 59.5414 85.2114 59.7336 84.6922C59.9258 84.1729 60.2264 83.7005 60.6152 83.3063C61.0041 82.9122 61.4724 82.6053 61.989 82.406C62.5056 82.2068 63.0587 82.1198 63.6116 82.1508C64.1644 82.1818 64.7043 82.3301 65.1954 82.5859C65.6865 82.8416 66.1175 83.199 66.4599 83.6341C66.8023 84.0693 67.0481 84.5724 67.181 85.1099L79.1247 116.125C79.5754 117.121 79.614 118.254 79.232 119.278C78.85 120.302 78.0785 121.134 77.0857 121.591Z" fill="white"/>
<g opacity="0.15">
<path d="M3.38477 41.0688L8.29759 101.288L80.61 143.034L92.0351 92.4996L3.38477 41.0688ZM31.9301 100.348C30.8858 100.671 29.756 100.571 28.7855 100.067C27.815 99.564 27.0818 98.6985 26.7448 97.6585L14.8011 66.6436C14.5438 66.1571 14.3925 65.6216 14.3572 65.0724C14.3219 64.5232 14.4035 63.9727 14.5966 63.4573C14.7896 62.9419 15.0897 62.4733 15.4771 62.0824C15.8645 61.6915 16.3304 61.3872 16.844 61.1895C17.3576 60.9918 17.9073 60.9052 18.4569 60.9355C19.0064 60.9658 19.5433 61.1123 20.032 61.3652C20.5208 61.6182 20.9504 61.9719 21.2925 62.403C21.6346 62.8342 21.8813 63.3329 22.0166 63.8664L33.969 94.8725C34.4201 95.8695 34.4589 97.0045 34.077 98.03C33.6951 99.0555 32.9234 99.8886 31.9301 100.348ZM54.5079 110.964C53.4648 111.293 52.334 111.196 51.3624 110.694C50.3908 110.191 49.6575 109.325 49.3226 108.284L37.4053 77.269C37.143 76.7814 36.9874 76.2435 36.9489 75.6912C36.9104 75.1388 36.9899 74.5846 37.1821 74.0653C37.3744 73.5461 37.6749 73.0737 38.0638 72.6795C38.4526 72.2853 38.9209 71.9784 39.4375 71.7792C39.9542 71.58 40.5073 71.493 41.0601 71.524C41.6129 71.555 42.1528 71.7033 42.6439 71.959C43.135 72.2148 43.5661 72.5721 43.9084 73.0073C44.2508 73.4425 44.4966 73.9455 44.6296 74.483L56.5732 105.498C57.0222 106.497 57.057 107.633 56.6699 108.658C56.2828 109.682 55.5054 110.512 54.5079 110.964ZM77.0857 121.59C76.0438 121.918 74.9142 121.821 73.944 121.318C72.9739 120.816 72.2422 119.95 71.9093 118.909L59.9568 87.8944C59.6945 87.4068 59.5389 86.8689 59.5004 86.3166C59.4619 85.7642 59.5414 85.21 59.7336 84.6907C59.9258 84.1715 60.2264 83.699 60.6152 83.3049C61.0041 82.9107 61.4724 82.6038 61.989 82.4046C62.5056 82.2054 63.0587 82.1184 63.6116 82.1494C64.1644 82.1804 64.7043 82.3287 65.1954 82.5844C65.6865 82.8402 66.1175 83.1975 66.4599 83.6327C66.8023 84.0678 67.0481 84.5709 67.181 85.1084L79.1247 116.123C79.5754 117.119 79.614 118.253 79.232 119.277C78.85 120.301 78.0785 121.132 77.0857 121.59Z" fill="#8F8F8F"/>
</g>
<path d="M92.0257 92.5004L141.505 63.9287L130.089 114.472L80.6094 143.035L92.0257 92.5004Z" fill="white"/>
<path opacity="0.4" d="M92.0257 92.5004L141.505 63.9287L130.089 114.472L80.6094 143.035L92.0257 92.5004Z" fill="#8F8F8F"/>
</svg>
