<svg width="184" height="155" viewBox="0 0 184 155" fill="none" xmlns="http://www.w3.org/2000/svg">
<path d="M177.263 0.405762H6.77392C3.31756 0.405762 0.515625 3.20768 0.515625 6.66404V52.8167C0.515625 56.273 3.31756 59.075 6.77392 59.075H177.263C180.719 59.075 183.521 56.273 183.521 52.8167V6.66404C183.521 3.20768 180.719 0.405762 177.263 0.405762Z" fill="white"/>
<path d="M177.217 59.075C177.622 59.0481 178.026 58.9999 178.426 58.9307C179.598 58.6925 180.675 58.1193 181.528 57.2805C182.161 56.6769 182.654 55.941 182.971 55.1253C183.338 54.1348 183.489 53.0769 183.412 52.0232C183.412 49.7236 183.412 47.0634 183.412 44.0786C183.412 38.0908 183.412 30.7774 183.412 22.2918C183.412 18.0444 183.412 13.4995 183.412 8.68406C183.491 7.47738 183.418 6.26561 183.196 5.07697C182.876 3.8668 182.191 2.78458 181.235 1.97774C180.278 1.1709 179.095 0.67868 177.848 0.56812C176.577 0.514014 175.233 0.56812 173.899 0.56812L6.78256 0.640263C5.79843 0.640994 4.82941 0.882473 3.96002 1.34364C3.09388 1.80347 2.35147 2.46546 1.79577 3.27343C1.2501 4.08274 0.903984 5.00984 0.785792 5.97875C0.704633 6.93462 0.785792 7.98068 0.785792 8.97263V20.9752C0.785792 28.9228 0.785792 36.7382 0.785792 44.4212V50.1655C0.785792 51.1214 0.785792 52.0773 0.785792 53.0151C0.823035 53.9283 1.06332 54.8216 1.48917 55.6302C1.91593 56.4282 2.51547 57.1208 3.24404 57.6575C3.97262 58.1942 4.81184 58.5614 5.70044 58.7323C6.59853 58.8321 7.50277 58.8653 8.40575 58.8315H32.9339L108.042 58.8856L158.677 58.9578L172.447 59.0029H176.054H177.271C177.271 59.0029 176.866 59.0029 176.054 59.0029H172.447H158.677L108.042 59.075L32.9339 59.1291H8.44182C7.49959 59.1688 6.55571 59.1326 5.61928 59.0209C4.16397 58.7599 2.84206 58.008 1.87391 56.8905C0.905762 55.773 0.349844 54.3575 0.298828 52.8798C0.298828 51.915 0.298828 50.9771 0.298828 50.0212V8.81031C0.298828 7.7913 0.298831 6.82641 0.343919 5.76232C0.46134 4.71235 0.834268 3.70716 1.43007 2.83467C2.02588 1.96218 2.8264 1.249 3.76162 0.757498C4.69749 0.260459 5.74093 0.000365157 6.8006 0L173.872 0.0721433C175.215 0.0721433 176.523 0.0721433 177.848 0.0721433C179.157 0.191714 180.397 0.709754 181.402 1.55634C182.406 2.40294 183.127 3.53733 183.466 4.80644C183.628 5.41506 183.701 6.04373 183.683 6.67311V8.47666C183.683 13.2921 183.683 17.837 183.683 22.0844C183.683 30.57 183.683 37.8834 183.683 43.8712C183.683 46.856 183.683 49.5162 183.683 51.8158C183.758 52.8865 183.598 53.9607 183.214 54.9629C182.817 55.933 182.184 56.7888 181.373 57.4532C180.563 58.1176 179.599 58.5696 178.57 58.7684C178.272 58.8225 177.971 58.8557 177.668 58.8676L177.217 59.075Z" fill="#D8D8D8"/>
<path d="M170.337 12.4444C170.277 12.445 170.219 12.4224 170.175 12.3813C170.133 12.3376 170.109 12.2795 170.109 12.219C170.109 12.1585 170.133 12.1003 170.175 12.0566L174.684 7.73715C174.727 7.69527 174.785 7.67188 174.846 7.67188C174.906 7.67188 174.964 7.69527 175.008 7.73715C175.049 7.77929 175.073 7.83595 175.073 7.89496C175.073 7.95397 175.049 8.01064 175.008 8.05278L170.499 12.3723C170.479 12.3951 170.454 12.4133 170.426 12.4258C170.398 12.4382 170.368 12.4445 170.337 12.4444Z" fill="#D8D8D8"/>
<path d="M174.828 12.4628C174.799 12.464 174.771 12.4589 174.744 12.448C174.718 12.4371 174.694 12.4206 174.675 12.3997L170.211 8.04413C170.189 8.02389 170.172 7.99944 170.16 7.9723C170.149 7.94516 170.143 7.9159 170.143 7.88633C170.143 7.85675 170.149 7.82748 170.16 7.80034C170.172 7.7732 170.189 7.74875 170.211 7.72851C170.253 7.68721 170.31 7.66406 170.369 7.66406C170.428 7.66406 170.484 7.68721 170.527 7.72851L175.035 12.0931C175.077 12.1352 175.1 12.1919 175.1 12.2509C175.1 12.3099 175.077 12.3666 175.035 12.4087C175.008 12.435 174.975 12.4537 174.939 12.4632C174.902 12.4727 174.864 12.4726 174.828 12.4628Z" fill="#D8D8D8"/>
<path d="M39.9496 41.1385L38.1461 38.5324C37.0371 36.963 36.4417 35.0886 36.4417 33.1669V27.3054C36.4417 25.0211 35.6229 22.8125 34.1339 21.0802C32.6448 19.3479 30.5842 18.2068 28.3258 17.8638V15.0683C28.3258 14.7263 28.1899 14.3983 27.9481 14.1565C27.7062 13.9147 27.3783 13.7788 27.0362 13.7788C26.8673 13.7788 26.7001 13.8122 26.5441 13.8771C26.3882 13.9421 26.2466 14.0372 26.1276 14.1571C26.0086 14.2769 25.9144 14.4191 25.8506 14.5755C25.7868 14.732 25.7545 14.8994 25.7557 15.0683V17.7737C23.4306 18.0495 21.2874 19.1684 19.7319 20.9183C18.1764 22.6683 17.3165 24.9279 17.3151 27.2693V33.3382C17.3133 35.425 16.6116 37.4508 15.3222 39.0915L13.7441 41.1025L39.9496 41.1385Z" fill="#D6D6D6"/>
<path d="M25.4588 45.3952C26.1721 45.6841 26.9519 45.768 27.7104 45.6373C28.4688 45.5067 29.1757 45.1667 29.7512 44.6557C30.2446 44.2015 30.6166 43.6311 30.8333 42.9965L23.1953 42.9424C23.3817 43.4859 23.6792 43.9848 24.0688 44.407C24.4585 44.8293 24.9319 45.1659 25.4588 45.3952Z" fill="#D6D6D6"/>
<path d="M142.951 20.2267C142.951 20.3529 122.453 20.4611 97.1677 20.4611C71.882 20.4611 51.3848 20.3529 51.3848 20.2267C51.3848 20.1004 71.882 19.9922 97.1677 19.9922C122.453 19.9922 142.951 20.1004 142.951 20.2267Z" fill="#D8D8D8"/>
<path d="M164.485 31.3097C164.485 31.4359 139.154 31.5441 107.917 31.5441C76.6796 31.5441 51.3398 31.4359 51.3398 31.3097C51.3398 31.1834 76.6616 31.0752 107.917 31.0752C139.172 31.0752 164.485 31.1744 164.485 31.3097Z" fill="#E0E0E0"/>
<path d="M164.485 37.9913C164.485 38.1175 139.154 38.2257 107.917 38.2257C76.6796 38.2257 51.3398 38.1175 51.3398 37.9913C51.3398 37.865 76.6616 37.7568 107.917 37.7568C139.172 37.7568 164.485 37.8109 164.485 37.9913Z" fill="#E0E0E0"/>
<path d="M147.981 68.2373H34.7641C31.3078 68.2373 28.5059 71.0392 28.5059 74.4956V102.288C28.5059 105.745 31.3078 108.546 34.7641 108.546H147.981C151.438 108.546 154.24 105.745 154.24 102.288V74.4956C154.24 71.0392 151.438 68.2373 147.981 68.2373Z" fill="#FAFAFA"/>
<path d="M147.982 108.546C147.982 108.546 148.261 108.546 148.802 108.456C149.605 108.351 150.378 108.084 151.075 107.672C152.003 107.13 152.774 106.356 153.313 105.427C153.852 104.497 154.14 103.444 154.15 102.369V99.4926C154.15 95.4166 154.15 90.4748 154.105 84.6765C154.105 81.7908 154.105 78.6977 154.105 75.4243C154.147 74.6075 154.081 73.7886 153.906 72.9895C153.703 72.1788 153.331 71.42 152.815 70.7621C152.287 70.0762 151.617 69.5119 150.852 69.1074C150.086 68.7029 149.243 68.4676 148.378 68.4175L34.7554 68.4716C33.4196 68.4702 32.1212 68.9122 31.0637 69.7282C30.0061 70.5442 29.2493 71.6881 28.9119 72.9805C28.7536 73.6262 28.6898 74.2914 28.7225 74.9554V77.0024C28.7225 78.3641 28.7225 79.7077 28.7225 81.0694V100.908C28.7225 101.558 28.7225 102.216 28.7225 102.829C28.7895 103.449 28.9444 104.056 29.1824 104.633C29.6736 105.767 30.4983 106.724 31.5469 107.378C32.5956 108.032 33.8184 108.352 35.053 108.294H49.8149L100.882 108.339L135.321 108.42L144.681 108.465H147.116H147.946C147.946 108.465 147.657 108.465 147.116 108.465H144.681H135.321L100.882 108.537L49.8149 108.591H35.089C33.7624 108.653 32.4486 108.309 31.3214 107.607C30.1942 106.905 29.3068 105.877 28.7766 104.66C28.5259 104.042 28.3621 103.393 28.2897 102.73C28.2356 102.045 28.2897 101.413 28.2897 100.764V74.9644C28.2563 74.2606 28.3262 73.5558 28.4971 72.8723C28.8563 71.4726 29.6722 70.2328 30.8156 69.3491C31.959 68.4654 33.3644 67.9885 34.8095 67.9937L148.433 68.0749C149.788 68.1617 151.08 68.6766 152.124 69.5453C153.168 70.4139 153.909 71.5915 154.24 72.9083C154.421 73.7309 154.488 74.5745 154.438 75.4153C154.438 78.6887 154.438 81.7818 154.438 84.6674C154.438 90.4388 154.438 95.4075 154.438 99.4835C154.438 100.494 154.438 101.458 154.438 102.36C154.427 103.216 154.24 104.06 153.888 104.84C153.335 106.062 152.41 107.078 151.246 107.744C150.536 108.151 149.751 108.408 148.938 108.501C148.621 108.543 148.301 108.558 147.982 108.546Z" fill="#D8D8D8"/>
<path d="M145.186 76.5784C145.155 76.5779 145.125 76.5714 145.097 76.559C145.069 76.5465 145.044 76.5286 145.023 76.5062C145.002 76.486 144.985 76.4615 144.973 76.4344C144.961 76.4072 144.955 76.378 144.955 76.3484C144.955 76.3188 144.961 76.2896 144.973 76.2624C144.985 76.2353 145.002 76.2108 145.023 76.1906L148.116 73.2238C148.138 73.202 148.163 73.1846 148.191 73.1727C148.218 73.1609 148.248 73.1548 148.279 73.1548C148.309 73.1548 148.339 73.1609 148.367 73.1727C148.395 73.1846 148.42 73.202 148.441 73.2238C148.482 73.2659 148.506 73.3226 148.506 73.3816C148.506 73.4406 148.482 73.4972 148.441 73.5394L145.339 76.5062C145.32 76.5284 145.296 76.5462 145.27 76.5586C145.244 76.5711 145.215 76.5778 145.186 76.5784Z" fill="#D8D8D8"/>
<path d="M148.27 76.5876C148.209 76.5882 148.151 76.5656 148.107 76.5245L145.041 73.5306C145.009 73.4872 144.993 73.4335 144.997 73.3794C145.001 73.3252 145.024 73.2743 145.062 73.2359C145.101 73.1976 145.151 73.1743 145.206 73.1705C145.26 73.1666 145.313 73.1824 145.357 73.215L148.423 76.2089C148.464 76.251 148.487 76.3077 148.487 76.3667C148.487 76.4257 148.464 76.4824 148.423 76.5245C148.381 76.5635 148.327 76.586 148.27 76.5876Z" fill="#D8D8D8"/>
<path d="M55.5945 96.2189L54.332 94.4153C53.5728 93.335 53.1636 92.0475 53.1597 90.7271V86.6871C53.1586 85.1202 52.5972 83.6054 51.5768 82.4163C50.5564 81.2272 49.1443 80.4423 47.5958 80.2034V78.2826C47.5958 78.0435 47.5007 77.8141 47.3316 77.645C47.1625 77.4759 46.9331 77.3809 46.694 77.3809C46.4548 77.3809 46.2254 77.4759 46.0563 77.645C45.8872 77.8141 45.7922 78.0435 45.7922 78.2826V80.1764C44.1949 80.3641 42.722 81.1318 41.6532 82.3336C40.5843 83.5354 39.9939 85.0878 39.9938 86.6962V90.8623C39.995 92.2943 39.5155 93.6851 38.6322 94.8121L37.541 96.2008L55.5945 96.2189Z" fill="#D6D6D6"/>
<path d="M45.6401 99.1498C46.1303 99.3462 46.6654 99.403 47.1859 99.3138C47.7064 99.2247 48.192 98.9931 48.5889 98.6448C48.9291 98.3324 49.1837 97.9381 49.3284 97.4995H44.0801C44.2145 97.866 44.4222 98.2014 44.6904 98.4851C44.9586 98.7688 45.2817 98.995 45.6401 99.1498Z" fill="#D6D6D6"/>
<path d="M126.338 81.8536C126.338 81.9798 112.253 82.0881 94.8756 82.0881C77.4985 82.0881 63.4219 81.9798 63.4219 81.8536C63.4219 81.7273 77.5075 81.6191 94.8756 81.6191C112.244 81.6191 126.338 81.7183 126.338 81.8536Z" fill="#D8D8D8"/>
<path d="M141.146 89.4644C141.146 89.5997 123.742 89.6989 102.28 89.6989C80.8175 89.6989 63.4043 89.5997 63.4043 89.4644C63.4043 89.3292 80.7995 89.23 102.28 89.23C123.76 89.23 141.146 89.3382 141.146 89.4644Z" fill="#E0E0E0"/>
<path d="M141.146 94.0274C141.146 94.1537 123.742 94.2619 102.28 94.2619C80.8175 94.2619 63.4043 94.1537 63.4043 94.0274C63.4043 93.9012 80.7995 93.793 102.28 93.793C123.76 93.793 141.146 93.9012 141.146 94.0274Z" fill="#E0E0E0"/>
<path d="M147.503 114.813H35.2329C31.7765 114.813 28.9746 117.615 28.9746 121.072V148.558C28.9746 152.014 31.7765 154.816 35.2329 154.816H147.503C150.96 154.816 153.762 152.014 153.762 148.558V121.072C153.762 117.615 150.96 114.813 147.503 114.813Z" fill="#FAFAFA"/>
<path d="M147.504 154.825C147.504 154.825 147.784 154.825 148.316 154.744C149.112 154.635 149.878 154.369 150.57 153.959C151.705 153.307 152.604 152.313 153.14 151.119C153.473 150.362 153.654 149.547 153.672 148.72V145.871C153.672 141.831 153.672 136.898 153.672 131.172C153.672 128.304 153.672 125.238 153.672 121.992C153.72 121.181 153.653 120.367 153.474 119.575C153.274 118.772 152.909 118.019 152.401 117.366C151.879 116.682 151.217 116.117 150.46 115.71C149.703 115.303 148.867 115.062 148.009 115.003L35.2878 115.048C33.9567 115.057 32.6654 115.503 31.6128 116.318C30.5601 117.132 29.8045 118.271 29.4624 119.557C29.2981 120.196 29.2282 120.855 29.255 121.514V127.574C29.255 132.942 29.255 138.221 29.255 143.409V147.277C29.255 147.918 29.255 148.576 29.255 149.18C29.3169 149.8 29.4687 150.408 29.7059 150.984C30.1897 152.11 31.0036 153.064 32.0403 153.72C33.0769 154.375 34.2878 154.7 35.5133 154.654H50.158L100.829 154.699L134.997 154.78L144.285 154.825H146.702H147.522C147.522 154.825 147.243 154.825 146.702 154.825H144.285L134.997 154.87L100.829 154.942L50.158 154.996H35.4952C34.1812 155.04 32.8844 154.688 31.7732 153.985C30.662 153.282 29.7877 152.262 29.264 151.056C29.0124 150.441 28.8485 149.795 28.777 149.135C28.777 148.468 28.777 147.836 28.777 147.187C28.777 145.907 28.777 144.617 28.777 143.319V121.478C28.7493 120.779 28.8253 120.08 29.0025 119.404C29.3774 118.017 30.1992 116.793 31.3404 115.921C32.4816 115.048 33.8785 114.577 35.3149 114.579L148.036 114.678C148.939 114.742 149.818 114.998 150.615 115.428C151.411 115.859 152.106 116.455 152.653 117.176C153.18 117.869 153.563 118.66 153.781 119.503C153.953 120.321 154.02 121.157 153.979 121.992C153.979 125.238 153.979 128.304 153.979 131.172C153.979 136.898 153.979 141.831 153.934 145.871C153.934 146.872 153.934 147.827 153.934 148.72C153.903 149.809 153.591 150.87 153.029 151.803C152.466 152.735 151.672 153.506 150.723 154.041C150.016 154.445 149.234 154.7 148.424 154.789C148.119 154.826 147.811 154.838 147.504 154.825Z" fill="#D8D8D8"/>
<path d="M144.754 123.101C144.724 123.1 144.693 123.094 144.666 123.081C144.638 123.069 144.613 123.051 144.592 123.028C144.57 123.008 144.553 122.984 144.541 122.957C144.53 122.929 144.523 122.9 144.523 122.871C144.523 122.841 144.53 122.812 144.541 122.785C144.553 122.758 144.57 122.733 144.592 122.713L147.667 119.764C147.71 119.722 147.769 119.699 147.829 119.699C147.89 119.699 147.948 119.722 147.991 119.764C148.033 119.806 148.056 119.863 148.056 119.922C148.056 119.981 148.033 120.037 147.991 120.08L144.916 123.028C144.896 123.052 144.871 123.07 144.843 123.083C144.815 123.095 144.785 123.101 144.754 123.101Z" fill="#D8D8D8"/>
<path d="M147.838 123.11C147.778 123.11 147.72 123.088 147.676 123.047L144.637 120.053C144.594 120.011 144.569 119.954 144.568 119.894C144.568 119.834 144.591 119.776 144.632 119.733C144.674 119.69 144.732 119.665 144.792 119.664C144.852 119.663 144.91 119.686 144.953 119.728L147.992 122.704C148.033 122.746 148.056 122.803 148.056 122.862C148.056 122.921 148.033 122.977 147.992 123.02C147.954 123.069 147.899 123.101 147.838 123.11Z" fill="#D8D8D8"/>
<path d="M55.8665 142.597L54.577 140.793C53.8182 139.723 53.4116 138.444 53.4137 137.132V133.146C53.4127 131.589 52.8551 130.083 51.8414 128.901C50.8277 127.718 49.4248 126.937 47.8858 126.699V124.796C47.8858 124.557 47.7908 124.327 47.6217 124.158C47.4526 123.989 47.2232 123.894 46.984 123.894C46.7449 123.894 46.5155 123.989 46.3464 124.158C46.1773 124.327 46.0823 124.557 46.0823 124.796V126.671C44.4985 126.861 43.0393 127.625 41.9807 128.818C40.9221 130.011 40.3377 131.551 40.338 133.146V137.285C40.3378 138.707 39.8616 140.088 38.9853 141.208L37.9844 142.597H55.8665Z" fill="#E0E0E0"/>
<path d="M45.9815 145.501C46.4691 145.694 47.0008 145.75 47.518 145.661C48.0351 145.572 48.5176 145.341 48.9122 144.996C49.2479 144.685 49.4992 144.294 49.6427 143.859H44.4395C44.5706 144.224 44.7751 144.558 45.0403 144.84C45.3055 145.122 45.6259 145.347 45.9815 145.501Z" fill="#E0E0E0"/>
<path d="M126.069 128.331C126.069 128.466 112.092 128.566 94.8502 128.566C77.6083 128.566 63.6309 128.466 63.6309 128.331C63.6309 128.196 77.6083 128.097 94.8502 128.097C112.092 128.097 126.069 128.169 126.069 128.331Z" fill="#D8D8D8"/>
<path d="M140.786 135.888C140.786 136.023 123.508 136.122 102.209 136.122C80.9088 136.122 63.6309 136.023 63.6309 135.888C63.6309 135.753 80.8998 135.653 102.209 135.653C123.517 135.653 140.786 135.762 140.786 135.888Z" fill="#E0E0E0"/>
<path d="M140.786 140.415C140.786 140.541 123.508 140.649 102.209 140.649C80.9088 140.649 63.6309 140.541 63.6309 140.415C63.6309 140.288 80.8998 140.18 102.209 140.18C123.517 140.18 140.786 140.288 140.786 140.415Z" fill="#E0E0E0"/>
</svg>
