<svg width="24" height="24" viewBox="0 0 24 24" fill="none" xmlns="http://www.w3.org/2000/svg">
<path opacity="0.4" d="M17.61 10.69H20.5C20.7739 10.69 21 10.9161 21 11.19V16.43C21 18.0923 20.4239 19.3476 19.5277 20.1893C18.6266 21.0356 17.3629 21.5 15.93 21.5H8.07C6.63711 21.5 5.37343 21.0356 4.4723 20.1893C3.57612 19.3476 3 18.0923 3 16.43V7.57C3 5.90766 3.57612 4.65241 4.4723 3.81071C5.37343 2.96436 6.63711 2.5 8.07 2.5H12.31C12.5839 2.5 12.81 2.72614 12.81 3V5.89C12.81 8.53614 14.9639 10.69 17.61 10.69Z" fill="#315879" stroke="#315879"/>
<path d="M17.435 8.31002L17.435 8.30999H17.4297C16.1826 8.30999 15.1797 7.31077 15.1797 6.13999V2.64999C15.1797 2.61542 15.1892 2.59388 15.2009 2.57784C15.2145 2.55924 15.2373 2.54025 15.269 2.52778C15.3323 2.50287 15.3962 2.51366 15.4461 2.56355C16.4446 3.562 17.9435 5.07454 19.2557 6.39873C19.8876 7.03643 20.4763 7.63045 20.9449 8.10232L20.9461 8.10355C20.972 8.12937 20.9791 8.15048 20.9815 8.16561C20.9845 8.18366 20.9825 8.20721 20.9712 8.23266C20.9492 8.28243 20.9027 8.31999 20.8297 8.31999C19.6987 8.31999 18.3817 8.31999 17.435 8.31002ZM20.8297 8.81999C21.3997 8.81999 21.6997 8.14999 21.2997 7.74999C20.8319 7.27896 20.2438 6.68552 19.6122 6.04817C18.2995 4.72353 16.7989 3.20922 15.7997 2.20999C15.3897 1.79999 14.6797 2.07999 14.6797 2.64999V6.13999C14.6797 7.59999 15.9197 8.80999 17.4297 8.80999C18.3796 8.81999 19.6994 8.81999 20.8294 8.81999H20.8297Z" fill="#315879" stroke="#315879"/>
<path d="M13.5 13.25H7.5C7.36614 13.25 7.25 13.1339 7.25 13C7.25 12.8661 7.36614 12.75 7.5 12.75H13.5C13.6339 12.75 13.75 12.8661 13.75 13C13.75 13.1339 13.6339 13.25 13.5 13.25Z" fill="#315879" stroke="#315879"/>
<path d="M11.5 17.25H7.5C7.36614 17.25 7.25 17.1339 7.25 17C7.25 16.8661 7.36614 16.75 7.5 16.75H11.5C11.6339 16.75 11.75 16.8661 11.75 17C11.75 17.1339 11.6339 17.25 11.5 17.25Z" fill="#315879" stroke="#315879"/>
</svg>
