<svg width="21" height="20" viewBox="0 0 21 20" fill="none" xmlns="http://www.w3.org/2000/svg">
<path d="M19.3 10.2083C19.3 9.55825 19.2417 8.93325 19.1333 8.33325H10.5V11.8833H15.4333C15.2167 13.0249 14.5667 13.9916 13.5917 14.6416V16.9499H16.5667C18.3 15.3499 19.3 12.9999 19.3 10.2083Z" fill="#386384"/>
<path d="M10.4997 19.1667C12.9747 19.1667 15.0497 18.35 16.5664 16.95L13.5914 14.6417C12.7747 15.1917 11.7331 15.525 10.4997 15.525C8.11641 15.525 6.09141 13.9167 5.36641 11.75H2.31641V14.1167C3.82474 17.1083 6.91641 19.1667 10.4997 19.1667Z" fill="#34A853"/>
<path d="M5.36732 11.7416C5.18398 11.1916 5.07565 10.6083 5.07565 9.99993C5.07565 9.3916 5.18398 8.80827 5.36732 8.25827V5.8916H2.31732C1.69232 7.12493 1.33398 8.5166 1.33398 9.99993C1.33398 11.4833 1.69232 12.8749 2.31732 14.1083L4.69232 12.2583L5.36732 11.7416Z" fill="#FBBC05"/>
<path d="M10.4997 4.48325C11.8497 4.48325 13.0497 4.94992 14.0081 5.84992L16.6331 3.22492C15.0414 1.74159 12.9747 0.833252 10.4997 0.833252C6.91641 0.833252 3.82474 2.89159 2.31641 5.89159L5.36641 8.25825C6.09141 6.09159 8.11641 4.48325 10.4997 4.48325Z" fill="#EA4335"/>
</svg>
