<svg width="534" height="477" viewBox="0 0 534 477" fill="none" xmlns="http://www.w3.org/2000/svg">
<g clip-path="url(#clip0_2063_5613)">
<path opacity="0.3" d="M297.105 477.305C417.11 477.305 514.393 465.792 514.393 451.591C514.393 437.389 417.11 425.876 297.105 425.876C177.1 425.876 79.8168 437.389 79.8168 451.591C79.8168 465.792 177.1 477.305 297.105 477.305Z" fill="#91A8BA"/>
<path d="M259.882 44.1427L292.77 136.404C293.578 138.657 293.012 141.168 291.33 142.853L274.587 159.656L259.898 44.1265L259.882 44.1427Z" fill="#2A85B7"/>
<path d="M157.288 59.4384C160.847 55.0797 165.748 52.2927 171.087 51.6284L248.138 41.8902C252.376 41.3555 256.404 43.9967 257.941 48.3067L157.288 59.4384Z" fill="#247591"/>
<path d="M270.688 160.579L172.802 171.452C166.46 172.165 160.831 167.336 160.556 160.952L156.123 60.0218C156.026 57.8991 157.563 56.052 159.666 55.7927L256.404 43.6402C258.539 43.381 260.497 44.8069 260.901 46.9295L280.297 147.503C281.527 153.839 277.078 159.883 270.672 160.596L270.688 160.579Z" fill="#2E8CCC"/>
<mask id="mask0_2063_5613" style="mask-type:luminance" maskUnits="userSpaceOnUse" x="156" y="43" width="125" height="129">
<path d="M270.688 160.579L172.802 171.452C166.46 172.165 160.831 167.336 160.556 160.952L156.123 60.0218C156.026 57.8991 157.563 56.052 159.666 55.7927L256.404 43.6402C258.539 43.381 260.497 44.8069 260.901 46.9295L280.297 147.503C281.527 153.839 277.078 159.883 270.672 160.596L270.688 160.579Z" fill="white"/>
</mask>
<g mask="url(#mask0_2063_5613)">
<path d="M291.43 80.5329L120.407 98.9607L120.696 101.651L291.719 83.2233L291.43 80.5329Z" fill="#1B566B"/>
<path d="M299.056 72.0685L128.034 90.4963L128.323 93.1868L299.345 74.759L299.056 72.0685Z" fill="#1B566B"/>
<g opacity="0.1">
<path opacity="0.4" d="M266.046 43.9156C272.694 42.0846 251.001 35.6195 246.083 36.219L245.76 36.2514C243.495 36.5269 241.958 38.6981 242.46 40.9342L243.64 46.3137C256.728 105.602 215.574 163.172 155.314 169.864C153.357 170.074 151.885 171.727 151.869 173.688C151.836 179.456 156.835 183.961 162.546 183.329L273.81 170.966C279.505 170.334 283.387 164.906 282.142 159.299L266.046 43.8994V43.9156Z" fill="white"/>
</g>
</g>
<path d="M187.312 71.6071C183.203 45.0013 179.208 20.907 204.266 17.8446C228.159 14.928 233.271 36.9159 235.843 65.9522" stroke="#212121" stroke-width="1.58" stroke-linecap="round" stroke-linejoin="round"/>
<path d="M191.13 74.6858C191.34 76.5977 189.965 78.2991 188.073 78.5097C186.164 78.7204 184.465 77.3431 184.255 75.4473C184.045 73.5353 185.42 71.834 187.312 71.6233C189.221 71.4127 190.92 72.79 191.13 74.6858Z" fill="#1B566B"/>
<path d="M239.645 69.0307C239.855 70.9427 238.48 72.6441 236.587 72.8547C234.678 73.0653 232.98 71.6881 232.769 69.7923C232.559 67.8803 233.934 66.1789 235.827 65.9683C237.736 65.7577 239.434 67.1349 239.645 69.0307Z" fill="#1B566B"/>
<path d="M398.372 160.349L490 114.411C499.587 109.604 503.468 97.9229 498.67 88.3201L474.138 39.2296C469.339 29.6268 457.677 25.7388 448.09 30.5454L356.462 76.4836C346.875 81.2903 342.994 92.9714 347.792 102.574L372.324 151.665C377.123 161.267 388.785 165.156 398.372 160.349Z" fill="#2776B7"/>
<mask id="mask1_2063_5613" style="mask-type:luminance" maskUnits="userSpaceOnUse" x="345" y="28" width="156" height="135">
<path d="M398.372 160.349L490 114.411C499.587 109.604 503.468 97.9229 498.67 88.3201L474.138 39.2296C469.339 29.6268 457.677 25.7388 448.09 30.5454L356.462 76.4836C346.875 81.2903 342.994 92.9714 347.792 102.574L372.324 151.665C377.123 161.267 388.785 165.156 398.372 160.349Z" fill="white"/>
</mask>
<g mask="url(#mask1_2063_5613)">
<path d="M336.642 116.377L495.175 41.8416L474.679 17.002L325.852 80.7295L336.642 116.377Z" fill="#315879"/>
<path d="M386.15 113.463L385.356 113.872L383.955 113.024L383.83 114.659L383.085 115.042L383.304 112.788L381.468 111.724L382.236 111.328L383.549 112.145L383.636 110.607L384.386 110.22L384.192 112.379L386.15 113.463ZM389.216 111.884L388.421 112.293L387.021 111.444L386.895 113.079L386.15 113.463L386.369 111.209L384.534 110.144L385.301 109.749L386.615 110.566L386.702 109.027L387.451 108.641L387.257 110.8L389.216 111.884ZM392.281 110.304L391.487 110.714L390.086 109.865L389.961 111.5L389.216 111.884L389.434 109.63L387.599 108.565L388.367 108.169L389.68 108.986L389.767 107.448L390.517 107.062L390.323 109.221L392.281 110.304ZM395.346 108.725L394.552 109.134L393.151 108.286L393.026 109.921L392.281 110.304L392.5 108.05L390.665 106.985L391.432 106.59L392.746 107.407L392.832 105.869L393.582 105.482L393.388 107.641L395.346 108.725ZM399.606 106.531L398.811 106.94L397.411 106.091L397.285 107.726L396.54 108.11L396.759 105.856L394.924 104.791L395.691 104.396L397.005 105.213L397.092 103.674L397.841 103.288L397.647 105.447L399.606 106.531ZM402.671 104.951L401.877 105.361L400.476 104.512L400.351 106.147L399.606 106.531L399.825 104.277L397.989 103.212L398.757 102.816L400.07 103.633L400.157 102.095L400.907 101.709L400.713 103.867L402.671 104.951ZM405.737 103.372L404.942 103.781L403.541 102.933L403.416 104.567L402.671 104.951L402.89 102.697L401.055 101.632L401.822 101.237L403.136 102.054L403.223 100.516L403.972 100.129L403.778 102.288L405.737 103.372ZM408.802 101.793L408.008 102.202L406.607 101.353L406.482 102.988L405.737 103.372L405.955 101.118L404.12 100.053L404.888 99.6576L406.201 100.475L406.288 98.9362L407.037 98.55L406.844 100.709L408.802 101.793ZM413.061 99.5982L412.267 100.008L410.866 99.1588L410.741 100.794L409.996 101.178L410.215 98.9236L408.379 97.8586L409.147 97.4632L410.46 98.2802L410.547 96.7418L411.297 96.3556L411.103 98.5144L413.061 99.5982ZM416.127 98.0189L415.332 98.4282L413.932 97.5795L413.806 99.2144L413.061 99.5982L413.28 97.3443L411.445 96.2793L412.212 95.8839L413.526 96.7009L413.613 95.1624L414.362 94.7763L414.168 96.935L416.127 98.0189ZM419.192 96.4396L418.398 96.8488L416.997 96.0001L416.872 97.635L416.127 98.0189L416.346 95.765L414.51 94.7L415.278 94.3045L416.591 95.1215L416.678 93.5831L417.428 93.1969L417.234 95.3557L419.192 96.4396ZM422.258 94.8602L421.463 95.2695L420.062 94.4208L419.937 96.0557L419.192 96.4396L419.411 94.1856L417.576 93.1206L418.343 92.7252L419.657 93.5422L419.744 92.0038L420.493 91.6176L420.299 93.7764L422.258 94.8602ZM426.517 92.6658L425.722 93.0751L424.322 92.2264L424.196 93.8613L423.451 94.2451L423.67 91.9912L421.835 90.9262L422.602 90.5308L423.916 91.3478L424.003 89.8093L424.752 89.4232L424.558 91.5819L426.517 92.6658ZM429.582 91.0865L428.788 91.4957L427.387 90.647L427.262 92.2819L426.517 92.6658L426.736 90.4119L424.9 89.3469L425.668 88.9515L426.981 89.7685L427.068 88.23L427.818 87.8438L427.624 90.0026L429.582 91.0865ZM432.648 89.5071L431.853 89.9164L430.453 89.0677L430.327 90.7026L429.582 91.0865L429.801 88.8325L427.966 87.7675L428.733 87.3721L430.047 88.1891L430.134 86.6507L430.883 86.2645L430.689 88.4233L432.648 89.5071Z" fill="white"/>
<path d="M468.45 93.7069L468.897 95.9254L468.469 96.1746L466.765 94.6886L467.162 94.4577L468.15 95.3569C468.166 95.372 468.196 95.4014 468.24 95.4451C468.283 95.4879 468.328 95.5341 468.374 95.5836C468.422 95.6318 468.459 95.673 468.485 95.7073C468.469 95.6671 468.45 95.6151 468.43 95.5512C468.411 95.4867 468.393 95.4255 468.376 95.3674C468.36 95.3081 468.349 95.2669 468.343 95.2441L468.054 93.9378L468.45 93.7069ZM470.892 94.7623L470.502 94.3997L469.828 94.7928L469.95 95.3117L469.527 95.5581L469.1 93.318L469.58 93.0385L471.315 94.5159L470.892 94.7623ZM470.217 94.1249L469.833 93.7724C469.808 93.7486 469.775 93.7185 469.735 93.6821C469.695 93.6444 469.654 93.6065 469.613 93.5684C469.572 93.529 469.537 93.4944 469.509 93.4647C469.52 93.5042 469.533 93.5542 469.548 93.6145C469.563 93.6736 469.577 93.7298 469.59 93.7833C469.603 93.8367 469.612 93.8749 469.618 93.8978L469.735 94.4059L470.217 94.1249ZM471.549 94.3795L470.474 92.5276L470.866 92.299L471.753 93.8266L472.504 93.3893L472.692 93.7135L471.549 94.3795ZM473.015 93.5255L471.939 91.6736L472.332 91.4449L473.407 93.2968L473.015 93.5255ZM474.86 91.1871C474.981 91.3957 475.042 91.5934 475.044 91.7803C475.045 91.9659 474.991 92.1381 474.881 92.2971C474.771 92.4552 474.61 92.5962 474.397 92.7201L473.873 93.0254L472.797 91.1735L473.378 90.835C473.572 90.7219 473.761 90.6585 473.944 90.6446C474.126 90.6299 474.296 90.6673 474.453 90.7566C474.609 90.8452 474.745 90.9887 474.86 91.1871ZM474.458 91.4347C474.379 91.2979 474.294 91.1974 474.202 91.1332C474.111 91.0676 474.014 91.0366 473.911 91.0401C473.809 91.0431 473.7 91.0781 473.585 91.1449L473.377 91.2666L474.077 92.4725L474.245 92.3744C474.437 92.2628 474.549 92.1289 474.583 91.9726C474.617 91.8159 474.576 91.6366 474.458 91.4347Z" fill="white"/>
<path d="M466.347 104.905L465.6 105.34L464.205 104.591L464.166 106.176L463.465 106.584L463.564 104.396L461.738 103.46L462.459 103.039L463.769 103.763L463.776 102.272L464.48 101.862L464.401 103.957L466.347 104.905ZM469.228 103.226L468.482 103.661L467.086 102.912L467.047 104.497L466.347 104.905L466.445 102.717L464.619 101.781L465.341 101.36L466.65 102.084L466.657 100.593L467.362 100.183L467.282 102.277L469.228 103.226ZM468.837 102.256L468.53 101.728L469.663 101.068L469.97 101.596L468.837 102.256ZM473.502 100.736L472.755 101.171L471.36 100.421L471.321 102.007L470.62 102.415L470.719 100.227L468.893 99.2903L469.615 98.8699L470.924 99.5932L470.931 98.1029L471.635 97.6923L471.556 99.7871L473.502 100.736ZM476.383 99.0567L475.637 99.4918L474.241 98.7423L474.202 100.328L473.502 100.736L473.6 98.5478L471.775 97.6112L472.496 97.1908L473.805 97.9141L473.812 96.4238L474.517 96.0132L474.438 98.108L476.383 99.0567Z" fill="white"/>
<path d="M433.897 62.2253C437.578 62.2253 440.562 59.2365 440.562 55.5495C440.562 51.8626 437.578 48.8738 433.897 48.8738C430.216 48.8738 427.232 51.8626 427.232 55.5495C427.232 59.2365 430.216 62.2253 433.897 62.2253Z" fill="#2673A8"/>
<path d="M441.986 57.7695C445.667 57.7695 448.651 54.7806 448.651 51.0937C448.651 47.4068 445.667 44.418 441.986 44.418C438.305 44.418 435.321 47.4068 435.321 51.0937C435.321 54.7806 438.305 57.7695 441.986 57.7695Z" fill="#2776B7"/>
</g>
<path d="M289.696 56.4893C288.612 66.2923 280.071 73.2435 270.607 72.0283C261.144 70.8131 254.366 61.885 255.433 52.0983C256.517 42.2953 265.059 35.344 274.522 36.5593C279.246 37.1588 283.306 39.7027 286.056 43.3161C288.806 46.9294 290.23 51.6122 289.68 56.5055L289.696 56.4893Z" fill="#FCAF15"/>
<path d="M286.396 56.457C285.312 64.3642 278.259 69.7923 270.623 68.6094C262.988 67.4104 257.682 60.0379 258.766 52.1307C259.85 44.2235 266.903 38.7954 274.538 39.9782C278.356 40.5777 281.591 42.7166 283.727 45.698C285.878 48.6794 286.93 52.5034 286.396 56.457Z" fill="#FECA57"/>
<mask id="mask2_2063_5613" style="mask-type:luminance" maskUnits="userSpaceOnUse" x="258" y="39" width="29" height="30">
<path d="M286.396 56.457C285.312 64.3642 278.259 69.7923 270.623 68.6094C262.988 67.4104 257.682 60.0379 258.766 52.1307C259.85 44.2235 266.903 38.7954 274.538 39.9782C278.356 40.5777 281.591 42.7166 283.727 45.698C285.878 48.6794 286.93 52.5034 286.396 56.457Z" fill="white"/>
</mask>
<g mask="url(#mask2_2063_5613)">
<path opacity="0.02" d="M287.172 56.7972C287.739 52.6977 286.719 48.7279 284.633 45.5359C285.539 47.9988 285.878 50.7209 285.49 53.4917C284.293 62.2415 276.48 68.2529 268.035 66.9242C263.554 66.2275 259.817 63.5864 257.455 59.9568C259.397 65.2391 263.959 69.3223 269.718 70.2135C278.162 71.5422 285.975 65.5146 287.172 56.781V56.7972Z" fill="black"/>
<path opacity="0.13" d="M257.375 59.1466C258.523 63.1326 261.031 66.3085 264.217 68.3177C262.406 66.4705 260.998 64.1372 260.222 61.4313C257.779 52.9408 262.406 44.0613 270.575 41.5984C274.91 40.286 279.359 41.0799 282.95 43.3484C279.068 39.3786 273.293 37.6286 267.728 39.3138C259.558 41.7767 254.916 50.6561 257.375 59.1466Z" fill="white"/>
</g>
<path d="M271.254 54.0447L271.5 53.0588C271.067 52.9405 270.688 52.8025 270.363 52.6449C270.042 52.4849 269.756 52.3076 269.506 52.1132L269.828 50.8183C270.072 51.0217 270.374 51.2272 270.732 51.4346C271.091 51.6388 271.442 51.796 271.786 51.9062L272.165 50.3857C271.698 50.054 271.334 49.7546 271.07 49.4875C270.811 49.2179 270.642 48.9498 270.562 48.6834C270.487 48.4145 270.489 48.1166 270.571 47.7896C270.654 47.4561 270.814 47.1904 271.05 46.9924C271.291 46.7921 271.588 46.6579 271.942 46.5899C272.296 46.5219 272.685 46.5217 273.109 46.5893L273.296 45.8389L273.967 46.0065L273.786 46.7374C274.162 46.8451 274.504 46.9773 274.812 47.1341C275.124 47.2885 275.421 47.4755 275.704 47.6952L274.957 48.7279C274.717 48.5499 274.469 48.3959 274.213 48.2661C273.96 48.137 273.717 48.0329 273.483 47.9538L273.123 49.4007C273.453 49.6253 273.761 49.8569 274.049 50.0954C274.337 50.334 274.554 50.5999 274.7 50.8933C274.846 51.1867 274.87 51.5295 274.772 51.9219C274.651 52.4091 274.371 52.7734 273.933 53.0147C273.497 53.2569 272.912 53.3209 272.176 53.2068L271.926 54.2123L271.254 54.0447ZM272.467 52.0395C272.705 52.0573 272.89 52.0323 273.022 51.9644C273.154 51.8933 273.239 51.7808 273.278 51.6271C273.3 51.5356 273.296 51.4477 273.265 51.3635C273.234 51.2794 273.175 51.1936 273.09 51.1062C273.008 51.0163 272.901 50.9203 272.771 50.8182L272.467 52.0395ZM272.52 48.9584L272.806 47.8057C272.667 47.7919 272.545 47.796 272.439 47.8182C272.333 47.837 272.248 47.8746 272.181 47.9311C272.115 47.9875 272.07 48.0631 272.047 48.158C272.023 48.2528 272.024 48.3415 272.048 48.424C272.076 48.5074 272.128 48.5915 272.204 48.6765C272.284 48.7623 272.389 48.8562 272.52 48.9584Z" fill="white"/>
<path d="M393.649 60.9453C395.38 59.5843 399.99 60.6213 402.87 64.4777C405.765 68.334 406.801 72.6441 404.035 74.7343" stroke="#212121" stroke-width="0.5" stroke-linecap="round" stroke-linejoin="round"/>
<path d="M400.087 60.9453H308.866C307.383 60.9453 306.18 62.1496 306.18 63.6351V141.719C306.18 143.204 307.383 144.408 308.866 144.408H400.087C401.571 144.408 402.773 143.204 402.773 141.719V63.6351C402.773 62.1496 401.571 60.9453 400.087 60.9453Z" fill="#FECA57"/>
<path opacity="0.4" d="M355.698 82.0745H353.271V152.964H355.698V82.0745Z" fill="#F9A40D"/>
<path d="M367.976 60.9453H340.993V98.4073H367.976V60.9453Z" fill="#FCAF15"/>
<path d="M416.588 76.5975C416.442 76.0952 416.135 75.6578 415.714 75.3499L407.626 69.2575C407.011 68.8038 406.218 68.6579 405.49 68.8686L399.214 70.6995C398.437 70.9264 397.839 71.5097 397.58 72.2875L394.425 81.9932C394.28 82.4631 394.264 82.9492 394.409 83.4191L400.298 103.706C400.67 105.002 402.012 105.731 403.307 105.358L421.02 100.206C422.314 99.8331 423.059 98.472 422.67 97.1757L416.572 76.5975H416.588ZM404.455 76.1925C403.387 76.5003 402.255 75.8846 401.948 74.8152C401.64 73.7458 402.255 72.6115 403.323 72.3037C404.39 71.9958 405.523 72.6115 405.83 73.681C406.138 74.7504 405.523 75.8846 404.455 76.1925Z" fill="#FCAF15"/>
<path d="M404.245 75.0746C404.245 75.0746 404.164 75.1232 404.002 75.2366C403.857 75.3338 403.614 75.4958 403.21 75.6417C402.482 75.9495 401.301 76.063 400.087 75.6093C398.874 75.1718 397.661 74.2968 396.577 73.2112C395.461 72.1418 394.49 70.8131 393.552 69.5168C392.63 68.2044 391.659 66.8433 391.239 65.2554C391.028 64.4776 391.044 63.6188 391.319 62.8897C391.594 62.1605 392.047 61.5772 392.533 61.1559C393.018 60.6698 393.6 60.4268 394.07 60.2485C394.312 60.1675 394.587 60.0703 394.83 60.0865C395.056 60.0865 395.267 60.1513 395.445 60.1513C396.156 60.1999 396.577 60.2323 396.577 60.2323C396.723 60.2323 396.836 60.362 396.836 60.524C396.836 60.6698 396.706 60.7832 396.545 60.7832C396.545 60.7832 396.156 60.7346 395.461 60.7832C395.299 60.7832 395.105 60.8481 394.911 60.8805C394.733 60.9129 394.571 60.9453 394.345 61.0263C393.924 61.1883 393.455 61.3828 393.083 61.7716C392.662 62.1443 392.306 62.6304 392.08 63.1813C391.869 63.7484 391.853 64.4128 392.015 65.0771C392.355 66.4382 393.277 67.7669 394.199 69.0631C395.153 70.3594 396.075 71.6395 397.143 72.6603C398.178 73.6973 399.311 74.4912 400.362 74.8639C401.414 75.2528 402.352 75.1556 402.918 74.9125C403.177 74.8153 403.404 74.6857 403.565 74.5722C403.727 74.475 403.808 74.4102 403.808 74.4102C404.002 74.2968 404.245 74.3454 404.374 74.5398C404.487 74.7343 404.439 74.9773 404.245 75.107V75.0746Z" fill="#212121"/>
<path d="M313.929 87.7131C316.906 97.111 311.907 106.946 302.767 109.669C293.627 112.391 283.808 106.995 280.831 97.5971C277.855 88.1992 282.853 78.3638 291.993 75.6416C296.555 74.2806 301.295 74.9449 305.274 77.1323C309.238 79.3198 312.441 83.0141 313.929 87.7131Z" fill="#FCAF15"/>
<path d="M310.888 89.0256C313.088 96.6898 308.833 104.532 301.376 106.525C293.918 108.518 286.072 103.933 283.872 96.2685C281.672 88.6043 285.927 80.7619 293.384 78.7689C297.121 77.7643 300.939 78.4124 304.11 80.2758C307.28 82.123 309.788 85.2016 310.888 89.0256Z" fill="#FECA57"/>
<mask id="mask3_2063_5613" style="mask-type:luminance" maskUnits="userSpaceOnUse" x="283" y="78" width="29" height="29">
<path d="M310.888 89.0256C313.088 96.6898 308.833 104.532 301.376 106.525C293.918 108.518 286.072 103.933 283.872 96.2685C281.672 88.6043 285.927 80.7619 293.384 78.7689C297.121 77.7643 300.939 78.4124 304.11 80.2758C307.28 82.123 309.788 85.2016 310.888 89.0256Z" fill="white"/>
</mask>
<g mask="url(#mask3_2063_5613)">
<path opacity="0.02" d="M311.745 89.0095C310.597 85.0235 308.073 81.8152 304.87 79.7412C306.698 81.6208 308.105 83.9703 308.882 86.6762C311.325 95.1505 306.617 103.836 298.351 106.039C293.967 107.222 289.486 106.315 285.862 103.965C289.777 108 295.584 109.896 301.214 108.372C309.464 106.153 314.188 97.4838 311.745 89.0095Z" fill="black"/>
<path opacity="0.13" d="M285.441 103.252C288.111 106.428 291.686 108.324 295.406 108.875C292.996 107.919 290.78 106.347 288.968 104.192C283.29 97.4189 283.953 87.4215 290.424 81.8475C293.853 78.8985 298.254 77.8129 302.46 78.4286C297.299 76.3708 291.314 77.1162 286.897 80.9077C280.427 86.4655 279.78 96.4629 285.441 103.252Z" fill="white"/>
</g>
<path d="M294.637 93.7056L294.348 92.7318C293.916 92.8503 293.519 92.9246 293.159 92.9547C292.801 92.9806 292.465 92.9736 292.151 92.9338L291.771 91.6548C292.084 91.7053 292.448 91.7287 292.862 91.7248C293.275 91.7177 293.657 91.6739 294.009 91.5934L293.563 90.0916C292.993 90.0436 292.527 89.9717 292.164 89.8759C291.804 89.7759 291.522 89.6315 291.318 89.4426C291.117 89.2496 290.968 88.9916 290.872 88.6686C290.774 88.3392 290.777 88.029 290.88 87.738C290.985 87.4427 291.173 87.1757 291.443 86.9369C291.713 86.6981 292.048 86.4998 292.447 86.3419L292.227 85.6007L292.89 85.4027L293.105 86.1245C293.483 86.0257 293.845 85.9652 294.19 85.9432C294.537 85.9169 294.888 85.9265 295.243 85.9719L295.125 87.2414C294.827 87.2106 294.535 87.2045 294.249 87.2231C293.966 87.2407 293.704 87.275 293.462 87.326L293.887 88.7551C294.285 88.7806 294.669 88.8226 295.038 88.8813C295.407 88.94 295.728 89.0585 296.003 89.2368C296.277 89.4151 296.472 89.698 296.587 90.0856C296.731 90.5668 296.675 91.023 296.42 91.4542C296.168 91.8845 295.697 92.2379 295.006 92.5144L295.301 93.5076L294.637 93.7056ZM294.663 91.3615C294.877 91.2553 295.024 91.1394 295.102 91.014C295.18 90.8853 295.196 90.745 295.151 90.5932C295.124 90.5028 295.076 90.4293 295.007 90.3727C294.937 90.3161 294.843 90.272 294.725 90.2406C294.609 90.2049 294.468 90.1764 294.304 90.1552L294.663 91.3615ZM293.143 88.6818L292.805 87.5433C292.678 87.6022 292.575 87.6682 292.494 87.7414C292.413 87.8113 292.359 87.8874 292.33 87.9697C292.302 88.052 292.302 88.14 292.33 88.2336C292.358 88.3273 292.403 88.4034 292.466 88.4619C292.532 88.5195 292.62 88.5654 292.729 88.5998C292.841 88.6332 292.979 88.6606 293.143 88.6818Z" fill="white"/>
<path d="M399.773 84.0865C399.825 84.2623 399.828 84.4278 399.782 84.583C399.735 84.7382 399.641 84.8754 399.498 84.9945C399.357 85.1132 399.17 85.2073 398.937 85.2767C398.835 85.3073 398.732 85.3306 398.629 85.3465C398.528 85.3621 398.428 85.3705 398.33 85.3718C398.233 85.3714 398.138 85.3637 398.045 85.3487L397.871 84.7646C398.03 84.7848 398.193 84.7974 398.359 84.8022C398.525 84.8071 398.683 84.7873 398.832 84.7429C398.934 84.7123 399.013 84.6742 399.067 84.6286C399.122 84.5826 399.157 84.5317 399.172 84.4759C399.186 84.4201 399.184 84.3618 399.166 84.3009C399.144 84.2265 399.1 84.1705 399.034 84.1326C398.968 84.0948 398.885 84.0661 398.783 84.0463C398.683 84.0262 398.57 84.006 398.445 83.986C398.367 83.9741 398.28 83.9573 398.185 83.9355C398.09 83.9124 397.996 83.8779 397.903 83.8321C397.81 83.7863 397.725 83.7224 397.649 83.6405C397.574 83.5569 397.517 83.4475 397.477 83.3123C397.424 83.1351 397.419 82.9716 397.463 82.8217C397.507 82.6717 397.594 82.5412 397.724 82.4302C397.855 82.3174 398.024 82.2304 398.229 82.1691C398.383 82.1231 398.536 82.0976 398.686 82.0925C398.837 82.0857 398.999 82.0933 399.171 82.1154L399.114 82.6647C398.961 82.65 398.826 82.6439 398.709 82.6464C398.592 82.6476 398.477 82.6649 398.365 82.6984C398.286 82.7218 398.223 82.7546 398.175 82.7968C398.127 82.8377 398.096 82.8853 398.081 82.9398C398.066 82.9929 398.067 83.0492 398.085 83.1087C398.106 83.179 398.144 83.2324 398.199 83.269C398.255 83.3038 398.331 83.3312 398.426 83.3512C398.523 83.3708 398.643 83.3918 398.785 83.4142C398.958 83.4407 399.109 83.4772 399.239 83.5238C399.37 83.5686 399.481 83.635 399.57 83.7232C399.659 83.8099 399.727 83.9311 399.773 84.0865ZM402.37 84.2081L401.945 83.5665L400.865 83.8889L400.86 84.6589L400.182 84.861L400.343 81.5714L401.111 81.3421L403.047 84.006L402.37 84.2081ZM401.638 83.0839L401.218 82.4585C401.191 82.4165 401.155 82.3632 401.111 82.2984C401.068 82.2318 401.024 82.1648 400.978 82.0973C400.934 82.028 400.897 81.9677 400.867 81.9163C400.87 81.9757 400.872 82.0503 400.872 82.1401C400.873 82.2281 400.874 82.3118 400.874 82.3912C400.874 82.4707 400.874 82.5274 400.874 82.5613L400.866 83.3144L401.638 83.0839ZM403.422 83.8941L402.541 80.9289L403.169 80.7414L403.897 83.1873L405.099 82.8285L405.253 83.3477L403.422 83.8941ZM407.478 82.684L405.77 83.1934L404.888 80.2283L406.596 79.7188L406.749 80.234L405.67 80.5559L405.864 81.2069L406.868 80.9074L407.021 81.4225L406.017 81.722L406.245 82.4867L407.323 82.1648L407.478 82.684Z" fill="white"/>
<path d="M84.5405 181.725H15.2548C11.3885 181.725 8.23401 184.884 8.23401 188.757V237.901C8.23401 241.774 11.3885 244.934 15.2548 244.934H62.7502L74.4299 252.614C77.18 254.413 80.8522 252.565 81.0301 249.276L81.2566 244.95H84.5405C88.4068 244.95 91.5613 241.79 91.5613 237.918V188.773C91.5613 184.9 88.4068 181.741 84.5405 181.741V181.725Z" fill="#315879"/>
<path d="M274.263 375.241C274.263 375.241 277.288 413.497 263.7 434.804C259.979 440.637 264.072 448.269 270.979 448.269L372.894 443.408C380.093 443.408 385.819 441.966 381.5 436.197C372.247 423.834 368.348 394.879 370.532 373.734L274.247 375.241H274.263Z" fill="#BAD1E5"/>
<mask id="mask4_2063_5613" style="mask-type:luminance" maskUnits="userSpaceOnUse" x="262" y="373" width="121" height="76">
<path d="M274.263 375.241C274.263 375.241 277.288 413.497 263.7 434.804C259.979 440.637 264.072 448.269 270.979 448.269L372.894 443.408C380.093 443.408 385.819 441.966 381.5 436.197C372.247 423.834 368.348 394.879 370.532 373.734L274.247 375.241H274.263Z" fill="white"/>
</mask>
<g mask="url(#mask4_2063_5613)">
<path d="M393.827 382.127H270.025V401.701H393.827V382.127Z" fill="#B2C8D8"/>
</g>
<path d="M493.088 123.393H152.225C141.504 123.393 132.812 132.098 132.812 142.837V375.257C132.812 385.995 141.504 394.701 152.225 394.701H493.088C503.81 394.701 512.501 385.995 512.501 375.257V142.837C512.501 132.098 503.81 123.393 493.088 123.393Z" fill="#BAD1E5"/>
<mask id="mask5_2063_5613" style="mask-type:luminance" maskUnits="userSpaceOnUse" x="132" y="123" width="381" height="272">
<path d="M493.088 123.393H152.225C141.504 123.393 132.812 132.098 132.812 142.837V375.257C132.812 385.995 141.504 394.701 152.225 394.701H493.088C503.81 394.701 512.501 385.995 512.501 375.257V142.837C512.501 132.098 503.81 123.393 493.088 123.393Z" fill="white"/>
</mask>
<g mask="url(#mask5_2063_5613)">
<path d="M534 54.9014H108.547V347.533H534V54.9014Z" fill="#3A4149"/>
</g>
<path d="M493.558 141.217H153.842V330.795H493.558V141.217Z" fill="#FCFFFF"/>
<path d="M210.251 169.183H172.203C170.336 169.183 168.822 170.7 168.822 172.57V210.68C168.822 212.55 170.336 214.066 172.203 214.066H210.251C212.118 214.066 213.632 212.55 213.632 210.68V172.57C213.632 170.7 212.118 169.183 210.251 169.183Z" fill="#EFEFEF"/>
<path d="M208.083 219.932H174.581C174.063 219.932 173.643 219.511 173.643 218.992C173.643 218.474 174.063 218.052 174.581 218.052H208.083C208.601 218.052 209.022 218.474 209.022 218.992C209.022 219.511 208.601 219.932 208.083 219.932Z" fill="#EFEFEF"/>
<path d="M207.631 231.42H174.743C172.365 231.42 170.424 229.476 170.424 227.094C170.424 224.712 172.365 222.768 174.743 222.768H207.631C210.009 222.768 211.95 224.712 211.95 227.094C211.95 229.476 210.009 231.42 207.631 231.42Z" fill="#6B95B8"/>
<path d="M169.34 178.76C172.913 178.76 175.811 175.858 175.811 172.278C175.811 168.699 172.913 165.797 169.34 165.797C165.766 165.797 162.869 168.699 162.869 172.278C162.869 175.858 165.766 178.76 169.34 178.76Z" fill="#6B95B8"/>
<path d="M168.8 172.119V171.638C168.588 171.633 168.398 171.613 168.23 171.578C168.064 171.541 167.913 171.493 167.776 171.432V170.8C167.911 170.866 168.073 170.926 168.261 170.98C168.45 171.032 168.629 171.064 168.8 171.076V170.334C168.548 170.235 168.346 170.139 168.194 170.047C168.044 169.953 167.936 169.849 167.869 169.736C167.804 169.621 167.771 169.484 167.771 169.324C167.771 169.161 167.814 169.021 167.9 168.903C167.988 168.783 168.109 168.688 168.264 168.616C168.418 168.544 168.597 168.5 168.8 168.482V168.116H169.127V168.472C169.312 168.479 169.485 168.5 169.644 168.537C169.805 168.572 169.963 168.624 170.118 168.693L169.893 169.252C169.762 169.198 169.631 169.156 169.498 169.126C169.367 169.095 169.244 169.075 169.127 169.066V169.772C169.304 169.837 169.473 169.908 169.632 169.985C169.792 170.061 169.922 170.158 170.022 170.276C170.123 170.394 170.173 170.549 170.173 170.741C170.173 170.978 170.086 171.178 169.912 171.339C169.74 171.5 169.478 171.596 169.127 171.628V172.119H168.8ZM169.127 171.059C169.239 171.04 169.321 171.007 169.374 170.961C169.427 170.913 169.453 170.851 169.453 170.776C169.453 170.732 169.441 170.692 169.417 170.657C169.393 170.622 169.356 170.589 169.307 170.559C169.259 170.527 169.199 170.495 169.127 170.463V171.059ZM168.8 169.638V169.075C168.734 169.085 168.678 169.101 168.632 169.123C168.586 169.144 168.551 169.171 168.527 169.205C168.503 169.238 168.491 169.278 168.491 169.324C168.491 169.37 168.501 169.411 168.522 169.446C168.544 169.481 168.578 169.514 168.623 169.544C168.669 169.575 168.728 169.606 168.8 169.638Z" fill="#FCFFFF"/>
<path d="M210.251 250.459H172.203C170.336 250.459 168.822 251.975 168.822 253.846V291.956C168.822 293.826 170.336 295.342 172.203 295.342H210.251C212.118 295.342 213.632 293.826 213.632 291.956V253.846C213.632 251.975 212.118 250.459 210.251 250.459Z" fill="#EFEFEF"/>
<path d="M208.083 301.208H174.581C174.063 301.208 173.643 300.787 173.643 300.268C173.643 299.75 174.063 299.328 174.581 299.328H208.083C208.601 299.328 209.022 299.75 209.022 300.268C209.022 300.787 208.601 301.208 208.083 301.208Z" fill="#EFEFEF"/>
<path d="M207.631 312.712H174.743C172.365 312.712 170.424 310.768 170.424 308.386C170.424 306.004 172.365 304.06 174.743 304.06H207.631C210.009 304.06 211.95 306.004 211.95 308.386C211.95 310.768 210.009 312.712 207.631 312.712Z" fill="#6B95B8"/>
<path d="M169.34 260.052C172.913 260.052 175.811 257.15 175.811 253.57C175.811 249.991 172.913 247.089 169.34 247.089C165.766 247.089 162.869 249.991 162.869 253.57C162.869 257.15 165.766 260.052 169.34 260.052Z" fill="#6B95B8"/>
<path d="M277.256 169.183H239.208C237.341 169.183 235.827 170.7 235.827 172.57V210.68C235.827 212.55 237.341 214.066 239.208 214.066H277.256C279.123 214.066 280.637 212.55 280.637 210.68V172.57C280.637 170.7 279.123 169.183 277.256 169.183Z" fill="#EFEFEF"/>
<path d="M275.072 219.932H241.57C241.052 219.932 240.632 219.511 240.632 218.992C240.632 218.474 241.052 218.052 241.57 218.052H275.072C275.59 218.052 276.01 218.474 276.01 218.992C276.01 219.511 275.59 219.932 275.072 219.932Z" fill="#EFEFEF"/>
<path d="M274.619 231.42H241.732C239.354 231.42 237.412 229.476 237.412 227.094C237.412 224.712 239.354 222.768 241.732 222.768H274.619C276.997 222.768 278.938 224.712 278.938 227.094C278.938 229.476 276.997 231.42 274.619 231.42Z" fill="#6B95B8"/>
<path d="M236.345 178.76C239.918 178.76 242.815 175.858 242.815 172.278C242.815 168.699 239.918 165.797 236.345 165.797C232.771 165.797 229.874 168.699 229.874 172.278C229.874 175.858 232.771 178.76 236.345 178.76Z" fill="#6B95B8"/>
<path d="M235.788 172.119V171.638C235.576 171.633 235.386 171.613 235.219 171.578C235.053 171.541 234.902 171.493 234.764 171.432V170.8C234.9 170.866 235.062 170.926 235.25 170.98C235.438 171.032 235.618 171.064 235.788 171.076V170.334C235.536 170.235 235.335 170.139 235.183 170.047C235.033 169.953 234.925 169.849 234.858 169.736C234.792 169.621 234.76 169.484 234.76 169.324C234.76 169.161 234.803 169.021 234.889 168.903C234.977 168.783 235.098 168.688 235.252 168.616C235.407 168.544 235.586 168.5 235.788 168.482V168.116H236.116V168.472C236.301 168.479 236.474 168.5 236.633 168.537C236.794 168.572 236.952 168.624 237.107 168.693L236.882 169.252C236.751 169.198 236.619 169.156 236.487 169.126C236.356 169.095 236.233 169.075 236.116 169.066V169.772C236.293 169.837 236.462 169.908 236.621 169.985C236.781 170.061 236.911 170.158 237.011 170.276C237.112 170.394 237.162 170.549 237.162 170.741C237.162 170.978 237.075 171.178 236.901 171.339C236.729 171.5 236.467 171.596 236.116 171.628V172.119H235.788ZM236.116 171.059C236.228 171.04 236.31 171.007 236.363 170.961C236.415 170.913 236.442 170.851 236.442 170.776C236.442 170.732 236.43 170.692 236.406 170.657C236.382 170.622 236.345 170.589 236.296 170.559C236.248 170.527 236.188 170.495 236.116 170.463V171.059ZM235.788 169.638V169.075C235.723 169.085 235.667 169.101 235.621 169.123C235.575 169.144 235.54 169.171 235.516 169.205C235.492 169.238 235.48 169.278 235.48 169.324C235.48 169.37 235.49 169.411 235.511 169.446C235.533 169.481 235.567 169.514 235.611 169.544C235.658 169.575 235.717 169.606 235.788 169.638Z" fill="#FCFFFF"/>
<path d="M277.256 250.459H239.208C237.341 250.459 235.827 251.975 235.827 253.846V291.956C235.827 293.826 237.341 295.342 239.208 295.342H277.256C279.123 295.342 280.637 293.826 280.637 291.956V253.846C280.637 251.975 279.123 250.459 277.256 250.459Z" fill="#EFEFEF"/>
<path d="M275.072 301.208H241.57C241.052 301.208 240.632 300.787 240.632 300.268C240.632 299.75 241.052 299.328 241.57 299.328H275.072C275.59 299.328 276.01 299.75 276.01 300.268C276.01 300.787 275.59 301.208 275.072 301.208Z" fill="#EFEFEF"/>
<path d="M274.619 312.712H241.732C239.354 312.712 237.412 310.768 237.412 308.386C237.412 306.004 239.354 304.06 241.732 304.06H274.619C276.997 304.06 278.938 306.004 278.938 308.386C278.938 310.768 276.997 312.712 274.619 312.712Z" fill="#6B95B8"/>
<path d="M236.345 260.052C239.918 260.052 242.815 257.15 242.815 253.57C242.815 249.991 239.918 247.089 236.345 247.089C232.771 247.089 229.874 249.991 229.874 253.57C229.874 257.15 232.771 260.052 236.345 260.052Z" fill="#6B95B8"/>
<path d="M345.053 169.183H307.005C305.138 169.183 303.624 170.7 303.624 172.57V210.68C303.624 212.55 305.138 214.066 307.005 214.066H345.053C346.921 214.066 348.434 212.55 348.434 210.68V172.57C348.434 170.7 346.921 169.183 345.053 169.183Z" fill="#EFEFEF"/>
<path d="M342.886 219.932H309.383C308.866 219.932 308.445 219.511 308.445 218.992C308.445 218.474 308.866 218.052 309.383 218.052H342.886C343.403 218.052 343.824 218.474 343.824 218.992C343.824 219.511 343.403 219.932 342.886 219.932Z" fill="#EFEFEF"/>
<path d="M342.433 231.42H309.545C307.167 231.42 305.226 229.476 305.226 227.094C305.226 224.712 307.167 222.768 309.545 222.768H342.433C344.811 222.768 346.752 224.712 346.752 227.094C346.752 229.476 344.811 231.42 342.433 231.42Z" fill="#6B95B8"/>
<path d="M304.142 178.76C307.716 178.76 310.613 175.858 310.613 172.278C310.613 168.699 307.716 165.797 304.142 165.797C300.568 165.797 297.671 168.699 297.671 172.278C297.671 175.858 300.568 178.76 304.142 178.76Z" fill="#6B95B8"/>
<path d="M303.602 172.119V171.638C303.39 171.633 303.2 171.613 303.032 171.578C302.867 171.541 302.715 171.493 302.578 171.432V170.8C302.713 170.866 302.875 170.926 303.064 170.98C303.252 171.032 303.431 171.064 303.602 171.076V170.334C303.35 170.235 303.148 170.139 302.997 170.047C302.847 169.953 302.738 169.849 302.671 169.736C302.606 169.621 302.573 169.484 302.573 169.324C302.573 169.161 302.616 169.021 302.702 168.903C302.79 168.783 302.911 168.688 303.066 168.616C303.221 168.544 303.399 168.5 303.602 168.482V168.116H303.93V168.472C304.115 168.479 304.287 168.5 304.446 168.537C304.608 168.572 304.765 168.624 304.92 168.693L304.695 169.252C304.565 169.198 304.433 169.156 304.301 169.126C304.17 169.095 304.046 169.075 303.93 169.066V169.772C304.107 169.837 304.275 169.908 304.435 169.985C304.594 170.061 304.724 170.158 304.825 170.276C304.925 170.394 304.975 170.549 304.975 170.741C304.975 170.978 304.888 171.178 304.714 171.339C304.542 171.5 304.281 171.596 303.93 171.628V172.119H303.602ZM303.93 171.059C304.041 171.04 304.123 171.007 304.176 170.961C304.229 170.913 304.255 170.851 304.255 170.776C304.255 170.732 304.243 170.692 304.219 170.657C304.195 170.622 304.159 170.589 304.109 170.559C304.061 170.527 304.001 170.495 303.93 170.463V171.059ZM303.602 169.638V169.075C303.537 169.085 303.481 169.101 303.434 169.123C303.388 169.144 303.353 169.171 303.329 169.205C303.305 169.238 303.293 169.278 303.293 169.324C303.293 169.37 303.304 169.411 303.324 169.446C303.347 169.481 303.38 169.514 303.425 169.544C303.471 169.575 303.53 169.606 303.602 169.638Z" fill="#FCFFFF"/>
<path d="M345.053 250.459H307.005C305.138 250.459 303.624 251.975 303.624 253.846V291.956C303.624 293.826 305.138 295.342 307.005 295.342H345.053C346.921 295.342 348.434 293.826 348.434 291.956V253.846C348.434 251.975 346.921 250.459 345.053 250.459Z" fill="#EFEFEF"/>
<path d="M342.886 301.208H309.383C308.866 301.208 308.445 300.787 308.445 300.268C308.445 299.75 308.866 299.328 309.383 299.328H342.886C343.403 299.328 343.824 299.75 343.824 300.268C343.824 300.787 343.403 301.208 342.886 301.208Z" fill="#EFEFEF"/>
<path d="M342.433 312.712H309.545C307.167 312.712 305.226 310.768 305.226 308.386C305.226 306.004 307.167 304.06 309.545 304.06H342.433C344.811 304.06 346.752 306.004 346.752 308.386C346.752 310.768 344.811 312.712 342.433 312.712Z" fill="#6B95B8"/>
<path d="M304.142 260.052C307.716 260.052 310.613 257.15 310.613 253.57C310.613 249.991 307.716 247.089 304.142 247.089C300.568 247.089 297.671 249.991 297.671 253.57C297.671 257.15 300.568 260.052 304.142 260.052Z" fill="#6B95B8"/>
<path d="M412.058 169.183H374.01C372.143 169.183 370.629 170.7 370.629 172.57V210.68C370.629 212.55 372.143 214.066 374.01 214.066H412.058C413.925 214.066 415.439 212.55 415.439 210.68V172.57C415.439 170.7 413.925 169.183 412.058 169.183Z" fill="#EFEFEF"/>
<path d="M409.89 219.932H376.388C375.87 219.932 375.45 219.511 375.45 218.992C375.45 218.474 375.87 218.052 376.388 218.052H409.89C410.408 218.052 410.829 218.474 410.829 218.992C410.829 219.511 410.408 219.932 409.89 219.932Z" fill="#EFEFEF"/>
<path d="M409.438 231.42H376.55C374.172 231.42 372.231 229.476 372.231 227.094C372.231 224.712 374.172 222.768 376.55 222.768H409.438C411.816 222.768 413.757 224.712 413.757 227.094C413.757 229.476 411.816 231.42 409.438 231.42Z" fill="#6B95B8"/>
<path d="M371.147 178.76C374.72 178.76 377.618 175.858 377.618 172.278C377.618 168.699 374.72 165.797 371.147 165.797C367.573 165.797 364.676 168.699 364.676 172.278C364.676 175.858 367.573 178.76 371.147 178.76Z" fill="#6B95B8"/>
<path d="M370.607 172.119V171.638C370.395 171.633 370.205 171.613 370.037 171.578C369.871 171.541 369.72 171.493 369.583 171.432V170.8C369.718 170.866 369.88 170.926 370.068 170.98C370.257 171.032 370.436 171.064 370.607 171.076V170.334C370.355 170.235 370.153 170.139 370.001 170.047C369.851 169.953 369.743 169.849 369.676 169.736C369.611 169.621 369.578 169.484 369.578 169.324C369.578 169.161 369.621 169.021 369.707 168.903C369.795 168.783 369.916 168.688 370.071 168.616C370.225 168.544 370.404 168.5 370.607 168.482V168.116H370.934V168.472C371.119 168.479 371.292 168.5 371.451 168.537C371.612 168.572 371.77 168.624 371.925 168.693L371.7 169.252C371.569 169.198 371.438 169.156 371.305 169.126C371.175 169.095 371.051 169.075 370.934 169.066V169.772C371.111 169.837 371.28 169.908 371.439 169.985C371.599 170.061 371.729 170.158 371.829 170.276C371.93 170.394 371.98 170.549 371.98 170.741C371.98 170.978 371.893 171.178 371.719 171.339C371.547 171.5 371.285 171.596 370.934 171.628V172.119H370.607ZM370.934 171.059C371.046 171.04 371.128 171.007 371.181 170.961C371.234 170.913 371.26 170.851 371.26 170.776C371.26 170.732 371.248 170.692 371.224 170.657C371.2 170.622 371.163 170.589 371.114 170.559C371.066 170.527 371.006 170.495 370.934 170.463V171.059ZM370.607 169.638V169.075C370.541 169.085 370.485 169.101 370.439 169.123C370.393 169.144 370.358 169.171 370.334 169.205C370.31 169.238 370.298 169.278 370.298 169.324C370.298 169.37 370.308 169.411 370.329 169.446C370.351 169.481 370.385 169.514 370.43 169.544C370.476 169.575 370.535 169.606 370.607 169.638Z" fill="#FCFFFF"/>
<path d="M412.058 250.459H374.01C372.143 250.459 370.629 251.975 370.629 253.846V291.956C370.629 293.826 372.143 295.342 374.01 295.342H412.058C413.925 295.342 415.439 293.826 415.439 291.956V253.846C415.439 251.975 413.925 250.459 412.058 250.459Z" fill="#EFEFEF"/>
<path d="M409.89 301.208H376.388C375.87 301.208 375.45 300.787 375.45 300.268C375.45 299.75 375.87 299.328 376.388 299.328H409.89C410.408 299.328 410.829 299.75 410.829 300.268C410.829 300.787 410.408 301.208 409.89 301.208Z" fill="#EFEFEF"/>
<path d="M409.438 312.712H376.55C374.172 312.712 372.231 310.768 372.231 308.386C372.231 306.004 374.172 304.06 376.55 304.06H409.438C411.816 304.06 413.757 306.004 413.757 308.386C413.757 310.768 411.816 312.712 409.438 312.712Z" fill="#6B95B8"/>
<path d="M371.147 260.052C374.72 260.052 377.618 257.15 377.618 253.57C377.618 249.991 374.72 247.089 371.147 247.089C367.573 247.089 364.676 249.991 364.676 253.57C364.676 257.15 367.573 260.052 371.147 260.052Z" fill="#6B95B8"/>
<path d="M474.615 169.183H436.566C434.699 169.183 433.185 170.7 433.185 172.57V210.68C433.185 212.55 434.699 214.066 436.566 214.066H474.615C476.482 214.066 477.996 212.55 477.996 210.68V172.57C477.996 170.7 476.482 169.183 474.615 169.183Z" fill="#EFEFEF"/>
<path d="M472.431 219.932H438.928C438.411 219.932 437.99 219.511 437.99 218.992C437.99 218.474 438.411 218.052 438.928 218.052H472.431C472.948 218.052 473.369 218.474 473.369 218.992C473.369 219.511 472.948 219.932 472.431 219.932Z" fill="#EFEFEF"/>
<path d="M471.978 231.42H439.09C436.712 231.42 434.771 229.476 434.771 227.094C434.771 224.712 436.712 222.768 439.09 222.768H471.978C474.356 222.768 476.297 224.712 476.297 227.094C476.297 229.476 474.356 231.42 471.978 231.42Z" fill="#6B95B8"/>
<path d="M433.703 178.76C437.277 178.76 440.174 175.858 440.174 172.278C440.174 168.699 437.277 165.797 433.703 165.797C430.129 165.797 427.232 168.699 427.232 172.278C427.232 175.858 430.129 178.76 433.703 178.76Z" fill="#6B95B8"/>
<path d="M433.147 172.119V171.638C432.935 171.633 432.745 171.613 432.577 171.578C432.411 171.541 432.26 171.493 432.123 171.432V170.8C432.258 170.866 432.42 170.926 432.608 170.98C432.797 171.032 432.976 171.064 433.147 171.076V170.334C432.895 170.235 432.693 170.139 432.541 170.047C432.391 169.953 432.283 169.849 432.216 169.736C432.151 169.621 432.118 169.484 432.118 169.324C432.118 169.161 432.161 169.021 432.247 168.903C432.335 168.783 432.456 168.688 432.611 168.616C432.765 168.544 432.944 168.5 433.147 168.482V168.116H433.474V168.472C433.66 168.479 433.832 168.5 433.991 168.537C434.152 168.572 434.31 168.624 434.465 168.693L434.24 169.252C434.109 169.198 433.978 169.156 433.845 169.126C433.715 169.095 433.591 169.075 433.474 169.066V169.772C433.652 169.837 433.82 169.908 433.979 169.985C434.139 170.061 434.269 170.158 434.369 170.276C434.47 170.394 434.52 170.549 434.52 170.741C434.52 170.978 434.433 171.178 434.259 171.339C434.087 171.5 433.825 171.596 433.474 171.628V172.119H433.147ZM433.474 171.059C433.586 171.04 433.668 171.007 433.721 170.961C433.774 170.913 433.8 170.851 433.8 170.776C433.8 170.732 433.788 170.692 433.764 170.657C433.74 170.622 433.703 170.589 433.654 170.559C433.606 170.527 433.546 170.495 433.474 170.463V171.059ZM433.147 169.638V169.075C433.081 169.085 433.025 169.101 432.979 169.123C432.933 169.144 432.898 169.171 432.874 169.205C432.85 169.238 432.838 169.278 432.838 169.324C432.838 169.37 432.848 169.411 432.869 169.446C432.891 169.481 432.925 169.514 432.97 169.544C433.016 169.575 433.075 169.606 433.147 169.638Z" fill="#FCFFFF"/>
<path d="M474.615 250.459H436.566C434.699 250.459 433.185 251.975 433.185 253.846V291.956C433.185 293.826 434.699 295.342 436.566 295.342H474.615C476.482 295.342 477.996 293.826 477.996 291.956V253.846C477.996 251.975 476.482 250.459 474.615 250.459Z" fill="#EFEFEF"/>
<path d="M472.431 301.208H438.928C438.411 301.208 437.99 300.787 437.99 300.268C437.99 299.75 438.411 299.328 438.928 299.328H472.431C472.948 299.328 473.369 299.75 473.369 300.268C473.369 300.787 472.948 301.208 472.431 301.208Z" fill="#EFEFEF"/>
<path d="M471.978 312.712H439.09C436.712 312.712 434.771 310.768 434.771 308.386C434.771 306.004 436.712 304.06 439.09 304.06H471.978C474.356 304.06 476.297 306.004 476.297 308.386C476.297 310.768 474.356 312.712 471.978 312.712Z" fill="#6B95B8"/>
<path d="M433.703 260.052C437.277 260.052 440.174 257.15 440.174 253.57C440.174 249.991 437.277 247.089 433.703 247.089C430.129 247.089 427.232 249.991 427.232 253.57C427.232 257.15 430.129 260.052 433.703 260.052Z" fill="#6B95B8"/>
<path d="M379.268 448.269H266.029C262.034 448.269 258.75 444.996 258.75 440.978C258.75 436.959 262.017 433.686 266.029 433.686H379.268C383.263 433.686 386.547 436.959 386.547 440.978C386.547 444.996 383.28 448.269 379.268 448.269Z" fill="#B2C8D8"/>
<path opacity="0.3" d="M322.648 383.456C329.349 383.456 334.781 378.015 334.781 371.303C334.781 364.592 329.349 359.151 322.648 359.151C315.948 359.151 310.516 364.592 310.516 371.303C310.516 378.015 315.948 383.456 322.648 383.456Z" fill="#FFFFFD"/>
<path d="M153.842 141.217L100.232 193.164L529.325 193.683L493.558 141.217H153.842Z" fill="#2776B7"/>
<mask id="mask6_2063_5613" style="mask-type:luminance" maskUnits="userSpaceOnUse" x="100" y="141" width="430" height="53">
<path d="M153.842 141.217L100.232 193.164L529.325 193.683L493.558 141.217H153.842Z" fill="white"/>
</mask>
<g mask="url(#mask6_2063_5613)">
<path d="M132.699 193.764L175.261 140.082L200.367 140.941L165.732 193.764H132.699Z" fill="#55A9E1"/>
<path d="M198.523 193.764L223.435 138.332L248.267 140.066L231.556 193.764H198.523Z" fill="#55A9E1"/>
<path d="M265.495 193.764L278.291 138.899L302.541 139.483L298.512 193.764H265.495Z" fill="#55A9E1"/>
<path d="M364.595 193.18L351.799 138.332L327.55 138.899L331.578 193.18H364.595Z" fill="#55A9E1"/>
<path d="M495.952 193.18L458.988 138.899L434.172 138.332L462.918 193.18H495.952Z" fill="#55A9E1"/>
<path d="M430.128 193.181L405.215 137.749L380.384 139.483L397.111 193.181H430.128Z" fill="#55A9E1"/>
</g>
<path d="M133.443 193.164C133.443 202.352 126.002 209.789 116.846 209.789C107.69 209.789 100.248 202.335 100.248 193.164H133.459H133.443Z" fill="#315879"/>
<path d="M166.477 193.164C166.477 202.352 159.035 209.789 149.879 209.789C140.723 209.789 133.281 202.335 133.281 193.164H166.493H166.477Z" fill="#91A8BA"/>
<path d="M199.494 193.164C199.494 202.352 192.052 209.789 182.896 209.789C173.74 209.789 166.299 202.335 166.299 193.164H199.51H199.494Z" fill="#315879"/>
<path d="M232.527 193.164C232.527 202.352 225.086 209.789 215.929 209.789C206.773 209.789 199.332 202.335 199.332 193.164H232.543H232.527Z" fill="#91A8BA"/>
<path d="M265.544 193.164C265.544 202.352 258.103 209.789 248.947 209.789C239.79 209.789 232.349 202.335 232.349 193.164H265.56H265.544Z" fill="#315879"/>
<path d="M298.577 193.164C298.577 202.352 291.136 209.789 281.98 209.789C272.824 209.789 265.382 202.335 265.382 193.164H298.593H298.577Z" fill="#91A8BA"/>
<path d="M331.594 193.164C331.594 202.352 324.153 209.789 314.997 209.789C305.841 209.789 298.399 202.335 298.399 193.164H331.611H331.594Z" fill="#315879"/>
<path d="M364.628 193.164C364.628 202.352 357.186 209.789 348.03 209.789C338.874 209.789 331.433 202.335 331.433 193.164H364.644H364.628Z" fill="#91A8BA"/>
<path d="M397.645 193.164C397.645 202.352 390.203 209.789 381.047 209.789C371.891 209.789 364.45 202.335 364.45 193.164H397.661H397.645Z" fill="#315879"/>
<path d="M430.678 193.164C430.678 202.352 423.237 209.789 414.08 209.789C404.924 209.789 397.483 202.335 397.483 193.164H430.694H430.678Z" fill="#91A8BA"/>
<path d="M463.274 193.683C463.274 202.87 455.833 210.307 446.677 210.307C437.521 210.307 430.079 202.854 430.079 193.683H463.291H463.274Z" fill="#315879"/>
<path d="M496.308 193.683C496.308 202.87 488.866 210.307 479.71 210.307C470.554 210.307 463.113 202.854 463.113 193.683H496.324H496.308Z" fill="#91A8BA"/>
<path d="M529.325 193.683C529.325 202.87 521.883 210.307 512.727 210.307C503.571 210.307 496.13 202.854 496.13 193.683H529.341H529.325Z" fill="#315879"/>
<path d="M9.60899 176.556C10.1105 172.213 15.9503 171.209 17.8754 175.13C20.8358 171.922 26.1418 174.531 25.3977 178.841C29.6684 177.982 32.4346 183.232 29.3125 186.278C33.2758 188.093 32.4346 193.975 28.1154 194.59C30.2507 198.398 26.1256 202.659 22.2593 200.618C21.7579 204.96 15.918 205.965 13.9929 202.044C11.0326 205.252 5.72653 202.643 6.47067 198.333C2.19996 199.192 -0.566292 193.942 2.55585 190.896C-1.40749 189.081 -0.566293 183.199 3.75294 182.584C1.61759 178.776 5.7427 174.514 9.60899 176.556Z" fill="#FCAF15"/>
<mask id="mask7_2063_5613" style="mask-type:luminance" maskUnits="userSpaceOnUse" x="0" y="172" width="32" height="33">
<path d="M9.60899 176.556C10.1105 172.213 15.9503 171.209 17.8754 175.13C20.8358 171.922 26.1418 174.531 25.3977 178.841C29.6684 177.982 32.4346 183.232 29.3125 186.278C33.2758 188.093 32.4346 193.975 28.1154 194.59C30.2507 198.398 26.1256 202.659 22.2593 200.618C21.7579 204.96 15.918 205.965 13.9929 202.044C11.0326 205.252 5.72653 202.643 6.47067 198.333C2.19996 199.192 -0.566292 193.942 2.55585 190.896C-1.40749 189.081 -0.566293 183.199 3.75294 182.584C1.61759 178.776 5.7427 174.514 9.60899 176.556Z" fill="white"/>
</mask>
<g mask="url(#mask7_2063_5613)">
<path opacity="0.12" d="M30.9948 186.926C34.2949 183.702 31.3831 178.16 26.8535 179.068C27.5815 174.838 22.7931 172.165 19.6063 174.514C23.7476 174.223 26.255 179.375 23.1005 182.454C27.2903 184.382 26.4006 190.588 21.8387 191.252C24.1035 195.271 19.7357 199.775 15.6591 197.62C15.1253 202.206 8.96187 203.275 6.92358 199.127C6.6971 199.37 6.47062 199.565 6.21179 199.759C6.42209 199.759 6.63239 199.727 6.84269 199.678C6.0662 204.231 11.6796 207.002 14.8017 203.599C16.84 207.747 23.0034 206.678 23.5373 202.092C27.6139 204.247 31.9816 199.743 29.7169 195.725C34.2787 195.06 35.1685 188.854 30.9786 186.926H30.9948Z" fill="white"/>
</g>
<path d="M12.6429 191.782L16.6793 182.61L18.0617 182.351L14.0253 191.523L12.6429 191.782ZM12.6539 187.908C12.2589 187.982 11.8938 187.958 11.5585 187.836C11.2218 187.707 10.9334 187.493 10.6931 187.193C10.4592 186.884 10.2996 186.501 10.2144 186.044C10.1292 185.587 10.1407 185.176 10.249 184.811C10.365 184.445 10.5567 184.14 10.8241 183.898C11.0914 183.655 11.4226 183.497 11.8176 183.423C12.2126 183.35 12.5784 183.377 12.9151 183.507C13.2518 183.636 13.5364 183.851 13.7689 184.152C14.0014 184.454 14.1603 184.833 14.2455 185.29C14.3307 185.747 14.3199 186.162 14.2131 186.534C14.1048 186.899 13.917 187.203 13.6496 187.445C13.3808 187.68 13.0489 187.834 12.6539 187.908ZM12.4762 186.955C12.7318 186.908 12.9176 186.765 13.0335 186.526C13.1479 186.281 13.1647 185.941 13.0838 185.507C13.0029 185.073 12.8655 184.766 12.6716 184.586C12.4763 184.398 12.2508 184.328 11.9953 184.376C11.7474 184.422 11.5624 184.569 11.4402 184.817C11.3243 185.055 11.3068 185.391 11.3877 185.824C11.4671 186.25 11.6045 186.557 11.7999 186.745C12.003 186.932 12.2284 187.002 12.4762 186.955ZM18.887 190.71C18.4997 190.782 18.1346 190.758 17.7916 190.638C17.4549 190.509 17.1703 190.293 16.9378 189.992C16.7039 189.683 16.5443 189.3 16.4591 188.843C16.3739 188.386 16.3854 187.975 16.4937 187.611C16.6019 187.246 16.7898 186.942 17.0571 186.7C17.3323 186.456 17.6634 186.298 18.0507 186.225C18.4534 186.15 18.8231 186.177 19.1598 186.306C19.4965 186.436 19.7811 186.651 20.0136 186.952C20.2461 187.253 20.405 187.632 20.4902 188.089C20.5754 188.546 20.5646 188.961 20.4578 189.334C20.3495 189.699 20.1617 190.002 19.8943 190.245C19.6255 190.479 19.2897 190.634 18.887 190.71ZM18.7093 189.757C18.9649 189.709 19.1506 189.566 19.2665 189.328C19.381 189.082 19.3978 188.743 19.3169 188.309C19.2374 187.883 19.1 187.576 18.9047 187.388C18.7094 187.2 18.4839 187.13 18.2283 187.178C17.9805 187.224 17.7955 187.371 17.6733 187.618C17.5574 187.856 17.5399 188.192 17.6208 188.626C17.7017 189.06 17.8398 189.371 18.0351 189.559C18.2368 189.737 18.4615 189.803 18.7093 189.757Z" fill="white"/>
<path d="M31.836 238.031C31.286 238.031 30.736 237.853 30.283 237.464C29.2477 236.605 29.1183 235.066 29.9757 234.045L43.3216 217.971C44.179 216.934 45.7158 216.805 46.735 217.664C47.7703 218.522 47.8997 220.062 47.0423 221.083L33.6964 237.156C33.2111 237.739 32.5316 238.031 31.836 238.031Z" fill="white"/>
<mask id="mask8_2063_5613" style="mask-type:luminance" maskUnits="userSpaceOnUse" x="29" y="217" width="19" height="22">
<path d="M31.836 238.031C31.286 238.031 30.736 237.853 30.283 237.464C29.2477 236.605 29.1183 235.066 29.9757 234.045L43.3216 217.971C44.179 216.934 45.7158 216.805 46.735 217.664C47.7703 218.522 47.8997 220.062 47.0423 221.083L33.6964 237.156C33.2111 237.739 32.5316 238.031 31.836 238.031Z" fill="white"/>
</mask>
<g mask="url(#mask8_2063_5613)">
<path opacity="0.03" d="M52.4292 225.166C43.9525 225.166 37.0612 218.263 37.0612 209.773C37.0612 201.282 43.9525 194.379 52.4292 194.379C60.9059 194.379 67.7973 201.282 67.7973 209.773C67.7973 218.263 60.9059 225.166 52.4292 225.166ZM52.4292 199.24C46.6379 199.24 41.9142 203.972 41.9142 209.773C41.9142 215.573 46.6379 220.305 52.4292 220.305C58.2206 220.305 62.9442 215.573 62.9442 209.773C62.9442 203.972 58.2206 199.24 52.4292 199.24Z" fill="black"/>
</g>
<path d="M42.1246 230.254L35.9612 237.302C34.3758 239.117 31.5934 239.295 29.7977 237.707C27.9859 236.119 27.808 233.332 29.3933 231.534L35.5567 224.485L42.1407 230.254H42.1246Z" fill="white"/>
<mask id="mask9_2063_5613" style="mask-type:luminance" maskUnits="userSpaceOnUse" x="28" y="224" width="15" height="15">
<path d="M42.1246 230.254L35.9612 237.302C34.3758 239.117 31.5934 239.295 29.7977 237.707C27.9859 236.119 27.808 233.332 29.3933 231.534L35.5567 224.485L42.1407 230.254H42.1246Z" fill="white"/>
</mask>
<g mask="url(#mask9_2063_5613)">
<path opacity="0.03" d="M41.5746 228.39L35.2494 235.633C33.3891 237.756 30.1537 237.967 28.0345 236.119C27.6786 235.811 27.3874 235.439 27.1448 235.066C27.2257 236.395 27.7919 237.691 28.8757 238.647C30.9949 240.51 34.2464 240.284 36.0906 238.161L43.3055 229.913L41.5908 228.407L41.5746 228.39Z" fill="#010102"/>
</g>
<path d="M53.141 224.258C44.6643 224.258 37.7729 217.356 37.7729 208.865C37.7729 200.375 44.6643 193.472 53.141 193.472C61.6177 193.472 68.5091 200.375 68.5091 208.865C68.5091 217.356 61.6177 224.258 53.141 224.258ZM53.141 198.333C47.3497 198.333 42.626 203.065 42.626 208.865C42.626 214.666 47.3497 219.397 53.141 219.397C58.9324 219.397 63.656 214.666 63.656 208.865C63.656 203.065 58.9324 198.333 53.141 198.333Z" fill="white"/>
<mask id="mask10_2063_5613" style="mask-type:luminance" maskUnits="userSpaceOnUse" x="37" y="193" width="32" height="32">
<path d="M53.141 224.258C44.6643 224.258 37.7729 217.356 37.7729 208.865C37.7729 200.375 44.6643 193.472 53.141 193.472C61.6177 193.472 68.5091 200.375 68.5091 208.865C68.5091 217.356 61.6177 224.258 53.141 224.258ZM53.141 198.333C47.3497 198.333 42.626 203.065 42.626 208.865C42.626 214.666 47.3497 219.397 53.141 219.397C58.9324 219.397 63.656 214.666 63.656 208.865C63.656 203.065 58.9324 198.333 53.141 198.333Z" fill="white"/>
</mask>
<g mask="url(#mask10_2063_5613)">
<g opacity="0.04">
<path d="M40.4584 208.331C40.4584 213.03 43.7261 217.032 48.2233 218.377C44.7938 216.578 42.4481 213.111 42.4481 209.141C42.4481 203.34 47.4306 198.609 53.5455 198.609C54.7102 198.609 55.8264 198.787 56.8941 199.095C55.3088 198.268 53.497 197.799 51.5557 197.799C45.4247 197.799 40.4584 202.53 40.4584 208.331Z" fill="black"/>
<path d="M58.9486 194.639C64.19 197.199 67.7974 202.368 67.7974 208.331C67.7974 216.821 60.5178 223.724 51.572 223.724C49.6793 223.724 47.8836 223.4 46.1851 222.833C48.4013 223.918 50.9087 224.534 53.5617 224.534C62.5076 224.534 69.7872 217.631 69.7872 209.141C69.7872 202.449 65.2415 196.745 58.9325 194.639H58.9486Z" fill="black"/>
</g>
</g>
<path d="M446.046 389.888L458.939 447.491C459.247 448.901 458.729 450.359 457.596 451.25L446.354 460.065L446.062 389.888H446.046Z" fill="#FCAF15"/>
<path d="M439.187 399.772L389.961 400.032C386.79 400.048 384.202 397.488 384.186 394.312C384.169 391.136 386.725 388.544 389.896 388.527L439.122 388.268C442.293 388.252 444.881 390.812 444.898 393.988C444.914 397.164 442.358 399.756 439.187 399.772Z" fill="#FF7C10"/>
<path d="M443.959 460.308L384.622 459.595C380.772 459.547 377.763 456.257 378.071 452.417L382.843 391.736C382.94 390.456 383.991 389.467 385.269 389.467L444.024 389.338C445.318 389.338 446.386 390.342 446.467 391.639L450.673 453.211C450.932 457.1 447.842 460.373 443.959 460.324V460.308Z" fill="#FF9F43"/>
<mask id="mask11_2063_5613" style="mask-type:luminance" maskUnits="userSpaceOnUse" x="378" y="389" width="73" height="72">
<path d="M443.959 460.308L384.622 459.595C380.772 459.547 377.763 456.257 378.071 452.417L382.843 391.736C382.94 390.456 383.991 389.467 385.269 389.467L444.024 389.338C445.318 389.338 446.386 390.342 446.467 391.639L450.673 453.211C450.932 457.1 447.842 460.373 443.959 460.324V460.308Z" fill="white"/>
</mask>
<g mask="url(#mask11_2063_5613)">
<g opacity="0.3">
<path opacity="0.4" d="M449.751 390.196C453.859 389.597 441.371 384.12 438.378 384.12H438.184C436.809 384.12 435.725 385.303 435.871 386.68L436.178 389.986C439.64 426.411 410.813 457.797 374.285 457.359C373.104 457.359 372.101 458.218 371.94 459.401C371.503 462.852 374.156 465.914 377.618 465.947L445.059 466.757C448.505 466.806 451.223 463.84 450.899 460.405L449.751 390.213V390.196Z" fill="white"/>
</g>
</g>
<path d="M400.621 400.955C400.12 384.736 399.505 370.039 414.711 370.056C429.222 370.072 430.662 383.602 430.063 401.15" stroke="#212121" stroke-width="0.95" stroke-linecap="round" stroke-linejoin="round"/>
<path d="M402.692 403.078C402.692 404.228 401.738 405.152 400.573 405.136C399.424 405.136 398.502 404.18 398.518 403.013C398.518 401.863 399.473 400.939 400.638 400.955C401.786 400.955 402.708 401.911 402.692 403.078Z" fill="#FF7C10"/>
<path d="M432.118 403.273C432.118 404.423 431.163 405.347 429.999 405.33C428.85 405.33 427.928 404.374 427.944 403.208C427.944 402.057 428.899 401.134 430.063 401.15C431.228 401.166 432.134 402.106 432.118 403.273Z" fill="#FF7C10"/>
<path d="M162.997 391.833L175.89 449.435C176.197 450.845 175.68 452.303 174.547 453.195L163.304 462.009L163.013 391.833H162.997Z" fill="#FCAF15"/>
<path d="M156.138 401.717L106.912 401.976C103.741 401.992 101.153 399.432 101.137 396.256C101.12 393.08 103.676 390.488 106.847 390.472L156.073 390.212C159.244 390.196 161.832 392.756 161.848 395.932C161.865 399.108 159.309 401.701 156.138 401.717Z" fill="#FF7C10"/>
<path d="M160.91 462.252L101.573 461.539C97.7231 461.491 94.7143 458.202 95.0216 454.361L99.7938 393.68C99.8909 392.4 100.942 391.412 102.22 391.412L160.975 391.282C162.269 391.282 163.337 392.287 163.418 393.583L167.624 455.155C167.882 459.044 164.793 462.317 160.91 462.269V462.252Z" fill="#FF9F43"/>
<mask id="mask12_2063_5613" style="mask-type:luminance" maskUnits="userSpaceOnUse" x="95" y="391" width="73" height="72">
<path d="M160.91 462.252L101.573 461.539C97.7231 461.491 94.7143 458.202 95.0216 454.361L99.7938 393.68C99.8909 392.4 100.942 391.412 102.22 391.412L160.975 391.282C162.269 391.282 163.337 392.287 163.418 393.583L167.624 455.155C167.882 459.044 164.793 462.317 160.91 462.269V462.252Z" fill="white"/>
</mask>
<g mask="url(#mask12_2063_5613)">
<g opacity="0.3">
<path opacity="0.4" d="M166.701 392.141C170.81 391.541 158.322 386.064 155.329 386.064H155.135C153.76 386.064 152.676 387.247 152.822 388.625L153.129 391.93C156.591 428.355 127.764 459.741 91.2362 459.303C90.0553 459.303 89.0523 460.162 88.8905 461.345C88.4538 464.796 91.1068 467.859 94.5686 467.891L162.01 468.701C165.456 468.75 168.174 465.785 167.85 462.35L166.701 392.157V392.141Z" fill="white"/>
</g>
</g>
<path d="M117.572 402.9C117.071 386.68 116.456 371.984 131.662 372C146.173 372.016 147.613 385.546 147.014 403.094" stroke="#212121" stroke-width="0.95" stroke-linecap="round" stroke-linejoin="round"/>
<path d="M119.643 405.022C119.643 406.173 118.689 407.096 117.524 407.08C116.375 407.08 115.453 406.124 115.469 404.957C115.469 403.807 116.424 402.883 117.588 402.9C118.737 402.9 119.659 403.856 119.643 405.022Z" fill="#FF7C10"/>
<path d="M149.069 405.217C149.069 406.367 148.114 407.291 146.95 407.275C145.801 407.275 144.879 406.319 144.895 405.152C144.895 404.002 145.85 403.078 147.014 403.094C148.179 403.11 149.085 404.05 149.069 405.217Z" fill="#FF7C10"/>
<path d="M493.331 372.292L510.139 443.829C510.543 445.579 509.913 447.394 508.521 448.528L494.642 459.66L493.331 372.308V372.292Z" fill="#FCAF15"/>
<path d="M484.919 384.687L423.641 385.676C419.694 385.74 416.442 382.581 416.378 378.627C416.313 374.674 419.467 371.417 423.414 371.352L484.693 370.364C488.64 370.299 491.891 373.458 491.956 377.412C492.021 381.366 488.866 384.622 484.919 384.687Z" fill="#FCAF15"/>
<path d="M491.681 460.016L417.801 459.935C413.013 459.935 409.227 455.868 409.551 451.072L414.679 375.451C414.776 373.863 416.086 372.616 417.672 372.599L490.808 371.643C492.409 371.627 493.768 372.859 493.881 374.463L499.948 451.072C500.336 455.901 496.518 460.032 491.681 460.032V460.016Z" fill="#FECA57"/>
<mask id="mask13_2063_5613" style="mask-type:luminance" maskUnits="userSpaceOnUse" x="409" y="371" width="91" height="90">
<path d="M491.681 460.016L417.801 459.935C413.013 459.935 409.227 455.868 409.551 451.072L414.679 375.451C414.776 373.863 416.086 372.616 417.672 372.599L490.808 371.643C492.409 371.627 493.768 372.859 493.881 374.463L499.948 451.072C500.336 455.901 496.518 460.032 491.681 460.032V460.016Z" fill="white"/>
</mask>
<g mask="url(#mask13_2063_5613)">
<g opacity="0.3">
<path opacity="0.4" d="M497.958 372.648C503.07 371.838 487.427 365.211 483.722 365.243H483.479C481.765 365.259 480.438 366.75 480.616 368.451L481.053 372.551C485.857 417.855 450.381 457.326 404.892 457.262C403.42 457.262 402.174 458.363 402.012 459.822C401.511 464.116 404.86 467.891 409.179 467.907L493.153 468.004C497.44 468.004 500.789 464.278 500.336 460.016L497.958 372.648Z" fill="white"/>
</g>
</g>
<path d="M436.938 386.696C436.097 366.507 435.127 348.214 454.054 348.035C472.123 347.857 474.097 364.692 473.579 386.551" stroke="#212121" stroke-width="1.19" stroke-linecap="round" stroke-linejoin="round"/>
<path d="M439.543 389.305C439.543 390.747 438.378 391.914 436.938 391.898C435.499 391.898 434.334 390.731 434.35 389.289C434.366 387.847 435.515 386.68 436.955 386.696C438.394 386.696 439.559 387.863 439.543 389.305Z" fill="#FCAF15"/>
<path d="M476.184 389.159C476.184 390.601 475.019 391.768 473.579 391.752C472.139 391.752 470.975 390.585 470.991 389.143C470.991 387.701 472.156 386.534 473.595 386.55C475.035 386.55 476.2 387.717 476.184 389.159Z" fill="#FCAF15"/>
</g>
<defs>
<clipPath id="clip0_2063_5613">
<rect width="534" height="477" fill="white"/>
</clipPath>
</defs>
</svg>
