<svg width="169" height="200" viewBox="0 0 169 200" fill="none" xmlns="http://www.w3.org/2000/svg">
<path d="M127.53 15.9378L157.634 14.6863C158.932 14.6319 160.228 14.8369 161.445 15.2893C162.663 15.7416 163.778 16.4323 164.725 17.3209C165.673 18.2095 166.433 19.2781 166.963 20.4642C167.492 21.6503 167.78 22.9301 167.809 24.2287L168.872 70.7269C168.928 73.181 168.057 75.5659 166.434 77.4072C164.811 79.2484 162.554 80.411 160.112 80.6636C159.294 80.7488 158.538 81.1421 157.999 81.7638C157.46 82.3854 157.177 83.1889 157.209 84.0112L160.994 182.251C161.117 185.468 159.961 188.602 157.781 190.971C155.6 193.339 152.572 194.748 149.356 194.891L34.3461 199.997C33.9178 200.016 33.4899 199.95 33.0873 199.803C32.6846 199.656 32.3152 199.43 32.0004 199.139C31.6855 198.848 31.4315 198.498 31.2531 198.108C31.0747 197.718 30.9753 197.297 30.9609 196.868L25.8862 26.3062C25.8615 25.4702 26.1609 24.657 26.7218 24.0366C27.2827 23.4162 28.0617 23.0366 28.896 22.9773L127.53 15.9378Z" fill="#D6D6D6"/>
<g opacity="0.3">
<path d="M30.873 193.575L30.9732 196.798L154.781 185.416L152.415 14.8848C152.415 14.8848 122.38 19.4401 121.817 19.4401C121.254 19.4401 30.873 193.575 30.873 193.575Z" fill="#EBEBEB"/>
</g>
<path d="M111.856 6.78381L147.786 4.59375L151.496 181.345L25.0359 194.172L6.41406 18.3474L111.856 6.78381Z" fill="#EBEBEB"/>
<path d="M111.887 6.78389C111.887 6.78389 111.261 6.86523 110.009 7.00289L104.54 7.62863L83.5346 9.96261L6.42553 18.4663L6.5319 18.3349C11.5378 65.4401 18.0266 126.637 25.1975 194.166L25.016 194.022L53.3617 191.15L151.483 181.207L151.339 181.363C149.756 104.079 148.454 40.6923 147.71 4.60634L147.791 4.68142L121.054 6.27704L114.17 6.67125L111.843 6.7964C111.843 6.7964 112.625 6.73383 114.164 6.63371L121.047 6.1957L147.785 4.53125H147.86V4.60634C148.636 40.6986 149.994 104.098 151.652 181.363V181.501H151.514L53.3993 191.456L25.0536 194.335H24.8909V194.178C17.7576 126.656 11.2875 65.4588 6.30664 18.3474V18.2223H6.42553L83.5095 9.83746L104.522 7.56605L109.991 6.98412C111.223 6.8402 111.887 6.78389 111.887 6.78389Z" fill="#969696"/>
<path d="M0.125 12.4766L17.245 190.36L149.694 177.883L130.59 0.130859L0.125 12.4766Z" fill="white"/>
<path d="M0.125 12.4709L130.578 0H130.709V0.131406C136.084 50.0273 142.698 111.512 149.844 177.883V178.046H149.681L148.743 178.134L17.2576 190.511H17.1136V190.36C7.05186 85.0496 0.250147 13.7724 0.125 12.4709C0.250147 13.7724 7.17075 85.0559 17.3952 190.348L17.2325 190.217L148.737 177.814L149.675 177.721L149.531 177.902C142.404 111.512 135.815 50.0461 130.459 0.143918L130.603 0.262809L0.125 12.4709Z" fill="#969696"/>
<rect x="19" y="70.7676" width="83" height="10" rx="5" transform="rotate(-6.75894 19 70.7676)" fill="#EBEBEB"/>
<rect x="21" y="88.3223" width="45.2193" height="10" rx="5" transform="rotate(-6.75894 21 88.3223)" fill="#EBEBEB"/>
<rect x="24" y="107.768" width="83" height="10" rx="5" transform="rotate(-6.75894 24 107.768)" fill="#EBEBEB"/>
</svg>
