<svg width="150" height="107" viewBox="0 0 150 107" fill="none" xmlns="http://www.w3.org/2000/svg">
<path d="M3.38941 92.2847L0.5 83.7565L13.516 38.8636L26.1314 34.5742L38.111 69.9316L44.9242 67.6158L48.1287 77.0754L41.3154 79.3912L45.0467 90.4006L34.2105 94.0852L30.4811 83.074L3.38941 92.2847ZM19.9326 49.6513L12.1043 78.7729L27.9708 73.3791L19.9326 49.6513Z" fill="#386384"/>
<path d="M56.1721 19.7382C60.1621 14.811 66.0828 12.7966 73.9344 13.6968C81.7841 14.5952 87.0982 17.8968 89.8748 23.5998C92.6495 29.3028 93.5012 36.8452 92.4317 46.2271C91.3526 55.6653 88.817 62.8733 84.8193 67.8549C80.8235 72.8365 74.8989 74.8762 67.0492 73.9779C59.1996 73.0776 53.8894 69.7487 51.1186 63.9932C48.3497 58.2358 47.5019 50.6389 48.5791 41.2027C49.6505 31.8208 52.1822 24.6653 56.1721 19.7382ZM81.6091 34.7258C81.5546 33.4658 81.3291 32.235 80.9363 31.0353C80.5416 29.8356 79.9932 28.7117 79.2913 27.6636C77.9458 25.7523 75.7583 24.6206 72.725 24.2726C69.6936 23.9245 67.3078 24.5292 65.5656 26.0887C64.644 26.952 63.8565 27.9222 63.2032 29.0014C62.5479 30.0825 62.0521 31.2297 61.7137 32.4469C60.7668 35.7349 60.1232 39.0813 59.7868 42.486C59.3396 45.9587 59.1899 49.4451 59.3318 52.9431C59.501 55.7936 60.271 58.1619 61.6457 60.048C63.0204 61.9361 65.2254 63.0541 68.2567 63.4021C71.2881 63.7502 73.6875 63.1591 75.4511 61.6308C77.2166 60.1025 78.5019 57.9694 79.3088 55.2317C80.2363 51.8562 80.8741 48.4281 81.2241 44.9437C81.6616 41.5507 81.7918 38.1441 81.6091 34.7258Z" fill="#386384"/>
<path d="M92.3398 71.1344L94.9259 62.505L131.528 33.5078L144.287 37.3461L133.566 73.106L140.455 75.1788L137.587 84.7473L130.697 82.6745L127.359 93.8102L116.4 90.5125L119.739 79.3768L92.3398 71.1344ZM130.505 46.0241L107.263 65.1922L123.311 70.0202L130.505 46.0241Z" fill="#386384"/>
<path d="M55.127 58.2375L81.3533 26.6367L87.1263 31.4453L60.898 63.0441L55.127 58.2375Z" fill="#386384"/>
<path d="M13.56 99.7871L15.6774 100.752C15.8019 100.808 15.9108 100.886 16.0041 100.985C16.0955 101.084 16.1674 101.197 16.2141 101.325C16.2627 101.454 16.2841 101.586 16.2783 101.722C16.2744 101.858 16.2433 101.988 16.1888 102.113L15.2263 104.232C15.17 104.357 15.0922 104.465 14.993 104.559C14.8938 104.652 14.7791 104.722 14.6527 104.771C14.5244 104.817 14.3941 104.839 14.258 104.835C14.1219 104.831 13.9916 104.8 13.8672 104.743L11.7497 103.781C11.6253 103.725 11.5183 103.647 11.425 103.546C11.3317 103.447 11.2617 103.334 11.2131 103.205C11.1664 103.077 11.145 102.947 11.1489 102.809C11.1528 102.673 11.1839 102.542 11.2403 102.42L12.2028 100.299C12.2572 100.174 12.3369 100.065 12.4361 99.9719C12.5353 99.8785 12.648 99.8085 12.7764 99.7599C12.9028 99.7133 13.035 99.6919 13.1711 99.6958C13.3072 99.6997 13.4375 99.7308 13.56 99.7871Z" fill="#9CB1C2"/>
<path d="M39.0097 40.815L41.1272 41.7775C41.2516 41.8339 41.3585 41.9116 41.4519 42.0108C41.5452 42.1119 41.6152 42.2247 41.6638 42.353C41.7105 42.4794 41.7319 42.6116 41.728 42.7477C41.7241 42.8838 41.693 43.0141 41.6366 43.1386L40.6761 45.2599C40.6197 45.3844 40.5419 45.4933 40.4408 45.5847C40.3416 45.678 40.2288 45.7499 40.1005 45.7966C39.9741 45.8452 39.8419 45.8666 39.7058 45.8627C39.5697 45.8569 39.4394 45.8277 39.3169 45.7713L37.1994 44.8069C37.075 44.7505 36.9661 44.6727 36.8747 44.5736C36.7814 44.4744 36.7114 44.3597 36.6628 44.2333C36.6141 44.1049 36.5928 43.9727 36.5986 43.8366C36.6025 43.7005 36.6336 43.5702 36.69 43.4458L37.6505 41.3244C37.7069 41.2 37.7847 41.093 37.8839 40.9997C37.983 40.9064 38.0977 40.8364 38.2241 40.7878C38.3525 40.7391 38.4847 40.7178 38.6188 40.7236C38.755 40.7275 38.8852 40.7586 39.0097 40.815Z" fill="#9CB1C2"/>
<path d="M146.781 61.0215L148.899 61.986C149.023 62.0423 149.132 62.1201 149.223 62.2193C149.317 62.3185 149.387 62.4312 149.435 62.5596C149.482 62.6879 149.505 62.8201 149.499 62.9562C149.496 63.0923 149.464 63.2226 149.408 63.3471L148.447 65.4665C148.391 65.5909 148.313 65.6998 148.214 65.7931C148.113 65.8865 148 65.9565 147.874 66.0051C147.746 66.0517 147.613 66.0731 147.477 66.0692C147.341 66.0654 147.213 66.0342 147.088 65.9779L144.971 65.0154C144.846 64.959 144.738 64.8812 144.646 64.7801C144.553 64.6809 144.483 64.5682 144.434 64.4398C144.388 64.3115 144.364 64.1812 144.37 64.0432C144.374 63.907 144.405 63.7768 144.461 63.6543L145.422 61.5329C145.478 61.4085 145.556 61.2996 145.655 61.2062C145.756 61.1129 145.869 61.0429 145.996 60.9943C146.124 60.9476 146.256 60.9262 146.392 60.9301C146.528 60.934 146.657 60.9651 146.781 61.0215Z" fill="#9CB1C2"/>
<mask id="mask0_2168_27563" style="mask-type:luminance" maskUnits="userSpaceOnUse" x="70" y="102" width="5" height="5">
<path d="M70.1875 102.203H74.1697V106.03H70.1875V102.203Z" fill="white"/>
</mask>
<g mask="url(#mask0_2168_27563)">
<path d="M73.8749 104.226C73.8749 104.46 73.8302 104.685 73.7407 104.901C73.6513 105.117 73.5249 105.308 73.3596 105.473C73.1943 105.638 73.0057 105.765 72.7899 105.854C72.5741 105.943 72.3505 105.988 72.1171 105.988C71.8838 105.988 71.6582 105.943 71.4424 105.854C71.2285 105.765 71.038 105.638 70.8727 105.473C70.7074 105.308 70.581 105.117 70.4916 104.901C70.4021 104.685 70.3574 104.46 70.3574 104.226C70.3574 103.993 70.4021 103.768 70.4916 103.552C70.581 103.336 70.7074 103.145 70.8727 102.98C71.038 102.815 71.2285 102.687 71.4424 102.599C71.6582 102.51 71.8838 102.465 72.1171 102.465C72.3505 102.465 72.5741 102.51 72.7899 102.599C73.0057 102.687 73.1943 102.815 73.3596 102.98C73.5249 103.145 73.6513 103.336 73.7407 103.552C73.8302 103.768 73.8749 103.993 73.8749 104.226Z" fill="#9CB1C2"/>
</g>
<mask id="mask1_2168_27563" style="mask-type:luminance" maskUnits="userSpaceOnUse" x="68" y="0" width="5" height="4">
<path d="M68.1973 0H72.1794V3.63996H68.1973V0Z" fill="white"/>
</mask>
<g mask="url(#mask1_2168_27563)">
<path d="M72.1171 1.78118C72.1171 2.01451 72.0723 2.24006 71.9829 2.45589C71.8935 2.67173 71.7651 2.86228 71.6018 3.02755C71.4365 3.19283 71.246 3.31922 71.0301 3.40866C70.8143 3.49811 70.5907 3.54283 70.3574 3.54283C70.124 3.54283 69.9004 3.49811 69.6846 3.40866C69.4688 3.31922 69.2782 3.19283 69.1129 3.02755C68.9477 2.86228 68.8213 2.67173 68.7318 2.45589C68.6424 2.24006 68.5977 2.01451 68.5977 1.78118C68.5977 1.54785 68.6424 1.3223 68.7318 1.10646C68.8213 0.890633 68.9477 0.700079 69.1129 0.534804C69.2782 0.369528 69.4688 0.24314 69.6846 0.153696C69.9004 0.0642527 70.124 0.0195312 70.3574 0.0195312C70.5907 0.0195312 70.8143 0.0642527 71.0301 0.153696C71.246 0.24314 71.4365 0.369528 71.6018 0.534804C71.7651 0.700079 71.8935 0.890633 71.9829 1.10646C72.0723 1.3223 72.1171 1.54785 72.1171 1.78118Z" fill="#9CB1C2"/>
</g>
</svg>
