<svg width="161" height="160" viewBox="0 0 161 160" fill="none" xmlns="http://www.w3.org/2000/svg">
<path d="M144.935 95.5653C153.531 59.9787 131.651 24.1615 96.0647 15.5653C60.4781 6.96913 24.6609 28.8492 16.0647 64.4358C7.46857 100.022 29.3487 135.84 64.9353 144.436C100.522 153.032 136.339 131.152 144.935 95.5653Z" fill="#EDF2F5"/>
<path d="M83.4587 109.182C83.4561 110.266 83.1319 111.325 82.5272 112.224C81.9226 113.124 81.0646 113.824 80.062 114.236C79.0593 114.647 77.9571 114.752 76.8947 114.537C75.8324 114.322 74.8577 113.797 74.0941 113.028C73.3304 112.259 72.8122 111.28 72.605 110.216C72.3977 109.152 72.5108 108.051 72.9298 107.051C73.3489 106.052 74.0551 105.199 74.959 104.601C75.863 104.003 76.924 103.686 78.0079 103.691C79.4572 103.702 80.8436 104.285 81.8647 105.314C82.8857 106.342 83.4587 107.733 83.4587 109.182Z" fill="#386384"/>
<path d="M67.0394 102.148C68.437 100.643 70.1252 99.438 72.0019 98.6048C73.8787 97.7717 75.9049 97.328 77.9581 97.3006C80.0113 97.2732 82.0487 97.6626 83.947 98.4454C85.8454 99.2281 87.5651 100.388 89.0023 101.854C91.801 104.68 96.1722 100.348 93.3736 97.5231C91.3618 95.4956 88.9647 93.891 86.3235 92.8038C83.6823 91.7165 80.8503 91.1685 77.9942 91.1921C75.138 91.2157 72.3155 91.8104 69.6926 92.9412C67.0697 94.0719 64.6995 95.7159 62.7215 97.7763C59.9894 100.642 64.3207 105.026 67.0661 102.148H67.0394Z" fill="#386384"/>
<path d="M48.4338 76.6942C56.7632 69.4976 66.7051 64.9664 77.8332 64.9398C88.942 64.7813 99.6919 68.8715 107.886 76.3744C110.764 79.0398 115.149 74.7618 112.257 72.0431C102.917 63.3923 90.6304 58.6265 77.8998 58.7161C65.0926 58.7161 53.7113 64.0469 44.1292 72.2696C41.1306 74.8684 45.4619 79.2264 48.4738 76.6409L48.4338 76.6942Z" fill="#386384"/>
<path d="M55.7787 90.7776C58.5557 87.6784 61.9448 85.1882 65.7323 83.4642C69.5197 81.7402 73.6233 80.8198 77.7843 80.7609C81.9452 80.7021 86.0732 81.5061 89.9079 83.1223C93.7426 84.7385 97.2008 87.1318 100.064 90.1512C102.836 92.9899 107.208 88.6586 104.436 85.8066C101 82.216 96.8635 79.3693 92.2826 77.4429C87.7017 75.5166 82.7739 74.5516 77.8047 74.6078C72.8355 74.664 67.9309 75.7402 63.3947 77.7698C58.8586 79.7993 54.7876 82.7389 51.4341 86.4063C48.7687 89.3116 53.0733 93.6962 55.7787 90.7776Z" fill="#386384"/>
<path d="M129.733 65.0826C131.349 55.9431 125.251 47.2237 116.111 45.6072C106.972 43.9907 98.2523 50.0894 96.6359 59.2289C95.0194 68.3683 101.118 77.0878 110.257 78.7042C119.397 80.3207 128.116 74.2221 129.733 65.0826Z" fill="#CB3A31"/>
<path d="M120.111 57.4545L117.727 55.0703L107.05 65.7473L109.434 68.1314L120.111 57.4545Z" fill="white"/>
<path d="M109.439 55.0611L107.055 57.4453L117.732 68.1223L120.116 65.7381L109.439 55.0611Z" fill="white"/>
</svg>
