<svg width="17" height="16" viewBox="0 0 17 16" fill="none" xmlns="http://www.w3.org/2000/svg">
<path fill-rule="evenodd" clip-rule="evenodd" d="M7.99965 2.3335C5.31608 2.3335 3.14062 4.50896 3.14062 7.19254C3.14062 9.87607 5.31608 12.0515 7.99965 12.0515C10.6832 12.0515 12.8587 9.87607 12.8587 7.19254C12.8587 4.50896 10.6832 2.3335 7.99965 2.3335ZM2.14062 7.19254C2.14062 3.95668 4.7638 1.3335 7.99965 1.3335C11.2355 1.3335 13.8587 3.95668 13.8587 7.19254C13.8587 10.4284 11.2355 13.0515 7.99965 13.0515C4.7638 13.0515 2.14062 10.4284 2.14062 7.19254Z" fill="#595959"/>
<path fill-rule="evenodd" clip-rule="evenodd" d="M11.6574 10.4316L15.401 14.1656L14.6948 14.8736L10.9512 11.1396L11.6574 10.4316Z" fill="#595959"/>
</svg>
